<?xml version="1.0" encoding="UTF-8" standalone="no"?><!DOCTYPE svg PUBLIC "-//W3C//DTD SVG 1.1//EN" "http://www.w3.org/Graphics/SVG/1.1/DTD/svg11.dtd"><svg width="100%" height="100%" viewBox="0 0 1602 1030" version="1.1" xmlns="http://www.w3.org/2000/svg" xmlns:xlink="http://www.w3.org/1999/xlink" xml:space="preserve" xmlns:serif="http://www.serif.com/" style="fill-rule:evenodd;clip-rule:evenodd;stroke-linejoin:round;stroke-miterlimit:2;"><rect id="Agenda" x="0" y="0" width="1601.53" height="1029.41" style="fill:none;"/><g id="Layer2"><g><path d="M531.262,89.122c224.231,-12.684 459.33,53.387 424.768,149.163c-34.556,95.776 184.756,-34.02 272.274,0.512c62.312,24.584 37.404,99.423 67.545,129.58c69.117,69.142 139.803,-17.927 227.77,34.315c61.73,36.662 73.663,266.067 54.814,415.141c-9.125,72.189 -65.627,129.239 -137.698,139.261l-1101.43,-32.61l-134.2,10.39c0,0 -242.035,-89.898 -48.091,-215.662c102.163,-66.245 28.224,-119.417 17.279,-151.09c-12.567,-36.364 -41.889,-99.872 85.87,-146.48c127.76,-46.607 94.773,-148.017 91.631,-169.017c-3.142,-20.999 -44.764,-150.819 179.468,-163.503Z" style="fill:#eafcfc;fill-rule:nonzero;"/><path d="M1418.72,266.968c0,0 -22.448,48.872 -37.553,69.515c-15.11,20.644 -29.498,40.385 -41.552,97.682c-12.053,57.297 -9.987,63.056 -13.288,77.854c-3.295,14.8 -24.768,74.757 -24.887,85.755c-0.125,10.993 -43.389,73.584 -54.471,102.878c-11.082,29.294 -30.713,71.139 -29.613,92.447l4.934,-1.255c-0,0 4.018,-49.676 38.221,-99.88c34.198,-50.204 29.309,-59.683 68.147,-85.472c38.838,-25.789 63.925,-97.036 63.925,-97.036c-0,0 39.51,-77.383 37.668,-117.611c-1.838,-40.228 8.652,-76.508 -11.531,-124.877Z" style="fill:#256653;fill-rule:nonzero;"/><path d="M1366.15,191.804c0,-0 -1.309,32.103 -11.665,51.174c-10.355,19.07 -19.277,30.653 -21.154,51.286c-1.882,20.633 -8.383,73.828 -37.259,99.797c-28.876,25.969 -32.565,103.783 -54.541,127.322c-21.98,23.538 -24.853,40.456 -20.795,80.827c4.057,40.376 17.848,96.326 -14.035,169.352l-7.209,-18.162c0,-0 22.812,-60.082 17.291,-95.261c-5.522,-35.178 -24.739,-88.335 -17.704,-113.83c7.03,-25.495 -19.123,-30.472 -3.376,-69.032c15.753,-38.559 9.28,-51.956 30.718,-85.295c0,-0 2.201,-1.561 7.837,-29.768c5.64,-28.207 51.075,-79.907 72.02,-97.55c20.94,-17.642 51.115,-45.917 59.872,-70.86Z" style="fill:#256653;fill-rule:nonzero;"/><path d="M1280.86,350.751c0,0 -25.077,42.933 -25.436,70.567c-0.358,27.633 2.639,50.11 -10.046,87.951c-12.691,37.838 12.491,61.76 5.232,82.655c-7.254,20.89 -7.816,45.629 -7.597,64.388c0.224,18.755 -28.722,80.838 -33.128,112.267c-4.406,31.435 1.225,31.54 1.225,31.54c0,-0 4.799,-41.502 11.456,-55.223c6.661,-13.721 26.914,-61.032 31.644,-79.338c4.729,-18.302 17.554,-30.051 28.612,-61.053c11.062,-30.997 26.789,-57.109 25.59,-101.095c-1.205,-43.988 16.499,-90.415 -27.552,-152.659Z" style="fill:#3c8f7c;fill-rule:nonzero;"/><path d="M1227.77,771.313c0,-0 11.695,-54.486 61.008,-59.928c49.308,-5.441 78.273,4.307 113.109,-35.497c34.835,-39.809 55.068,-102.982 66.195,-113.855c-0,-0 -17.5,-9.001 -46.6,18.202c-29.099,27.203 -49.537,47.839 -66.384,63.676c-16.848,15.842 -30.524,5.511 -48.312,15.956c-14.901,8.752 -34.178,34.044 -42.667,47.292c-2.758,4.301 -6.029,8.249 -9.783,11.714c-3.415,3.157 -7.488,7.02 -10.096,9.863c-5.223,5.69 -20.283,42.771 -20.283,42.771l3.813,-0.194Z" style="fill:#3c8f7c;fill-rule:nonzero;"/><path d="M1210.39,761.699c0,0 17.38,-66.633 5.741,-99.243c-11.64,-32.61 -48.079,-56.736 -46.615,-77.218c1.464,-20.487 24.858,-75.849 5.785,-117.067c0,-0 -7.249,36.766 -14.398,44.945c-7.149,8.177 -56.223,41.16 -47.521,84.718c8.698,43.557 56.403,53.744 68.152,66.564c11.745,12.824 27.607,12.809 27.706,21.333c0.1,8.528 3.196,39.53 -2.071,70.123l3.221,5.845Z" style="fill:#3c8f7c;fill-rule:nonzero;"/><path d="M1229.39,717.106l24.415,-70.328c0,0 14.344,-56.561 22.653,-103.734c8.314,-47.167 4.401,-192.293 4.401,-192.293c0,0 -25.077,42.933 -25.436,70.567c-0.358,27.633 2.639,50.11 -10.046,87.951c-12.691,37.838 12.491,61.76 5.232,82.655c-7.254,20.89 -7.816,45.629 -7.597,64.383c0.224,18.76 -28.722,80.843 -33.128,112.272c-2.414,17.221 -1.812,25.028 -0.781,28.578c-3.913,-27.492 20.287,-80.051 20.287,-80.051Z" style="fill:#327f6b;fill-rule:nonzero;"/><path d="M1349.65,675.211c-21.781,4.351 -41.252,2.868 -67.106,22.11c-25.854,19.247 -41.064,39.799 -41.064,39.799c0,-0 -11.619,20.765 -16.424,31.718c-0.692,1.673 -1.1,2.669 -1.1,2.669l3.813,-0.194c0,-0 11.695,-54.486 61.008,-59.928c49.308,-5.441 78.273,4.307 113.109,-35.497c34.835,-39.809 55.068,-102.982 66.195,-113.855c-0,-0 -37.051,28.826 -59.942,54.336c-22.897,25.51 -36.712,54.496 -58.489,58.842Z" style="fill:#327f6b;fill-rule:nonzero;"/><path d="M1160.9,513.116c-7.149,8.177 -56.223,41.16 -47.521,84.718c8.698,43.557 56.403,53.744 68.152,66.564c11.745,12.824 27.607,12.809 27.706,21.333c0.1,8.528 3.196,39.53 -2.071,70.123l1.409,2.554c2.574,-11.943 6.144,-30.12 7.314,-43.926c1.896,-22.423 -1.738,-31.704 -8.947,-49.865c-7.204,-18.167 -51.986,-55.158 -63.203,-74.609c-11.222,-19.452 21.632,-51.962 28.925,-67.66c7.294,-15.697 2.634,-54.177 2.634,-54.177c0,-0 -7.249,36.766 -14.398,44.945Z" style="fill:#327f6b;fill-rule:nonzero;"/><path d="M1246.14,732.53l6.582,-15.902c5.103,-11.695 18.167,-17.281 29.175,-12.471c27.745,12.107 39.808,45.818 26.944,75.291l-9.41,21.547c-4.117,9.439 -2.683,19.825 2.873,27.148c5.048,6.647 5.87,15.897 2.37,23.912l-4.959,11.362c-5.367,12.297 -15.812,21.403 -28.204,25.161c-7.244,2.196 -13.641,7.633 -17.026,15.389l-7.02,16.081c-7.762,17.784 -27.626,26.277 -44.364,18.968l-9.554,-4.172c-16.738,-7.303 -24.017,-27.646 -16.255,-45.424c12.556,-21.264 11.555,-37.136 7.104,-47.894c-6.537,-15.827 -6.462,-34.039 0.612,-50.244l0.991,-2.275c7.468,-17.107 21.891,-29.877 39.062,-35.348c7.582,-2.415 15.484,-8.31 21.079,-21.129Z" style="fill:#50bfa5;fill-rule:nonzero;"/><path d="M1127.67,957.094c13.462,-17.46 87.294,-110.978 135.432,-126.566c53.142,-17.201 3.057,51.125 3.057,51.125c0,0 94.265,-103.077 128.861,-93.786c31.709,8.518 0,72.408 0,72.408c0,0 35.712,-35.378 79.025,-35.378c42.149,0 -29.448,125.476 -33.312,132.197l-313.063,-0Z" style="fill:#96d9c9;fill-rule:nonzero;"/><path d="M1411.76,754.784c-38.514,60.151 -66.623,126.974 -82.699,197.958l-2.639,-0.707c16.006,-69.501 43.926,-136.204 82.376,-196.29c8.936,-13.965 18.585,-30.529 35.318,-35.981c0.324,-0.104 0.448,0.389 0.139,0.503c-15.284,5.76 -24.136,21.458 -32.495,34.517Z" style="fill:#3c8f7c;fill-rule:nonzero;"/><path d="M1338.35,955.232c43.04,-58.524 95.365,-112.621 157.582,-159.664c0.622,-0.468 1.459,0.618 0.832,1.096c-59.007,45.36 -111.212,98.919 -155.138,159.449l-3.276,-0.881Z" style="fill:#3c8f7c;fill-rule:nonzero;"/><path d="M1415.28,717.479c0.991,1.459 4.784,5.263 5.9,10.256c1.498,4.74 0.313,10.674 0.189,10.465c-0.289,0.12 4.391,-3.833 5.855,-10.126c1.887,-6.034 0.562,-14.403 -1.788,-17.171c-4.062,-6.268 -11.167,-6.906 -12.546,-3.864c-1.463,3.017 0.394,7.125 2.39,10.44Z" style="fill:#3c8f7c;fill-rule:nonzero;"/><path d="M1424.49,771.173c-1.433,-1.02 -5.162,-4.889 -10.136,-6.103c-4.71,-1.594 -10.664,-0.528 -10.46,-0.394c-0.125,0.284 3.923,-4.316 10.241,-5.655c6.069,-1.773 14.408,-0.284 17.136,2.125c6.184,4.187 6.682,11.297 3.615,12.616c-3.047,1.404 -7.115,-0.533 -10.396,-2.589Z" style="fill:#3c8f7c;fill-rule:nonzero;"/><path d="M1410.59,794.702c-1.434,-1.015 -5.163,-4.889 -10.136,-6.099c-4.71,-1.593 -10.664,-0.527 -10.46,-0.398c-0.125,0.284 3.923,-4.311 10.241,-5.651c6.069,-1.772 14.408,-0.283 17.136,2.126c6.188,4.187 6.681,11.297 3.614,12.616c-3.046,1.404 -7.114,-0.533 -10.395,-2.594Z" style="fill:#3c8f7c;fill-rule:nonzero;"/><path d="M1460.19,849.287c-1.439,-1.02 -5.168,-4.889 -10.142,-6.103c-4.709,-1.594 -10.664,-0.523 -10.459,-0.394c-0.12,0.284 3.923,-4.316 10.24,-5.65c6.069,-1.773 14.413,-0.284 17.137,2.12c6.188,4.187 6.681,11.302 3.614,12.621c-3.047,1.399 -7.114,-0.537 -10.39,-2.594Z" style="fill:#3c8f7c;fill-rule:nonzero;"/><path d="M1485.52,826.963c-1.434,-1.02 -5.163,-4.889 -10.137,-6.103c-4.709,-1.589 -10.664,-0.523 -10.46,-0.394c-0.124,0.284 3.924,-4.316 10.241,-5.65c6.069,-1.773 14.408,-0.284 17.137,2.121c6.188,4.187 6.681,11.301 3.614,12.62c-3.047,1.404 -7.114,-0.537 -10.395,-2.594Z" style="fill:#3c8f7c;fill-rule:nonzero;"/><path d="M1395.82,744.11c1.209,1.279 5.556,4.436 7.443,9.195c2.225,4.446 1.996,10.49 1.837,10.306c-0.264,0.159 3.729,-4.481 4.182,-10.923c0.916,-6.258 -1.708,-14.314 -4.471,-16.678c-5.003,-5.552 -12.113,-5.059 -12.994,-1.838c-0.971,3.212 1.508,6.975 4.003,9.938Z" style="fill:#3c8f7c;fill-rule:nonzero;"/><path d="M1375.38,770.795c1.717,0.911 7.731,2.569 10.753,7.065c3.426,4.002 3.859,10.853 3.63,10.713c-0.319,0.294 4.286,-6.606 4.087,-13.989c0.423,-7.379 -3.953,-15.24 -7.816,-16.694c-7.149,-4.042 -16.295,-0.438 -17.047,3.535c-0.861,4.003 2.808,7.135 6.393,9.37Z" style="fill:#3c8f7c;fill-rule:nonzero;"/><path d="M1353.85,811.216c1.852,0.608 8.056,1.23 11.794,5.158c4.043,3.37 5.626,10.047 5.377,9.947c-0.268,0.344 3.112,-7.234 1.673,-14.478c-0.816,-7.343 -6.457,-14.353 -10.51,-15.139c-7.726,-2.783 -16.135,2.31 -16.21,6.352c-0.179,4.088 3.968,6.562 7.876,8.16Z" style="fill:#3c8f7c;fill-rule:nonzero;"/><path d="M1417.54,839.37c1.35,0.841 6.144,2.529 8.349,6.363c2.554,3.45 2.52,9.046 2.34,8.916c-0.278,0.224 3.864,-5.128 4.123,-11.147c0.766,-5.974 -2.35,-12.615 -5.407,-14.019c-5.586,-3.7 -13.233,-1.285 -14.07,1.901c-0.931,3.207 1.877,5.965 4.665,7.986Z" style="fill:#3c8f7c;fill-rule:nonzero;"/><path d="M1450.69,726.944c-0.807,-0.668 -2.838,-3.117 -5.731,-4.053c-2.713,-1.15 -6.283,-0.777 -6.168,-0.692c-0.085,0.164 2.509,-2.38 6.303,-2.898c3.669,-0.781 8.538,0.463 10.047,2.007c3.475,2.748 3.455,6.98 1.588,7.622c-1.867,0.697 -4.187,-0.627 -6.039,-1.986Z" style="fill:#3c8f7c;fill-rule:nonzero;"/><path d="M1442.97,709.767c0.04,1.046 0.737,4.153 -0.284,7.015c-0.752,2.848 -3.221,5.452 -3.221,5.307c-0.179,-0.029 3.415,-0.532 6.144,-3.226c2.857,-2.429 4.844,-7.044 4.54,-9.18c-0.055,-4.431 -3.415,-7 -5.068,-5.91c-1.688,1.051 -2.056,3.699 -2.111,5.994Z" style="fill:#3c8f7c;fill-rule:nonzero;"/><path d="M1503.77,804.226c-0.806,-0.667 -2.842,-3.121 -5.73,-4.057c-2.718,-1.145 -6.288,-0.777 -6.173,-0.687c-0.085,0.159 2.509,-2.385 6.307,-2.898c3.67,-0.782 8.539,0.463 10.042,2.006c3.48,2.749 3.46,6.975 1.588,7.623c-1.862,0.697 -4.187,-0.628 -6.034,-1.987Z" style="fill:#3c8f7c;fill-rule:nonzero;"/><path d="M1494.46,786.901c0.12,1.035 1.071,4.077 0.289,7.015c-0.518,2.902 -2.768,5.695 -2.778,5.551c-0.179,-0.015 3.366,-0.812 5.86,-3.719c2.649,-2.654 4.252,-7.413 3.774,-9.519c-0.413,-4.411 -3.973,-6.697 -5.531,-5.477c-1.599,1.185 -1.753,3.854 -1.614,6.149Z" style="fill:#3c8f7c;fill-rule:nonzero;"/><path d="M1487.98,898.854c-39.33,4.307 -75.958,21.667 -111.216,38.599c-23.778,11.416 -22.578,14.667 -27.422,16.365c-0.787,0.279 -1.569,-0.578 -1.19,-1.334c1.867,-3.69 6.751,-6.184 10.151,-8.31c3.953,-2.469 8.085,-4.65 12.282,-6.691c8.977,-4.356 18.182,-8.274 27.333,-12.252c18.61,-8.085 37.523,-15.693 57.184,-20.841c10.783,-2.822 21.751,-4.859 32.848,-5.859c0.21,-0.015 0.234,0.298 0.03,0.323Z" style="fill:#3c8f7c;fill-rule:nonzero;"/><path d="M1452.53,886.662c0.254,1.613 1.936,6.298 0.901,10.923c-0.617,4.565 -3.948,9.071 -3.973,8.847c-0.284,-0.015 5.198,-1.484 8.902,-6.179c3.968,-4.311 6.158,-11.849 5.277,-15.1c-0.931,-6.855 -6.631,-10.191 -8.986,-8.19c-2.42,1.957 -2.485,6.129 -2.121,9.699Z" style="fill:#3c8f7c;fill-rule:nonzero;"/><path d="M1417.88,899.063c0.254,1.613 1.936,6.298 0.901,10.928c-0.617,4.561 -3.948,9.071 -3.973,8.847c-0.284,-0.015 5.193,-1.483 8.902,-6.183c3.968,-4.307 6.158,-11.844 5.277,-15.095c-0.931,-6.861 -6.631,-10.191 -8.986,-8.19c-2.42,1.952 -2.485,6.129 -2.121,9.693Z" style="fill:#3c8f7c;fill-rule:nonzero;"/><path d="M1382.68,914.756c0.254,1.613 1.937,6.298 0.901,10.928c-0.617,4.56 -3.948,9.066 -3.973,8.842c-0.283,-0.01 5.193,-1.484 8.902,-6.179c3.963,-4.311 6.159,-11.844 5.277,-15.1c-0.931,-6.855 -6.631,-10.191 -8.986,-8.184c-2.42,1.951 -2.484,6.128 -2.121,9.693Z" style="fill:#3c8f7c;fill-rule:nonzero;"/><path d="M1462.88,919.027c-0.712,-1.329 -2.091,-5.72 -5.436,-8.553c-3.002,-3.017 -7.971,-4.481 -7.862,-4.301c-0.204,0.169 4.655,-1.807 10.007,-0.413c5.328,0.965 11.147,5.292 12.317,8.179c3.137,5.576 0.797,11.212 -2.056,11.053c-2.872,-0.09 -5.247,-3.132 -6.97,-5.965Z" style="fill:#3c8f7c;fill-rule:nonzero;"/><path d="M1426.84,931.788c-0.712,-1.335 -2.086,-5.726 -5.436,-8.554c-2.997,-3.022 -7.971,-4.485 -7.861,-4.306c-0.205,0.174 4.654,-1.802 10.006,-0.413c5.328,0.965 11.153,5.292 12.317,8.179c3.142,5.576 0.802,11.212 -2.051,11.053c-2.872,-0.09 -5.252,-3.132 -6.975,-5.959Z" style="fill:#3c8f7c;fill-rule:nonzero;"/><path d="M1490.32,905.899c-0.622,-0.742 -2.066,-3.316 -4.54,-4.655c-2.285,-1.499 -5.596,-1.758 -5.506,-1.663c-0.105,0.134 2.683,-1.747 6.228,-1.578c3.475,-0.1 7.702,1.847 8.817,3.51c2.708,3.082 1.981,6.935 0.169,7.209c-1.817,0.323 -3.709,-1.275 -5.168,-2.823Z" style="fill:#3c8f7c;fill-rule:nonzero;"/><path d="M1486.16,888.957c-0.144,0.956 -0.025,3.908 -1.439,6.342c-1.16,2.47 -3.848,4.426 -3.818,4.297c-0.16,-0.06 3.201,0.085 6.133,-1.912c3.012,-1.732 5.596,-5.606 5.676,-7.602c0.697,-4.048 -1.937,-6.945 -3.624,-6.233c-1.718,0.672 -2.5,3.027 -2.928,5.108Z" style="fill:#3c8f7c;fill-rule:nonzero;"/><path d="M280.127,608.657c-32.901,-52.872 -39.041,-116.713 -38.397,-160.959c0.699,-48.035 9.318,-84 9.405,-84.359l-2.38,-0.862c-0.088,0.361 -8.776,36.589 -9.486,84.943c-0.657,44.682 5.551,109.181 38.86,162.706l1.998,-1.469Z" style="fill:#3c8f7c;fill-rule:nonzero;"/><path d="M259.236,354.553c-0.809,10.87 -5.488,19.987 -12.224,25.582c-5.757,-7.568 -8.987,-17.934 -8.178,-28.804c0.808,-10.869 5.488,-19.986 12.224,-25.582c5.756,7.569 8.986,17.934 8.178,28.804Z" style="fill:#3c8f7c;fill-rule:nonzero;"/><path d="M237,379.645c5.581,9.406 7.311,20.115 5.523,29.411c-8.546,-2.095 -16.818,-8.246 -22.4,-17.653c-5.58,-9.406 -7.311,-20.115 -5.524,-29.412c8.547,2.096 16.82,8.247 22.401,17.654Z" style="fill:#3c8f7c;fill-rule:nonzero;"/><path d="M224.402,409.171c8.666,5.803 14.541,14.754 16.8,24.193c-8.236,2.412 -17.895,0.963 -26.562,-4.84c-8.667,-5.802 -14.541,-14.753 -16.801,-24.192c8.238,-2.412 17.897,-0.963 26.563,4.839Z" style="fill:#3c8f7c;fill-rule:nonzero;"/><path d="M228.287,450.29c6.861,4.609 11.114,12.488 12.274,21.2c-7.15,3.13 -15.194,2.749 -22.056,-1.86c-6.861,-4.608 -11.115,-12.488 -12.275,-21.2c7.151,-3.13 15.196,-2.749 22.057,1.86Z" style="fill:#3c8f7c;fill-rule:nonzero;"/><path d="M256.641,401.571c7.713,-4.241 16.347,-4.478 23.737,-1.415c-1.952,8.2 -7.143,15.566 -14.857,19.808c-7.713,4.242 -16.347,4.478 -23.737,1.415c1.952,-8.2 7.144,-15.566 14.857,-19.808Z" style="fill:#3c8f7c;fill-rule:nonzero;"/><path d="M255.787,429.97c7.713,-4.242 16.347,-4.478 23.737,-1.416c-1.952,8.2 -7.144,15.566 -14.857,19.808c-7.713,4.241 -16.347,4.478 -23.737,1.415c1.952,-8.2 7.143,-15.565 14.857,-19.807Z" style="fill:#3c8f7c;fill-rule:nonzero;"/><path d="M257.99,867.295c-72.889,-26.451 -123.871,-89.535 -153.805,-137.797c-32.497,-52.395 -47.902,-99.134 -48.054,-99.602l-3.221,1.279c0.153,0.468 15.664,47.556 48.369,100.304c30.22,48.745 81.734,112.471 155.525,139.251l1.186,-3.435Z" style="fill:#96d9c9;fill-rule:nonzero;"/><path d="M58.978,612.919c6.636,12.461 7.791,26.62 4.239,38.893c-11.588,-2.813 -22.328,-10.983 -28.964,-23.444c-6.637,-12.462 -7.792,-26.621 -4.24,-38.893c11.588,2.813 22.328,10.988 28.965,23.444Z" style="fill:#96d9c9;fill-rule:nonzero;"/><path d="M51.839,660.569c12.667,4.959 21.992,14.891 26.459,26.566c-10.874,5.665 -24.254,6.711 -36.922,1.752c-12.667,-4.958 -21.992,-14.891 -26.459,-26.566c10.875,-5.665 24.255,-6.711 36.922,-1.752Z" style="fill:#96d9c9;fill-rule:nonzero;"/><path d="M58.399,704.062c13.574,-1.787 26.25,2.41 35.278,10.485c-7.411,10.236 -19.063,17.629 -32.637,19.416c-13.573,1.783 -26.249,-2.414 -35.277,-10.485c7.41,-10.236 19.063,-17.634 32.636,-19.416Z" style="fill:#96d9c9;fill-rule:nonzero;"/><path d="M84.096,745.728c13.574,-1.788 26.249,2.409 35.277,10.485c-7.41,10.236 -19.063,17.629 -32.636,19.416c-13.574,1.783 -26.25,-2.409 -35.278,-10.485c7.411,-10.236 19.063,-17.629 32.637,-19.416Z" style="fill:#96d9c9;fill-rule:nonzero;"/><path d="M82.041,680.832c0.738,-13.159 6.245,-25.032 14.345,-33.138c7.206,7.832 11.389,19.536 10.651,32.695c-0.738,13.153 -6.244,25.032 -14.344,33.137c-7.206,-7.831 -11.389,-19.536 -10.652,-32.694Z" style="fill:#96d9c9;fill-rule:nonzero;"/><path d="M108.875,723.956c0.544,-13.158 5.877,-25.136 13.859,-33.386c7.324,7.692 11.682,19.307 11.138,32.47c-0.545,13.164 -5.877,25.137 -13.86,33.392c-7.324,-7.692 -11.681,-19.312 -11.137,-32.476Z" style="fill:#96d9c9;fill-rule:nonzero;"/><path d="M127.919,788.817c5.176,-2.728 10.869,-2.812 15.67,-0.736c-1.468,5.372 -5.051,10.171 -10.228,12.894c-5.176,2.728 -10.869,2.813 -15.669,0.737c1.468,-5.372 5.051,-10.171 10.227,-12.895Z" style="fill:#96d9c9;fill-rule:nonzero;"/><path d="M415.509,803.161c-0,-0 56.662,-119.178 37.724,-145.768c-26.181,-36.747 -58.733,76.018 -60.321,66.105c-14.993,-93.602 -11.856,-211.656 -81.978,-229.547c-39.861,-10.17 2.636,88.17 -2.315,113.506c-4.95,25.336 -71.26,-65.119 -112.1,-112.981c-40.839,-47.86 -65.846,-21.454 -42.172,36.61c22.891,56.143 105.819,121.931 87.255,127.561c-18.563,5.626 -122.654,-72.583 -138.342,-43.757c-19.235,35.338 141.114,97.725 125.026,104.76c-16.088,7.04 -92.475,-26.048 -92.475,2.106c0,28.154 105.553,35.189 102.808,47.361c-4.445,19.71 -70.75,-30.753 -75.928,-3.405c-5.297,27.97 90.009,30.095 86.679,51.971c-1.913,12.571 -25.917,-0.587 -30.259,16.698c-9.9,39.416 140.281,94.643 140.281,94.643l56.117,-125.863Z" style="fill:#3c8f7c;fill-rule:nonzero;"/><path d="M535.21,824.803c22.802,10.644 16.653,37.075 16.653,37.075c0,0 61.819,-48.103 84.93,-20.024c23.106,28.075 10.963,83.113 -16.14,92.064c-27.109,8.947 -262.868,2.674 -262.868,2.674c-0,-0 156.918,-121.363 177.425,-111.789Z" style="fill:#96d9c9;fill-rule:nonzero;"/><path d="M415.51,726.64l2.817,-1.648c-43.549,-77.278 -52.251,-165.991 -51.882,-226.809c0.401,-65.997 11.272,-114.304 11.382,-114.784l-3.262,-1.203c-0.111,0.484 -11.061,49.114 -11.473,115.504c-0.382,61.331 8.404,150.836 52.418,228.94Z" style="fill:#50bfa5;fill-rule:nonzero;"/><path d="M388.236,372.573c-0.939,14.841 -6.95,26.742 -15.684,33.519c-7.596,-11.195 -11.923,-25.894 -10.983,-40.735c0.939,-14.841 6.95,-26.742 15.684,-33.52c7.596,11.196 11.923,25.895 10.983,40.736Z" style="fill:#50bfa5;fill-rule:nonzero;"/><path d="M359.476,404.052c7.386,13.7 9.759,28.666 7.524,41.21c-11.179,-4.05 -22.043,-13.639 -29.429,-27.339c-7.386,-13.7 -9.759,-28.667 -7.524,-41.21c11.179,4.049 22.044,13.639 29.429,27.339Z" style="fill:#50bfa5;fill-rule:nonzero;"/><path d="M343.346,442.947c11.375,9.164 19.139,22.278 22.189,35.57c-10.727,2.193 -23.35,-1.118 -34.726,-10.281c-11.375,-9.164 -19.14,-22.278 -22.19,-35.57c10.727,-2.193 23.351,1.117 34.727,10.281Z" style="fill:#50bfa5;fill-rule:nonzero;"/><path d="M354.043,513.591c4.997,3.481 8.609,8.752 10.265,14.259c-4.395,1.294 -9.741,0.328 -14.738,-3.152c-4.997,-3.48 -8.609,-8.753 -10.265,-14.261c4.395,-1.293 9.741,-0.326 14.738,3.154Z" style="fill:#50bfa5;fill-rule:nonzero;"/><path d="M356.466,539.654c4.998,3.48 8.609,8.752 10.266,14.259c-4.395,1.294 -9.741,0.328 -14.738,-3.157c-4.998,-3.48 -8.608,-8.752 -10.265,-14.258c4.395,-1.29 9.74,-0.324 14.737,3.156Z" style="fill:#50bfa5;fill-rule:nonzero;"/><path d="M385.35,436.892c10.024,-4.782 21.292,-3.929 30.971,1.291c-2.461,11.013 -9.159,20.438 -19.183,25.22c-10.024,4.781 -21.292,3.929 -30.971,-1.292c2.461,-11.013 9.159,-20.437 19.183,-25.219Z" style="fill:#50bfa5;fill-rule:nonzero;"/><path d="M384.538,475.837c10.023,-4.782 21.291,-3.929 30.971,1.291c-2.461,11.014 -9.159,20.438 -19.183,25.219c-10.024,4.782 -21.292,3.93 -30.971,-1.291c2.46,-11.013 9.158,-20.437 19.183,-25.219Z" style="fill:#50bfa5;fill-rule:nonzero;"/><path d="M378.709,531.246c6.525,-3.112 13.858,-2.555 20.158,0.841c-1.601,7.169 -5.96,13.302 -12.485,16.414c-6.524,3.112 -13.859,2.559 -20.158,-0.841c1.601,-7.165 5.961,-13.298 12.485,-16.414Z" style="fill:#50bfa5;fill-rule:nonzero;"/><path d="M357.785,936.358c-0,-0 103.03,-21.144 125.503,-41.736c22.474,-20.591 12.526,-28.617 12.526,-28.617c0,0 39.595,-31.195 38.978,-51.558c-0.618,-20.367 -26.417,-10.037 -26.417,-10.037c0,0 43.722,-56.098 33.352,-66.767c-19.317,-19.875 -69.865,38.439 -69.865,38.439c0,0 15.001,-27.74 -0.821,-32.147c-23.867,-6.641 -41.422,61.775 -41.422,61.775c0,-0 4.452,-27.019 -11.998,-23.434c-29.514,6.437 -59.836,154.082 -59.836,154.082Z" style="fill:#50bfa5;fill-rule:nonzero;"/><path d="M406.143,929.926c-0,-0 -67.523,-84.831 -97.793,-99.025c-32.254,-15.124 -4.285,37.29 -4.285,37.29c-0,0 -68.966,-67.52 -85.164,-50.662c-16.198,16.862 1.097,32.64 1.097,32.64c0,-0 -57.748,-10.694 -66.169,10.863c-12.938,33.127 82.044,49.607 82.044,49.607c-0,-0 -39.873,3.724 -30.768,24.235c13.731,30.932 201.038,-4.948 201.038,-4.948Z" style="fill:#50bfa5;fill-rule:nonzero;"/><path d="M153.829,861.032c8.421,-21.557 66.169,-10.863 66.169,-10.863c0,-0 -17.295,-15.778 -1.098,-32.64c16.199,-16.858 70.183,22.956 70.183,22.956c0,0 -8.364,-36.592 32.188,-7.811c28.965,20.561 84.872,97.252 84.872,97.252l-252.314,-68.894Z" style="fill:#96d9c9;fill-rule:nonzero;"/><path d="M423.306,422.815l-62.405,514.842l8.907,9.639l53.451,-213.502l0.047,-310.979Z" style="fill:#b75742;fill-rule:nonzero;"/><path d="M430.897,371.083l-61.089,576.213l134.848,-0l-33.496,-588.079l-40.263,11.866Z" style="fill:#355389;fill-rule:nonzero;"/><path d="M411.531,940.794l752.813,-0c12.875,-0 24.022,-11.033 24.903,-24.639l34.298,-531.238c0.741,-11.503 -7.478,-20.828 -18.361,-20.828l-756.417,0c-10.883,0 -20.307,9.325 -21.05,20.828l-34.545,535.046c-0.742,11.506 7.478,20.831 18.359,20.831Z" style="fill:#edd7be;fill-rule:nonzero;"/><path d="M471.265,361.082l-0.105,-1.865l-43.747,3.894l-57.605,584.185l6.433,-0l61.088,-576.213l33.936,-10.001Z" style="fill:#184655;fill-rule:nonzero;"/><path d="M430.787,432.799l-32.61,492.651c0.99,12.043 11.565,15.344 17.679,15.344l97.742,-0l-58.329,-552.413l-24.482,44.418Z" style="fill:#fef8f8;fill-rule:nonzero;"/><path d="M508.784,555.805l-50.802,-0c-7.289,-0 -12.645,-6.149 -11.968,-13.736l4.714,-52.883c0.677,-7.586 7.13,-13.736 14.418,-13.736l50.802,0c7.289,0 12.645,6.15 11.968,13.736l-4.714,52.883c-0.672,7.587 -7.13,13.736 -14.418,13.736Z" style="fill:#9bc1f9;fill-rule:nonzero;"/><path d="M618.288,555.805l-50.802,-0c-7.288,-0 -12.645,-6.149 -11.968,-13.736l4.714,-52.883c0.677,-7.586 7.13,-13.736 14.418,-13.736l50.802,0c7.289,0 12.646,6.15 11.968,13.736l-4.714,52.883c-0.672,7.587 -7.13,13.736 -14.418,13.736Z" style="fill:#9bc1f9;fill-rule:nonzero;"/><path d="M727.792,555.805l-50.802,-0c-7.288,-0 -12.645,-6.149 -11.968,-13.736l4.714,-52.883c0.673,-7.586 7.13,-13.736 14.418,-13.736l50.802,0c7.289,0 12.646,6.15 11.968,13.736l-4.714,52.883c-0.677,7.587 -7.13,13.736 -14.418,13.736Z" style="fill:#9bc1f9;fill-rule:nonzero;"/><path d="M837.296,555.805l-50.802,-0c-7.288,-0 -12.645,-6.149 -11.968,-13.736l4.714,-52.883c0.673,-7.586 7.13,-13.736 14.418,-13.736l50.802,0c7.284,0 12.646,6.15 11.969,13.736l-4.715,52.883c-0.677,7.587 -7.13,13.736 -14.418,13.736Z" style="fill:#9bc1f9;fill-rule:nonzero;"/><path d="M946.8,555.805l-50.802,-0c-7.288,-0 -12.645,-6.149 -11.968,-13.736l4.71,-52.883c0.677,-7.586 7.134,-13.736 14.423,-13.736l50.801,0c7.284,0 12.646,6.15 11.969,13.736l-4.715,52.883c-0.677,7.587 -7.13,13.736 -14.418,13.736Z" style="fill:#9bc1f9;fill-rule:nonzero;"/><path d="M1056.3,555.805l-50.802,-0c-7.288,-0 -12.645,-6.149 -11.973,-13.736l4.715,-52.883c0.677,-7.586 7.134,-13.736 14.423,-13.736l50.801,0c7.284,0 12.646,6.15 11.969,13.736l-4.715,52.883c-0.677,7.587 -7.13,13.736 -14.418,13.736Z" style="fill:#f47458;fill-rule:nonzero;"/><path d="M1165.81,555.805l-50.802,-0c-7.288,-0 -12.645,-6.149 -11.973,-13.736l4.715,-52.883c0.677,-7.586 7.134,-13.736 14.423,-13.736l50.801,0c7.284,0 12.646,6.15 11.969,13.736l-4.715,52.883c-0.677,7.587 -7.134,13.736 -14.418,13.736Z" style="fill:#f47458;fill-rule:nonzero;"/><path d="M498,676.784l-50.801,0c-7.289,0 -12.648,-6.148 -11.971,-13.736l4.714,-52.882c0.676,-7.588 7.132,-13.736 14.42,-13.736l50.802,-0c7.284,-0 12.646,6.148 11.969,13.736l-4.715,52.882c-0.677,7.588 -7.129,13.736 -14.418,13.736Z" style="fill:#9bc1f9;fill-rule:nonzero;"/><path d="M607.504,676.784l-50.801,0c-7.289,0 -12.646,-6.148 -11.974,-13.736l4.715,-52.882c0.677,-7.588 7.134,-13.736 14.423,-13.736l50.801,-0c7.284,-0 12.646,6.148 11.969,13.736l-4.715,52.882c-0.677,7.588 -7.134,13.736 -14.418,13.736Z" style="fill:#9bc1f9;fill-rule:nonzero;"/><path d="M717.008,676.784l-50.801,0c-7.289,0 -12.646,-6.148 -11.974,-13.736l4.715,-52.882c0.677,-7.588 7.134,-13.736 14.423,-13.736l50.796,-0c7.289,-0 12.651,6.148 11.974,13.736l-4.715,52.882c-0.677,7.588 -7.134,13.736 -14.418,13.736Z" style="fill:#9bc1f9;fill-rule:nonzero;"/><path d="M826.512,676.784l-50.801,0c-7.289,0 -12.651,-6.148 -11.974,-13.736l4.715,-52.882c0.677,-7.588 7.134,-13.736 14.418,-13.736l50.801,-0c7.289,-0 12.651,6.148 11.974,13.736l-4.715,52.882c-0.677,7.588 -7.134,13.736 -14.418,13.736Z" style="fill:#9bc1f9;fill-rule:nonzero;"/><path d="M936.016,676.784l-50.801,0c-7.289,0 -12.651,-6.148 -11.974,-13.736l4.715,-52.882c0.677,-7.588 7.134,-13.736 14.418,-13.736l50.801,-0c7.289,-0 12.651,6.148 11.974,13.736l-4.715,52.882c-0.677,7.588 -7.134,13.736 -14.418,13.736Z" style="fill:#9bc1f9;fill-rule:nonzero;"/><path d="M1045.52,676.784l-50.796,0c-7.289,0 -12.651,-6.148 -11.974,-13.736l4.715,-52.882c0.677,-7.588 7.134,-13.736 14.418,-13.736l50.801,-0c7.289,-0 12.651,6.148 11.974,13.736l-4.715,52.882c-0.677,7.588 -7.134,13.736 -14.423,13.736Z" style="fill:#f47458;fill-rule:nonzero;"/><path d="M1155.02,676.784l-50.801,0c-7.284,0 -12.646,-6.148 -11.969,-13.736l4.715,-52.882c0.677,-7.588 7.134,-13.736 14.418,-13.736l50.801,-0c7.289,-0 12.646,6.148 11.974,13.736l-4.715,52.882c-0.677,7.588 -7.134,13.736 -14.423,13.736Z" style="fill:#f47458;fill-rule:nonzero;"/><path d="M487.211,797.764l-50.798,-0c-7.288,-0 -12.647,-6.149 -11.971,-13.736l4.714,-52.878c0.677,-7.587 7.132,-13.735 14.418,-13.735l50.802,-0c7.288,-0 12.65,6.148 11.973,13.735l-4.715,52.878c-0.677,7.587 -7.134,13.736 -14.423,13.736Z" style="fill:#9bc1f9;fill-rule:nonzero;"/><path d="M596.715,797.764l-50.801,-0c-7.284,-0 -12.646,-6.149 -11.969,-13.736l4.715,-52.878c0.677,-7.587 7.134,-13.735 14.418,-13.735l50.802,-0c7.288,-0 12.645,6.148 11.973,13.735l-4.715,52.878c-0.677,7.587 -7.134,13.736 -14.423,13.736Z" style="fill:#9bc1f9;fill-rule:nonzero;"/><path d="M706.219,797.764l-50.801,-0c-7.284,-0 -12.646,-6.149 -11.969,-13.736l4.715,-52.878c0.677,-7.587 7.13,-13.735 14.418,-13.735l50.802,-0c7.288,-0 12.645,6.148 11.973,13.735l-4.714,52.878c-0.678,7.587 -7.135,13.736 -14.424,13.736Z" style="fill:#9bc1f9;fill-rule:nonzero;"/><path d="M815.724,797.764l-50.802,-0c-7.284,-0 -12.646,-6.149 -11.968,-13.736l4.714,-52.878c0.677,-7.587 7.13,-13.735 14.418,-13.735l50.802,-0c7.288,-0 12.645,6.148 11.968,13.735l-4.709,52.878c-0.678,7.587 -7.135,13.736 -14.423,13.736Z" style="fill:#9bc1f9;fill-rule:nonzero;"/><path d="M925.228,797.764l-50.802,-0c-7.289,-0 -12.645,-6.149 -11.968,-13.736l4.714,-52.878c0.677,-7.587 7.13,-13.735 14.418,-13.735l50.802,-0c7.288,-0 12.645,6.148 11.968,13.735l-4.709,52.878c-0.678,7.587 -7.135,13.736 -14.423,13.736Z" style="fill:#9bc1f9;fill-rule:nonzero;"/><path d="M1034.73,797.764l-50.802,-0c-7.289,-0 -12.645,-6.149 -11.968,-13.736l4.714,-52.878c0.677,-7.587 7.129,-13.735 14.418,-13.735l50.802,-0c7.288,-0 12.645,6.148 11.968,13.735l-4.714,52.878c-0.672,7.587 -7.13,13.736 -14.418,13.736Z" style="fill:#f47458;fill-rule:nonzero;"/><path d="M1144.24,797.764l-50.802,-0c-7.288,-0 -12.645,-6.149 -11.968,-13.736l4.714,-52.878c0.677,-7.587 7.13,-13.735 14.418,-13.735l50.802,-0c7.288,-0 12.645,6.148 11.968,13.735l-4.714,52.878c-0.672,7.587 -7.13,13.736 -14.418,13.736Z" style="fill:#f47458;fill-rule:nonzero;"/><path d="M476.428,918.749l-50.801,-0c-7.287,-0 -12.646,-6.154 -11.97,-13.736l4.714,-52.883c0.677,-7.587 7.132,-13.736 14.419,-13.736l50.802,0c7.289,0 12.646,6.149 11.968,13.736l-4.714,52.883c-0.672,7.582 -7.13,13.736 -14.418,13.736Z" style="fill:#9bc1f9;fill-rule:nonzero;"/><path d="M585.932,918.749l-50.802,-0c-7.288,-0 -12.645,-6.154 -11.968,-13.736l4.715,-52.883c0.672,-7.587 7.129,-13.736 14.418,-13.736l50.801,0c7.289,0 12.646,6.149 11.969,13.736l-4.715,52.883c-0.672,7.582 -7.129,13.736 -14.418,13.736Z" style="fill:#9bc1f9;fill-rule:nonzero;"/><path d="M695.436,918.749l-50.802,-0c-7.288,-0 -12.645,-6.154 -11.968,-13.736l4.715,-52.883c0.672,-7.587 7.129,-13.736 14.418,-13.736l50.801,0c7.289,0 12.646,6.149 11.969,13.736l-4.715,52.883c-0.677,7.582 -7.129,13.736 -14.418,13.736Z" style="fill:#9bc1f9;fill-rule:nonzero;"/><path d="M804.94,918.749l-50.802,-0c-7.288,-0 -12.645,-6.154 -11.968,-13.736l4.715,-52.883c0.672,-7.587 7.129,-13.736 14.418,-13.736l50.801,0c7.289,0 12.646,6.149 11.969,13.736l-4.715,52.883c-0.677,7.582 -7.129,13.736 -14.418,13.736Z" style="fill:#9bc1f9;fill-rule:nonzero;"/><path d="M914.444,918.749l-50.802,-0c-7.288,-0 -12.645,-6.154 -11.968,-13.736l4.715,-52.883c0.672,-7.587 7.129,-13.736 14.418,-13.736l50.801,0c7.284,0 12.646,6.149 11.969,13.736l-4.715,52.883c-0.677,7.582 -7.129,13.736 -14.418,13.736Z" style="fill:#9bc1f9;fill-rule:nonzero;"/><path d="M1218.37,957.094l-752.812,-0c-12.875,-0 -23.554,-10.62 -23.853,-23.718l-11.753,-511.342c-0.255,-11.072 8.361,-20.047 19.246,-20.047l756.417,-0c10.883,-0 19.909,8.975 20.163,20.047l11.834,515.011c0.254,11.072 -8.359,20.049 -19.242,20.049Z" style="fill:#e0c8a9;fill-rule:nonzero;"/><path d="M1223.76,957.447l-752.813,0c-12.874,0 -23.553,-10.614 -23.852,-23.713l-11.752,-511.343c-0.254,-11.072 8.362,-20.047 19.245,-20.047l756.417,-0c10.883,-0 19.909,8.975 20.163,20.047l11.839,515.007c0.254,11.073 -8.364,20.049 -19.247,20.049Z" style="fill:#fef8f8;fill-rule:nonzero;"/><path d="M257.337,200.214c-0.564,-8.124 5.564,-15.167 13.688,-15.73c8.123,-0.564 15.166,5.564 15.73,13.688c0.564,8.123 -5.564,15.166 -13.689,15.73c-8.123,0.564 -15.166,-5.565 -15.729,-13.688Z" style="fill:#f7cc7f;fill-rule:nonzero;"/><path d="M282.341,241.85c-0.881,-4.277 -1.413,-8.856 -2.873,-12.978c-1.254,-3.546 -6.787,-2.463 -6.507,1.344c0.344,4.663 1.801,9.391 2.777,13.957c0.396,1.85 2.843,2.709 4.463,2.14c1.98,-0.695 2.522,-2.604 2.14,-4.463Z" style="fill:#f7cc7f;fill-rule:nonzero;"/><path d="M307.609,223.584c-4.887,-2.882 -9.146,-6.452 -13.655,-9.859c-3.523,-2.662 -7.321,1.92 -4.423,5.083c4.161,4.543 9.624,8.094 14.898,11.203c1.668,0.984 3.988,0.022 4.803,-1.623c0.914,-1.845 0.05,-3.818 -1.623,-4.804Z" style="fill:#f7cc7f;fill-rule:nonzero;"/><path d="M298.355,197.189c-1.107,0.888 -1.328,2.163 -0.645,3.401c1.653,2.998 5.848,2.85 8.827,2.748c3.109,-0.106 6.219,-0.737 9.158,-1.741c4.345,-1.483 1.99,-8.226 -2.371,-6.738c-8.529,2.912 -11.758,-0.248 -14.969,2.33Z" style="fill:#f7cc7f;fill-rule:nonzero;"/><path d="M293.659,168.519c-4.291,6.278 -7.798,8.398 -7.252,11.854c0.319,2.021 1.917,2.985 3.867,2.543c2.306,-0.523 3.561,-2.967 4.943,-4.683c1.325,-1.645 2.625,-3.293 3.808,-5.046c1.074,-1.589 1.225,-3.648 -0.349,-5.017c-1.318,-1.147 -3.927,-1.246 -5.017,0.349Z" style="fill:#f7cc7f;fill-rule:nonzero;"/><path d="M276.94,167.431c-1.372,-3.806 -1.674,-5.19 -3.453,-6.958c-1.547,-1.537 -4.812,-0.557 -5.029,1.707c-0.252,2.642 0.302,3.623 1.744,7.622c0.653,1.813 2.725,2.826 4.554,2.183c1.814,-0.636 2.84,-2.733 2.184,-4.554Z" style="fill:#f7cc7f;fill-rule:nonzero;"/><path d="M258.881,176.639c-6.186,-4.7 -7.445,-6.024 -9.875,-5.767c-1.424,0.15 -3.024,1.518 -2.713,3.118c0.578,2.971 2.307,3.778 7.995,7.928c1.526,1.112 3.621,1.169 4.936,-0.342c1.178,-1.356 1.168,-3.789 -0.343,-4.937Z" style="fill:#f7cc7f;fill-rule:nonzero;"/><path d="M234.031,198.183c-2.437,1.293 -1.458,5.508 1.182,5.853c2.531,0.331 3.509,-0.076 15.79,-2.318c1.897,-0.346 3.459,-1.732 3.315,-3.809c-0.122,-1.763 -1.9,-3.659 -3.81,-3.315c-12.754,2.301 -14.031,2.291 -16.477,3.589Z" style="fill:#f7cc7f;fill-rule:nonzero;"/><path d="M253.273,218.274c-6.731,6.514 -7.717,5.364 -10.375,9.348c-1.216,1.821 0.789,4.725 2.906,4.336c2.715,-0.498 3.445,-0.956 6.986,-3.761c2.057,-1.63 4.023,-3.377 5.914,-5.198c1.401,-1.349 1.022,-3.881 -0.353,-5.078c-1.572,-1.368 -3.677,-1.003 -5.078,0.353Z" style="fill:#f7cc7f;fill-rule:nonzero;"/><path d="M410.732,205.758l8.503,-9.994l14.998,-1.06l8.559,-11.482l15.125,2.401l10.396,-12.827l14.801,0.871l12.501,-11.694l-5.163,-2.264l-9.349,8.744l-15.618,-0.921l-9.992,12.331l-15.38,-2.441l-9.444,12.669l-14.646,1.037l-7.881,9.263l-9.272,-0.762l-2.577,4.943l14.439,1.186Z" style="fill:#50bfa5;fill-rule:nonzero;"/><path d="M1011.12,177.864l-8.035,8.962l2.828,11.701c0.229,0.945 -0.727,1.742 -1.618,1.348l-11.003,-4.874l-10.256,6.304c-0.832,0.51 -1.882,-0.152 -1.782,-1.119l1.234,-11.975l-9.165,-7.805c-0.742,-0.631 -0.438,-1.836 0.513,-2.04l11.769,-2.527l4.595,-11.128c0.369,-0.898 1.608,-0.982 2.096,-0.141l6.039,10.413l12.004,0.927c0.97,0.076 1.433,1.23 0.781,1.954Z" style="fill:#fed333;fill-rule:nonzero;"/><path d="M629.275,189.611l-11.376,-17.587l-10.938,8.651l-4.147,-5.242l16.703,-13.209l11.312,17.481l12.695,-10.393l10.614,15.777l14.513,-8.886l3.49,5.699l-19.974,12.231l-10.092,-15l-12.8,10.478Z" style="fill:#f47458;fill-rule:nonzero;"/><path d="M817.376,159.709l5.91,-9.643l-9.4,-3.812l-5.909,9.643l9.399,3.812Zm-23.952,8.603l6.612,-10.738l-5.312,-2.153c-1.16,-0.471 -1.723,-1.795 -1.25,-2.956c0.473,-1.162 1.798,-1.722 2.958,-1.251l6.123,2.483l5.91,-9.643l-5.671,-2.299c-1.16,-0.472 -1.722,-1.795 -1.249,-2.957c0.468,-1.161 1.792,-1.722 2.957,-1.251l6.482,2.63l6.865,-11.042c0.583,-0.939 1.758,-1.321 2.778,-0.906l0.991,0.401c1.3,0.528 1.817,2.094 1.081,3.29l-6.383,10.42l9.4,3.812l6.865,-11.043c0.583,-0.938 1.758,-1.32 2.783,-0.905l1.08,0.438c1.3,0.528 1.813,2.094 1.081,3.29l-6.383,10.42l5.307,2.153c1.165,0.471 1.723,1.795 1.25,2.957c-0.468,1.161 -1.792,1.721 -2.952,1.25l-6.124,-2.483l-5.82,9.68l5.671,2.299c1.16,0.471 1.722,1.795 1.249,2.957c-0.473,1.162 -1.797,1.721 -2.957,1.25l-6.482,-2.63l-7.015,11.388c-0.577,0.944 -1.757,1.33 -2.783,0.914l-1.16,-0.469c-1.299,-0.528 -1.812,-2.099 -1.08,-3.294l6.611,-10.738l-9.399,-3.812l-7.01,11.387c-0.583,0.944 -1.763,1.33 -2.788,0.914l-1.155,-0.47c-1.305,-0.527 -1.817,-2.098 -1.081,-3.293Z" style="fill:#07345a;fill-rule:nonzero;"/><path d="M1199.58,169.535l-14.413,-2.311l-8.339,12.33l-15.977,-3.735l-4.834,15.873l-18.252,-3.427l-6.253,14.067l-18.097,-0.426l0.16,-6.85l13.531,0.318l6.602,-14.843l17.544,3.294l4.914,-16.139l17.63,4.122l8.145,-12.041l13.357,2.143l3.694,-9.027l6.343,2.596l-5.755,14.056Z" style="fill:#256653;fill-rule:nonzero;"/><path d="M1173.48,324.91l-702.693,0c-25.794,0 -45.278,20.672 -43.518,46.173l4.722,68.408l796.099,0l-4.72,-68.408c-1.762,-25.501 -24.096,-46.173 -49.89,-46.173Z" style="fill:#b75742;fill-rule:nonzero;"/><path d="M1177.11,324.91l-702.698,0c-25.794,0 -45.274,20.672 -43.514,46.173l4.722,68.408l796.1,0l-4.719,-68.408c-1.763,-25.501 -24.102,-46.173 -49.891,-46.173Z" style="fill:#f47458;fill-rule:nonzero;"/><path d="M533.507,565.363l-50.801,0c-7.289,0 -13.398,-6.083 -13.647,-13.586l-1.722,-52.327c-0.249,-7.506 5.456,-13.591 12.745,-13.591l50.802,0c7.288,0 13.397,6.085 13.641,13.591l1.728,52.327c0.248,7.503 -5.462,13.586 -12.746,13.586Z" style="fill:#f47458;fill-rule:nonzero;"/><path d="M643.011,565.363l-50.801,0c-7.289,0 -13.398,-6.083 -13.646,-13.586l-1.723,-52.327c-0.249,-7.506 5.457,-13.591 12.745,-13.591l50.802,0c7.288,0 13.397,6.085 13.641,13.591l1.728,52.327c0.248,7.503 -5.462,13.586 -12.746,13.586Z" style="fill:#9bc1f9;fill-rule:nonzero;"/><path d="M752.515,565.363l-50.801,0c-7.289,0 -13.397,-6.083 -13.646,-13.586l-1.723,-52.327c-0.249,-7.506 5.457,-13.591 12.745,-13.591l50.802,0c7.288,0 13.397,6.085 13.641,13.591l1.728,52.327c0.249,7.503 -5.462,13.586 -12.746,13.586Z" style="fill:#9bc1f9;fill-rule:nonzero;"/><path d="M862.014,565.363l-50.796,0c-7.289,0 -13.397,-6.083 -13.646,-13.586l-1.723,-52.327c-0.249,-7.506 5.457,-13.591 12.745,-13.591l50.802,0c7.288,0 13.397,6.085 13.641,13.591l1.728,52.327c0.249,7.503 -5.462,13.586 -12.751,13.586Z" style="fill:#9bc1f9;fill-rule:nonzero;"/><path d="M971.519,565.363l-50.802,0c-7.284,0 -13.392,-6.083 -13.641,-13.586l-1.723,-52.327c-0.249,-7.506 5.457,-13.591 12.745,-13.591l50.802,0c7.288,0 13.397,6.085 13.641,13.591l1.728,52.327c0.244,7.503 -5.462,13.586 -12.75,13.586Z" style="fill:#9bc1f9;fill-rule:nonzero;"/><path d="M1081.02,565.363l-50.797,0c-7.289,0 -13.397,-6.083 -13.646,-13.586l-1.723,-52.327c-0.249,-7.506 5.457,-13.591 12.745,-13.591l50.802,0c7.288,0 13.392,6.085 13.641,13.591l1.728,52.327c0.244,7.503 -5.462,13.586 -12.75,13.586Z" style="fill:#9bc1f9;fill-rule:nonzero;"/><path d="M1190.53,565.363l-50.802,0c-7.284,0 -13.392,-6.083 -13.641,-13.586l-1.723,-52.327c-0.249,-7.506 5.457,-13.591 12.745,-13.591l50.802,0c7.284,0 13.392,6.085 13.641,13.591l1.728,52.327c0.244,7.503 -5.462,13.586 -12.75,13.586Z" style="fill:#f47458;fill-rule:nonzero;"/><path d="M537.45,685.074l-50.796,-0c-7.289,-0 -13.398,-6.089 -13.646,-13.592l-1.723,-52.325c-0.249,-7.508 5.456,-13.591 12.745,-13.591l50.802,-0c7.288,-0 13.397,6.083 13.641,13.591l1.728,52.325c0.248,7.503 -5.462,13.592 -12.751,13.592Z" style="fill:#f47458;fill-rule:nonzero;"/><path d="M646.954,685.074l-50.801,-0c-7.284,-0 -13.393,-6.089 -13.641,-13.592l-1.723,-52.325c-0.249,-7.508 5.456,-13.591 12.745,-13.591l50.802,-0c7.288,-0 13.397,6.083 13.641,13.591l1.728,52.325c0.244,7.503 -5.462,13.592 -12.751,13.592Z" style="fill:#9bc1f9;fill-rule:nonzero;"/><path d="M756.458,685.074l-50.801,-0c-7.284,-0 -13.392,-6.089 -13.641,-13.592l-1.728,-52.325c-0.244,-7.508 5.462,-13.591 12.75,-13.591l50.802,-0c7.288,-0 13.392,6.083 13.641,13.591l1.728,52.325c0.244,7.503 -5.462,13.592 -12.751,13.592Z" style="fill:#9bc1f9;fill-rule:nonzero;"/><path d="M865.962,685.074l-50.801,-0c-7.284,-0 -13.392,-6.089 -13.641,-13.592l-1.728,-52.325c-0.244,-7.508 5.462,-13.591 12.75,-13.591l50.802,-0c7.283,-0 13.392,6.083 13.641,13.591l1.728,52.325c0.244,7.503 -5.462,13.592 -12.751,13.592Z" style="fill:#9bc1f9;fill-rule:nonzero;"/><path d="M975.466,685.074l-50.801,-0c-7.284,-0 -13.392,-6.089 -13.641,-13.592l-1.728,-52.325c-0.244,-7.508 5.462,-13.591 12.75,-13.591l50.801,-0c7.284,-0 13.393,6.083 13.642,13.591l1.728,52.325c0.244,7.503 -5.462,13.592 -12.751,13.592Z" style="fill:#9bc1f9;fill-rule:nonzero;"/><path d="M1084.97,685.074l-50.802,-0c-7.284,-0 -13.392,-6.089 -13.641,-13.592l-1.728,-52.325c-0.244,-7.508 5.462,-13.591 12.75,-13.591l50.802,-0c7.284,-0 13.392,6.083 13.641,13.591l1.728,52.325c0.244,7.503 -5.462,13.592 -12.75,13.592Z" style="fill:#9bc1f9;fill-rule:nonzero;"/><path d="M1194.48,685.074l-50.802,-0c-7.288,-0 -13.392,-6.089 -13.641,-13.592l-1.728,-52.325c-0.244,-7.508 5.462,-13.591 12.75,-13.591l50.802,-0c7.284,-0 13.392,6.083 13.641,13.591l1.723,52.325c0.249,7.503 -5.457,13.592 -12.745,13.592Z" style="fill:#f47458;fill-rule:nonzero;"/><path d="M541.398,804.779l-50.801,-0c-7.284,-0 -13.393,-6.084 -13.641,-13.592l-1.728,-52.325c-0.244,-7.507 5.461,-13.591 12.75,-13.591l50.802,-0c7.283,-0 13.392,6.084 13.641,13.591l1.728,52.325c0.243,7.508 -5.462,13.592 -12.751,13.592Z" style="fill:#f47458;fill-rule:nonzero;"/><path d="M650.902,804.779l-50.801,-0c-7.284,-0 -13.392,-6.084 -13.641,-13.592l-1.728,-52.325c-0.244,-7.507 5.462,-13.591 12.75,-13.591l50.802,-0c7.283,-0 13.392,6.084 13.641,13.591l1.728,52.325c0.244,7.508 -5.462,13.592 -12.751,13.592Z" style="fill:#9bc1f9;fill-rule:nonzero;"/><path d="M760.406,804.779l-50.801,-0c-7.284,-0 -13.392,-6.084 -13.641,-13.592l-1.728,-52.325c-0.244,-7.507 5.462,-13.591 12.75,-13.591l50.802,-0c7.283,-0 13.392,6.084 13.641,13.591l1.723,52.325c0.249,7.508 -5.457,13.592 -12.746,13.592Z" style="fill:#9bc1f9;fill-rule:nonzero;"/><path d="M869.911,804.779l-50.802,-0c-7.289,-0 -13.397,-6.084 -13.641,-13.592l-1.728,-52.325c-0.244,-7.507 5.462,-13.591 12.75,-13.591l50.802,-0c7.283,-0 13.392,6.084 13.641,13.591l1.723,52.325c0.249,7.508 -5.457,13.592 -12.745,13.592Z" style="fill:#9bc1f9;fill-rule:nonzero;"/><path d="M979.415,804.779l-50.802,-0c-7.289,-0 -13.392,-6.084 -13.641,-13.592l-1.728,-52.325c-0.244,-7.507 5.462,-13.591 12.75,-13.591l50.797,-0c7.288,-0 13.397,6.084 13.646,13.591l1.723,52.325c0.249,7.508 -5.457,13.592 -12.745,13.592Z" style="fill:#9bc1f9;fill-rule:nonzero;"/><path d="M1088.92,804.779l-50.802,-0c-7.289,-0 -13.397,-6.084 -13.641,-13.592l-1.728,-52.325c-0.249,-7.507 5.462,-13.591 12.745,-13.591l50.802,-0c7.288,-0 13.397,6.084 13.646,13.591l1.723,52.325c0.249,7.508 -5.457,13.592 -12.745,13.592Z" style="fill:#9bc1f9;fill-rule:nonzero;"/><path d="M1198.42,804.779l-50.802,-0c-7.288,-0 -13.397,-6.084 -13.641,-13.592l-1.728,-52.325c-0.249,-7.507 5.462,-13.591 12.745,-13.591l50.802,-0c7.289,-0 13.397,6.084 13.646,13.591l1.723,52.325c0.249,7.508 -5.457,13.592 -12.745,13.592Z" style="fill:#f47458;fill-rule:nonzero;"/><path d="M545.346,924.484l-50.801,-0c-7.289,-0 -13.397,-6.084 -13.641,-13.592l-1.728,-52.325c-0.244,-7.507 5.462,-13.591 12.75,-13.591l50.802,-0c7.283,-0 13.392,6.084 13.641,13.591l1.723,52.325c0.249,7.508 -5.457,13.592 -12.746,13.592Z" style="fill:#f47458;fill-rule:nonzero;"/><path d="M654.85,924.484l-50.801,-0c-7.289,-0 -13.397,-6.084 -13.641,-13.592l-1.728,-52.325c-0.249,-7.507 5.462,-13.591 12.75,-13.591l50.797,-0c7.288,-0 13.397,6.084 13.646,13.591l1.723,52.325c0.249,7.508 -5.457,13.592 -12.746,13.592Z" style="fill:#9bc1f9;fill-rule:nonzero;"/><path d="M764.354,924.484l-50.801,-0c-7.289,-0 -13.397,-6.084 -13.641,-13.592l-1.728,-52.325c-0.249,-7.507 5.462,-13.591 12.745,-13.591l50.802,-0c7.288,-0 13.397,6.084 13.646,13.591l1.723,52.325c0.249,7.508 -5.457,13.592 -12.746,13.592Z" style="fill:#9bc1f9;fill-rule:nonzero;"/><path d="M873.859,924.484l-50.802,-0c-7.289,-0 -13.397,-6.084 -13.641,-13.592l-1.728,-52.325c-0.249,-7.507 5.462,-13.591 12.745,-13.591l50.802,-0c7.288,-0 13.397,6.084 13.646,13.591l1.723,52.325c0.249,7.508 -5.457,13.592 -12.745,13.592Z" style="fill:#9bc1f9;fill-rule:nonzero;"/><path d="M983.363,924.484l-50.802,-0c-7.289,-0 -13.397,-6.084 -13.641,-13.592l-1.728,-52.325c-0.249,-7.507 5.462,-13.591 12.745,-13.591l50.802,-0c7.289,-0 13.397,6.084 13.646,13.591l1.723,52.325c0.249,7.508 -5.457,13.592 -12.745,13.592Z" style="fill:#9bc1f9;fill-rule:nonzero;"/><path d="M476.99,406.14c1.101,0.642 2.679,1.176 4.302,1.176c2.405,-0 3.724,-1.256 3.599,-3.074c-0.114,-1.684 -1.155,-2.646 -3.679,-3.582c-3.047,-1.042 -4.993,-2.566 -5.168,-5.105c-0.194,-2.807 2.017,-4.891 5.557,-4.891c1.867,-0 3.246,0.427 4.092,0.882l-0.518,1.897c-0.617,-0.32 -1.872,-0.855 -3.52,-0.855c-2.489,0 -3.335,1.47 -3.251,2.7c0.12,1.684 1.285,2.512 3.864,3.474c3.166,1.177 4.834,2.647 5.018,5.293c0.189,2.78 -1.727,5.185 -6.024,5.185c-1.757,0 -3.714,-0.507 -4.73,-1.149l0.458,-1.951Z" style="fill:#fff;fill-rule:nonzero;"/><path d="M501.465,405.445c0.095,1.337 0.199,2.512 0.354,3.528l-2.111,0l-0.279,-2.111l-0.055,-0c-0.548,1.042 -1.837,2.405 -4.162,2.405c-2.051,-0 -4.59,-1.123 -4.904,-5.667l-0.523,-7.564l2.38,0l0.493,7.163c0.169,2.46 1.041,4.117 3.206,4.117c1.593,-0 2.629,-1.096 2.987,-2.139c0.11,-0.347 0.165,-0.775 0.135,-1.202l-0.548,-7.939l2.38,0l0.647,9.409Z" style="fill:#fff;fill-rule:nonzero;"/><path d="M505.005,399.538c-0.095,-1.337 -0.194,-2.432 -0.349,-3.502l2.106,0l0.284,2.139l0.055,-0c0.562,-1.23 1.996,-2.433 4.157,-2.433c1.812,0 4.7,1.069 5.004,5.506l0.532,7.725l-2.38,0l-0.512,-7.457c-0.145,-2.085 -1.051,-3.823 -3.291,-3.823c-1.568,0 -2.709,1.096 -3.027,2.406c-0.085,0.294 -0.115,0.695 -0.085,1.096l0.538,7.778l-2.38,0l-0.652,-9.435Z" style="fill:#fff;fill-rule:nonzero;"/><path d="M602.964,399.537c-0.045,-0.148 -0.13,-0.556 -0.254,-1.227c-0.11,-0.556 -0.204,-1.017 -0.284,-1.383c-0.045,0.435 -0.13,0.87 -0.244,1.305c-0.115,0.435 -0.269,0.879 -0.458,1.332l-4.351,10.179l-5.776,-10.389c-0.238,-0.426 -0.448,-0.839 -0.632,-1.239c-0.179,-0.4 -0.343,-0.796 -0.483,-1.188c0.02,0.401 0.015,0.82 -0.015,1.259c-0.025,0.44 -0.079,0.899 -0.159,1.378l-1.424,9.409l-2.892,0l3.191,-19.915l6.537,12.058c0.099,0.192 0.259,0.51 0.468,0.953c0.214,0.444 0.468,0.992 0.766,1.645c0.15,-0.548 0.394,-1.244 0.727,-2.088c0.09,-0.227 0.16,-0.401 0.204,-0.523l4.74,-12.045l6.049,19.915l-2.917,0l-2.793,-9.436Z" style="fill:#fff;fill-rule:nonzero;"/><path d="M620.354,402.826c-0.08,-1.149 -0.523,-2.12 -1.325,-2.917c-0.801,-0.796 -1.747,-1.194 -2.827,-1.194c-1.076,0 -1.962,0.398 -2.659,1.194c-0.697,0.797 -1.006,1.768 -0.926,2.917c0.08,1.149 0.523,2.121 1.329,2.917c0.807,0.796 1.748,1.194 2.823,1.194c1.076,0 1.957,-0.398 2.659,-1.194c0.697,-0.796 1.005,-1.768 0.926,-2.917Zm-10.759,-0.026c-0.065,-0.904 0.05,-1.76 0.344,-2.564c0.288,-0.805 0.741,-1.521 1.349,-2.148c0.597,-0.617 1.304,-1.091 2.121,-1.421c0.811,-0.332 1.672,-0.497 2.589,-0.497c0.941,0 1.842,0.165 2.698,0.497c0.851,0.33 1.633,0.817 2.335,1.461c0.707,0.635 1.254,1.353 1.653,2.153c0.398,0.801 0.627,1.64 0.692,2.519c0.06,0.914 -0.05,1.771 -0.334,2.571c-0.284,0.801 -0.727,1.51 -1.334,2.127c-0.642,0.653 -1.369,1.146 -2.186,1.482c-0.811,0.335 -1.677,0.502 -2.603,0.502c-0.907,-0 -1.788,-0.167 -2.649,-0.502c-0.861,-0.336 -1.638,-0.82 -2.33,-1.456c-0.707,-0.643 -1.26,-1.365 -1.658,-2.166c-0.398,-0.8 -0.627,-1.653 -0.687,-2.558Z" style="fill:#fff;fill-rule:nonzero;"/><path d="M626.836,408.973l-0.851,-12.372l2.688,-0l0.144,2.023c0.513,-0.853 1.141,-1.475 1.887,-1.866c0.747,-0.392 1.678,-0.588 2.788,-0.588c0.931,0 1.738,0.146 2.41,0.438c0.677,0.291 1.22,0.724 1.628,1.298c0.244,0.339 0.428,0.736 0.558,1.188c0.129,0.452 0.234,1.244 0.308,2.375l0.518,7.504l-2.888,0l-0.438,-6.356c-0.114,-1.627 -0.388,-2.708 -0.826,-3.243c-0.438,-0.535 -1.165,-0.803 -2.186,-0.803c-0.672,0 -1.259,0.123 -1.767,0.366c-0.508,0.244 -0.891,0.587 -1.16,1.031c-0.194,0.296 -0.314,0.676 -0.364,1.142c-0.054,0.465 -0.044,1.207 0.025,2.225l0.394,5.638l-2.868,0Z" style="fill:#fff;fill-rule:nonzero;"/><path d="M703.143,392.503l1.135,16.47l-3.142,0l-1.14,-16.47l-5.133,-0l-0.184,-2.636l13.388,-0l0.184,2.636l-5.108,-0Z" style="fill:#fff;fill-rule:nonzero;"/><path d="M710.75,396.601l0.483,6.969c0.08,1.201 0.388,2.062 0.926,2.584c0.543,0.522 1.374,0.783 2.499,0.783c1.125,0 1.922,-0.261 2.39,-0.783c0.463,-0.522 0.657,-1.383 0.572,-2.584l-0.482,-6.969l2.867,-0l0.423,6.121c0.16,2.366 -0.199,4.084 -1.085,5.155c-0.886,1.07 -2.38,1.605 -4.486,1.605c-2.135,-0 -3.724,-0.53 -4.754,-1.592c-1.031,-1.062 -1.633,-2.784 -1.797,-5.168l-0.419,-6.121l2.863,-0Z" style="fill:#fff;fill-rule:nonzero;"/><path d="M733.278,401.299c-0.174,-0.887 -0.567,-1.564 -1.17,-2.029c-0.602,-0.466 -1.404,-0.699 -2.399,-0.699c-0.941,0 -1.683,0.227 -2.221,0.679c-0.543,0.453 -0.896,1.136 -1.06,2.049l6.85,0Zm3.102,1.906l-10.007,-0c0.149,1.157 0.562,2.06 1.23,2.708c0.672,0.648 1.523,0.972 2.564,0.972c0.921,0 1.677,-0.191 2.27,-0.574c0.587,-0.383 1.085,-1.001 1.483,-1.853l2.505,1.331c-0.618,1.244 -1.424,2.17 -2.42,2.779c-0.996,0.609 -2.196,0.914 -3.594,0.914c-2.007,-0 -3.645,-0.605 -4.919,-1.814c-1.27,-1.209 -1.977,-2.823 -2.116,-4.842c-0.135,-1.94 0.373,-3.534 1.513,-4.783c1.14,-1.248 2.674,-1.873 4.6,-1.873c2.017,0 3.63,0.57 4.835,1.71c1.204,1.14 1.877,2.736 2.016,4.789l0.04,0.536Z" style="fill:#fff;fill-rule:nonzero;"/><path d="M804.596,389.867l3.102,-0l4.321,9.644c0.284,0.636 0.523,1.192 0.717,1.671c0.195,0.479 0.369,0.926 0.523,1.344c0.239,-1.009 0.493,-1.997 0.757,-2.962c0.035,-0.122 0.06,-0.205 0.075,-0.248l3.176,-10.206l4.814,10.401c0.224,0.505 0.443,1.009 0.652,1.514c0.205,0.505 0.404,1.014 0.588,1.527c0.06,-0.392 0.149,-0.822 0.264,-1.292c0.119,-0.47 0.274,-1.026 0.468,-1.671l2.957,-9.722l3.132,-0l-6.119,19.85l-5.158,-10.898c-0.229,-0.487 -0.438,-0.954 -0.627,-1.402c-0.189,-0.448 -0.359,-0.872 -0.508,-1.273c-0.115,0.514 -0.234,0.994 -0.349,1.442c-0.119,0.449 -0.244,0.877 -0.373,1.286l-3.585,10.845l-8.827,-19.85Z" style="fill:#fff;fill-rule:nonzero;"/><path d="M840.432,401.299c-0.174,-0.887 -0.562,-1.564 -1.17,-2.029c-0.602,-0.466 -1.404,-0.699 -2.394,-0.699c-0.946,0 -1.683,0.227 -2.226,0.679c-0.542,0.453 -0.896,1.136 -1.06,2.049l6.85,0Zm3.102,1.906l-10.007,-0c0.154,1.157 0.563,2.06 1.23,2.708c0.672,0.648 1.523,0.972 2.564,0.972c0.926,0 1.682,-0.191 2.27,-0.574c0.587,-0.383 1.085,-1.001 1.484,-1.853l2.509,1.331c-0.623,1.244 -1.429,2.17 -2.425,2.779c-0.996,0.609 -2.195,0.914 -3.594,0.914c-2.007,-0 -3.645,-0.605 -4.914,-1.814c-1.275,-1.209 -1.977,-2.823 -2.116,-4.842c-0.135,-1.94 0.368,-3.534 1.508,-4.783c1.14,-1.248 2.679,-1.873 4.606,-1.873c2.016,0 3.624,0.57 4.829,1.71c1.205,1.14 1.877,2.736 2.021,4.789l0.035,0.536Z" style="fill:#fff;fill-rule:nonzero;"/><path d="M855.478,402.748c-0.09,-1.279 -0.458,-2.275 -1.111,-2.989c-0.652,-0.713 -1.518,-1.07 -2.603,-1.07c-1.081,-0 -1.907,0.368 -2.48,1.103c-0.567,0.735 -0.806,1.755 -0.717,3.06c0.09,1.314 0.458,2.328 1.106,3.041c0.647,0.713 1.518,1.07 2.608,1.07c1.041,0 1.852,-0.385 2.445,-1.154c0.587,-0.771 0.836,-1.791 0.752,-3.061Zm-1.046,-14.003l2.863,-0l1.399,20.228l-2.868,0l-0.109,-1.606c-0.463,0.714 -1.021,1.245 -1.678,1.593c-0.657,0.348 -1.429,0.522 -2.31,0.522c-1.768,-0 -3.201,-0.598 -4.302,-1.794c-1.095,-1.197 -1.717,-2.834 -1.862,-4.914c-0.134,-1.975 0.274,-3.569 1.225,-4.783c0.956,-1.214 2.27,-1.821 3.943,-1.821c1.021,0 1.907,0.211 2.664,0.633c0.756,0.422 1.329,1.03 1.717,1.821l-0.682,-9.879Z" style="fill:#fff;fill-rule:nonzero;"/><path d="M923.5,392.503l1.135,16.47l-3.141,0l-1.14,-16.47l-5.133,-0l-0.185,-2.636l13.388,-0l0.184,2.636l-5.108,-0Z" style="fill:#fff;fill-rule:nonzero;"/><path d="M931.909,408.973l-1.399,-20.228l2.693,-0l0.682,9.879c0.513,-0.853 1.145,-1.475 1.892,-1.866c0.747,-0.392 1.678,-0.588 2.783,-0.588c0.936,0 1.738,0.146 2.415,0.438c0.677,0.291 1.22,0.724 1.628,1.298c0.244,0.339 0.428,0.736 0.557,1.188c0.13,0.452 0.229,1.244 0.309,2.375l0.518,7.504l-2.893,0l-0.438,-6.356c-0.109,-1.627 -0.388,-2.708 -0.821,-3.243c-0.438,-0.535 -1.17,-0.803 -2.191,-0.803c-0.667,0 -1.254,0.123 -1.762,0.366c-0.508,0.244 -0.896,0.587 -1.165,1.031c-0.189,0.296 -0.309,0.676 -0.364,1.142c-0.049,0.465 -0.039,1.207 0.03,2.225l0.389,5.638l-2.863,0Z" style="fill:#fff;fill-rule:nonzero;"/><path d="M949.722,396.601l0.478,6.969c0.085,1.201 0.394,2.062 0.931,2.584c0.538,0.522 1.369,0.783 2.499,0.783c1.126,0 1.922,-0.261 2.385,-0.783c0.468,-0.522 0.657,-1.383 0.573,-2.584l-0.478,-6.969l2.862,-0l0.424,6.121c0.164,2.366 -0.2,4.084 -1.081,5.155c-0.886,1.07 -2.379,1.605 -4.485,1.605c-2.136,-0 -3.724,-0.53 -4.755,-1.592c-1.035,-1.062 -1.633,-2.784 -1.797,-5.168l-0.423,-6.121l2.867,-0Z" style="fill:#fff;fill-rule:nonzero;"/><path d="M1028.57,408.973l-1.319,-19.106l10.788,-0l0.18,2.636l-7.642,-0l0.328,4.763l7.642,0l0.189,2.728l-7.642,0l0.618,8.979l-3.142,0Z" style="fill:#fff;fill-rule:nonzero;"/><path d="M1044.2,398.571c0.249,-0.817 0.612,-1.422 1.095,-1.813c0.478,-0.392 1.091,-0.588 1.837,-0.588c0.409,0 0.807,0.048 1.205,0.144c0.398,0.096 0.797,0.235 1.185,0.417l-0.861,2.402c-0.259,-0.174 -0.538,-0.303 -0.827,-0.385c-0.293,-0.083 -0.612,-0.124 -0.966,-0.124c-0.95,-0 -1.608,0.376 -1.966,1.129c-0.363,0.753 -0.483,2.016 -0.359,3.791l0.374,5.429l-2.863,0l-0.856,-12.398l2.863,-0l0.139,1.996Z" style="fill:#fff;fill-rule:nonzero;"/><path d="M1052.13,408.973l-0.852,-12.372l2.863,-0l0.856,12.372l-2.867,0Zm-1.603,-17.723c-0.035,-0.479 0.114,-0.892 0.448,-1.239c0.328,-0.349 0.742,-0.523 1.234,-0.523c0.513,0 0.951,0.168 1.31,0.503c0.363,0.335 0.562,0.755 0.597,1.259c0.035,0.505 -0.109,0.929 -0.428,1.273c-0.318,0.343 -0.732,0.515 -1.23,0.515c-0.492,0 -0.931,-0.176 -1.314,-0.529c-0.378,-0.352 -0.587,-0.772 -0.617,-1.259Z" style="fill:#fff;fill-rule:nonzero;"/><path d="M1137.38,405.149l2.43,-1.149c0.294,0.854 0.776,1.504 1.443,1.952c0.663,0.448 1.489,0.672 2.475,0.672c0.931,-0 1.653,-0.257 2.171,-0.77c0.512,-0.513 0.741,-1.201 0.682,-2.062c-0.08,-1.123 -1.091,-2.123 -3.032,-3.002c-0.274,-0.13 -0.483,-0.226 -0.628,-0.287c-2.2,-1.027 -3.684,-1.955 -4.45,-2.786c-0.767,-0.831 -1.19,-1.847 -1.275,-3.047c-0.105,-1.558 0.343,-2.82 1.344,-3.785c1.006,-0.966 2.37,-1.449 4.108,-1.449c1.423,0 2.633,0.272 3.629,0.816c1.001,0.544 1.718,1.324 2.156,2.343l-2.365,1.252c-0.433,-0.6 -0.886,-1.039 -1.369,-1.318c-0.478,-0.278 -1.021,-0.417 -1.618,-0.417c-0.847,-0 -1.499,0.217 -1.967,0.652c-0.468,0.435 -0.677,1.018 -0.627,1.749c0.079,1.148 1.245,2.218 3.495,3.21c0.174,0.079 0.308,0.14 0.408,0.183c1.972,0.87 3.341,1.721 4.112,2.551c0.772,0.831 1.2,1.869 1.285,3.113c0.124,1.81 -0.354,3.247 -1.434,4.313c-1.08,1.066 -2.599,1.599 -4.56,1.599c-1.648,-0 -3.022,-0.374 -4.123,-1.122c-1.105,-0.749 -1.867,-1.818 -2.29,-3.211Z" style="fill:#fff;fill-rule:nonzero;"/><path d="M1161.91,402.748c-0.09,-1.279 -0.458,-2.275 -1.111,-2.989c-0.652,-0.713 -1.518,-1.07 -2.603,-1.07c-1.081,-0 -1.907,0.368 -2.48,1.103c-0.567,0.735 -0.806,1.755 -0.717,3.06c0.09,1.314 0.458,2.328 1.106,3.041c0.647,0.713 1.518,1.07 2.608,1.07c1.031,0 1.842,-0.387 2.435,-1.161c0.592,-0.774 0.846,-1.793 0.762,-3.054Zm3.216,6.225l-2.868,0l-0.109,-1.606c-0.463,0.714 -1.021,1.245 -1.678,1.593c-0.657,0.348 -1.429,0.522 -2.31,0.522c-1.768,-0 -3.201,-0.598 -4.302,-1.794c-1.1,-1.197 -1.717,-2.834 -1.862,-4.914c-0.134,-1.975 0.274,-3.569 1.225,-4.783c0.956,-1.214 2.27,-1.821 3.943,-1.821c1.021,0 1.907,0.211 2.664,0.633c0.756,0.422 1.329,1.03 1.717,1.821l-0.139,-2.023l2.863,-0l0.856,12.372Z" style="fill:#fff;fill-rule:nonzero;"/><path d="M1169.76,408.973l-0.682,-9.892l-2.191,-0l-0.169,-2.48l2.191,-0l-0.324,-4.686l2.863,0l0.323,4.686l2.191,-0l0.174,2.48l-2.195,-0l0.687,9.892l-2.868,0Z" style="fill:#fff;fill-rule:nonzero;"/><path d="M884.612,541.561c-1.902,9.25 -6.188,19.078 -15.279,25.635c-11.53,8.319 -28.667,8.428 -41.676,0.268l-0.154,-0.089c-5.347,-3.177 -22.1,-15.379 -13.213,-39.192l4.844,1.808c-7.279,19.506 5.272,29.533 11.013,32.938c0.114,0.065 0.199,0.119 0.258,0.154c11.272,7.07 26.033,7.04 35.901,-0.079c15.065,-10.869 15.001,-32.764 14.274,-41.676c-0.304,-3.758 -0.872,-8.086 -2.739,-11.686c-4.002,-7.702 -13.746,-14.995 -23.703,-17.737c-9.922,-2.734 -18.903,-3.742 -26.69,-2.995c-8.877,0.851 -17.315,5.842 -21.507,12.717c-0.334,0.549 -0.672,1.095 -1.006,1.64c-4.665,7.584 -8.698,14.134 -7.478,25.793l-5.143,0.537c-1.404,-13.408 3.49,-21.354 8.215,-29.04c0.334,-0.538 0.667,-1.078 0.996,-1.622c5.008,-8.217 14.99,-14.173 25.43,-15.173c8.419,-0.807 18.028,0.255 28.557,3.157c9.5,2.617 21.503,9.92 26.915,20.338c2.295,4.416 2.962,9.379 3.31,13.653c0.374,4.61 0.573,12.401 -1.125,20.651Z" style="fill:#f47458;fill-rule:nonzero;"/><path d="M1144.16,350.938c0,8.356 -5.676,15.13 -12.675,15.13c-7,0 -12.676,-6.774 -12.676,-15.13c0,-8.356 5.676,-15.13 12.676,-15.13c6.999,0 12.675,6.774 12.675,15.13Z" style="fill:#b75742;fill-rule:nonzero;"/><path d="M1131.49,335.808c-1.3,0 -2.555,0.235 -3.734,0.668c5.182,1.901 8.946,7.656 8.946,14.462c0,6.806 -3.764,12.561 -8.946,14.462c1.179,0.434 2.434,0.668 3.734,0.668c6.999,0 12.675,-6.774 12.675,-15.13c0,-8.356 -5.676,-15.13 -12.675,-15.13Z" style="fill:#a54737;fill-rule:nonzero;"/><path d="M1077.81,235.174c-36.901,0 -66.922,32.88 -66.922,73.294c0,5.653 0.598,11.154 1.713,16.442l10.271,0c-1.275,-5.246 -1.962,-10.755 -1.962,-16.442c0,-34.889 25.525,-63.274 56.9,-63.274c31.38,-0 56.906,28.385 56.906,63.274c-0,17.815 -6.657,33.932 -17.346,45.442c-1.907,2.052 -1.702,5.273 0.413,7.105c0.025,0.023 0.05,0.045 0.075,0.067c2.011,1.729 5.043,1.574 6.846,-0.368c12.357,-13.306 20.033,-31.813 20.033,-52.246c0,-40.414 -30.025,-73.294 -66.927,-73.294Z" style="fill:#184655;fill-rule:nonzero;"/><path d="M1118.81,351.382c0,0 0.607,8.679 6.721,12.917c6.119,4.237 -8.478,6.463 -9.225,5.722c-0.742,-0.743 -7.503,-5.114 -7.667,-9.485c-0.164,-4.37 1.235,-7.917 1.483,-8.494c0.249,-0.577 2.146,-3.959 2.639,-3.959c0.498,0 6.049,3.299 6.049,3.299Z" style="fill:#f47458;fill-rule:nonzero;"/><path d="M972.206,350.938c-0,8.356 -5.676,15.13 -12.676,15.13c-7,0 -12.675,-6.774 -12.675,-15.13c-0,-8.356 5.675,-15.13 12.675,-15.13c7,0 12.676,6.774 12.676,15.13Z" style="fill:#b75742;fill-rule:nonzero;"/><path d="M959.53,335.808c-1.299,0 -2.554,0.235 -3.734,0.668c5.178,1.901 8.947,7.656 8.947,14.462c-0,6.806 -3.769,12.561 -8.947,14.462c1.18,0.434 2.435,0.668 3.734,0.668c7,0 12.676,-6.774 12.676,-15.13c-0,-8.356 -5.676,-15.13 -12.676,-15.13Z" style="fill:#a54737;fill-rule:nonzero;"/><path d="M905.851,235.174c-36.901,0 -66.922,32.88 -66.922,73.294c-0,5.653 0.597,11.154 1.707,16.442l10.271,0c-1.269,-5.246 -1.961,-10.755 -1.961,-16.442c-0,-34.889 25.53,-63.274 56.905,-63.274c31.375,-0 56.905,28.385 56.905,63.274c0,17.815 -6.656,33.932 -17.345,45.442c-1.907,2.052 -1.703,5.273 0.413,7.105c0.025,0.023 0.05,0.045 0.075,0.067c2.011,1.729 5.043,1.574 6.845,-0.368c12.357,-13.306 20.029,-31.813 20.029,-52.246c0,-40.414 -30.021,-73.294 -66.922,-73.294Z" style="fill:#184655;fill-rule:nonzero;"/><path d="M946.855,351.382c-0,0 0.607,8.679 6.721,12.917c6.113,4.237 -8.484,6.463 -9.226,5.722c-0.741,-0.743 -7.502,-5.114 -7.667,-9.485c-0.164,-4.37 1.235,-7.917 1.484,-8.494c0.249,-0.577 2.146,-3.959 2.639,-3.959c0.492,0 6.049,3.299 6.049,3.299Z" style="fill:#f47458;fill-rule:nonzero;"/><path d="M800.25,350.938c0,8.356 -5.675,15.13 -12.68,15.13c-7,0 -12.676,-6.774 -12.676,-15.13c0,-8.356 5.676,-15.13 12.676,-15.13c7.005,0 12.68,6.774 12.68,15.13Z" style="fill:#b75742;fill-rule:nonzero;"/><path d="M787.57,335.808c-1.295,0 -2.549,0.235 -3.729,0.668c5.177,1.901 8.941,7.656 8.941,14.462c0,6.806 -3.764,12.561 -8.941,14.462c1.18,0.434 2.434,0.668 3.729,0.668c7.005,0 12.68,-6.774 12.68,-15.13c0,-8.356 -5.675,-15.13 -12.68,-15.13Z" style="fill:#a54737;fill-rule:nonzero;"/><path d="M733.896,235.174c-36.902,0 -66.923,32.88 -66.923,73.294c0,5.653 0.598,11.154 1.708,16.442l10.271,0c-1.27,-5.246 -1.962,-10.755 -1.962,-16.442c0,-34.889 25.53,-63.274 56.906,-63.274c31.375,-0 56.905,28.385 56.905,63.274c-0,17.815 -6.657,33.932 -17.346,45.442c-1.906,2.052 -1.702,5.273 0.414,7.105c0.024,0.023 0.049,0.045 0.074,0.067c2.012,1.729 5.039,1.574 6.846,-0.368c12.357,-13.306 20.029,-31.813 20.029,-52.246c-0,-40.414 -30.021,-73.294 -66.922,-73.294Z" style="fill:#184655;fill-rule:nonzero;"/><path d="M774.894,351.382c0,0 0.613,8.679 6.726,12.917c6.114,4.237 -8.483,6.463 -9.225,5.722c-0.742,-0.743 -7.503,-5.114 -7.672,-9.485c-0.164,-4.37 1.24,-7.917 1.488,-8.494c0.244,-0.577 2.141,-3.959 2.639,-3.959c0.493,0 6.044,3.299 6.044,3.299Z" style="fill:#f47458;fill-rule:nonzero;"/><path d="M628.29,350.938c-0,8.356 -5.676,15.13 -12.676,15.13c-7,0 -12.675,-6.774 -12.675,-15.13c-0,-8.356 5.675,-15.13 12.675,-15.13c7,0 12.676,6.774 12.676,15.13Z" style="fill:#b75742;fill-rule:nonzero;"/><path d="M615.614,335.808c-1.299,0 -2.549,0.235 -3.729,0.668c5.178,1.901 8.942,7.656 8.942,14.462c-0,6.806 -3.764,12.561 -8.942,14.462c1.18,0.434 2.43,0.668 3.729,0.668c7,0 12.676,-6.774 12.676,-15.13c-0,-8.356 -5.676,-15.13 -12.676,-15.13Z" style="fill:#a54737;fill-rule:nonzero;"/><path d="M561.94,235.174c-36.901,0 -66.927,32.88 -66.927,73.294c-0,5.653 0.597,11.154 1.713,16.442l10.27,0c-1.274,-5.246 -1.961,-10.755 -1.961,-16.442c-0,-34.889 25.525,-63.274 56.905,-63.274c31.375,-0 56.9,28.385 56.9,63.274c0,17.815 -6.651,33.932 -17.345,45.442c-1.902,2.052 -1.703,5.273 0.413,7.105c0.03,0.023 0.055,0.045 0.08,0.067c2.006,1.729 5.038,1.574 6.84,-0.368c12.362,-13.306 20.034,-31.813 20.034,-52.246c0,-40.414 -30.021,-73.294 -66.922,-73.294Z" style="fill:#184655;fill-rule:nonzero;"/><path d="M602.939,351.382c-0,0 0.612,8.679 6.726,12.917c6.114,4.237 -8.484,6.463 -9.226,5.722c-0.741,-0.743 -7.507,-5.114 -7.672,-9.485c-0.164,-4.37 1.24,-7.917 1.484,-8.494c0.249,-0.577 2.146,-3.959 2.639,-3.959c0.498,0 6.049,3.299 6.049,3.299Z" style="fill:#f47458;fill-rule:nonzero;"/><path d="M1242.26,937.398l-0.801,-34.899l-38.136,7.447c-0,0 -113.562,13.194 -114.06,13.194c-0.493,-0 -109.638,31.997 -109.638,31.997l-13.637,2.31l257.025,0c10.883,0 19.501,-8.976 19.247,-20.049Z" style="fill:#f7cc7f;fill-rule:nonzero;"/><path d="M755.244,576.715l49.079,-74.616l-84.288,29.52l-11.227,32.485l46.436,12.611Z" style="fill:#f2e9da;fill-rule:nonzero;"/><path d="M708.808,564.104l11.944,3.246l83.571,-65.251l-84.288,29.52l-11.227,32.485Z" style="fill:#e0d5c3;fill-rule:nonzero;"/><path d="M720.035,531.619l21.816,-7.643l-11.889,20.358l-267.768,209.066l-1.827,-19.038l259.668,-202.743Z" style="fill:#e8ba70;fill-rule:nonzero;"/><path d="M729.962,544.334l24.938,-3.644l-9.584,23.309l-267.768,209.066l-15.354,-19.665l267.768,-209.066Z" style="fill:#f7cc7f;fill-rule:nonzero;"/><path d="M745.316,563.999l22.628,-6.601l-12.7,19.317l-259.669,202.743l-18.027,-6.393l267.768,-209.066Z" style="fill:#fae0b2;fill-rule:nonzero;"/><path d="M481.914,738.006l-19.72,15.394l15.354,19.665l19.72,-15.394l-15.354,-19.665Z" style="fill:#50bfa5;fill-rule:nonzero;"/><path d="M497.268,757.671l-19.72,15.394l18.027,6.393l11.62,-9.076l-9.927,-12.711Z" style="fill:#96d9c9;fill-rule:nonzero;"/><path d="M471.987,725.291l-11.62,9.071l1.827,19.038l19.72,-15.394l-9.927,-12.715Z" style="fill:#3c8f7c;fill-rule:nonzero;"/><path d="M520.508,739.524l9.928,12.716l-23.241,18.142l-9.927,-12.711l23.24,-18.147Z" style="fill:#fef8f8;fill-rule:nonzero;"/><path d="M495.227,707.149l9.922,12.71l-23.235,18.147l-9.927,-12.715l23.24,-18.142Z" style="fill:#eddfca;fill-rule:nonzero;"/><path d="M505.149,719.859l15.359,19.665l-23.24,18.147l-15.354,-19.665l23.235,-18.147Z" style="fill:#f2e9da;fill-rule:nonzero;"/><path d="M787.664,527.422c0.17,-0.254 16.659,-25.323 16.659,-25.323l-28.607,10.019l10.166,4.378l1.782,10.926Z" style="fill:#e86752;fill-rule:nonzero;"/><path d="M785.882,516.496l18.441,-14.397l-28.607,10.019l10.166,4.378Z" style="fill:#d85648;fill-rule:nonzero;"/></g></g></svg>