<?xml version="1.0" encoding="UTF-8" standalone="no"?><!DOCTYPE svg PUBLIC "-//W3C//DTD SVG 1.1//EN" "http://www.w3.org/Graphics/SVG/1.1/DTD/svg11.dtd"><svg width="100%" height="100%" viewBox="0 0 3125 2084" version="1.1" xmlns="http://www.w3.org/2000/svg" xmlns:xlink="http://www.w3.org/1999/xlink" xml:space="preserve" xmlns:serif="http://www.serif.com/" style="fill-rule:evenodd;clip-rule:evenodd;stroke-linecap:round;stroke-linejoin:round;stroke-miterlimit:10;"><g id="Background-Simple" serif:id="Background Simple"><path d="M1170.02,479.903c406.142,-199.975 823.875,-461.462 1295.7,-354.454c146.296,33.179 279.425,116.121 369.416,236.713c240.642,322.446 221.071,816.333 90.334,1179.3c-17.067,47.375 -38.371,93.304 -65.784,135.612c-132.695,204.813 -356.304,214.463 -571.979,155.25c-182.525,-50.108 -344.233,-101.662 -532.771,-50.712c-104.433,28.225 -205.625,67.008 -309.67,96.529c-141.655,40.191 -287.692,67.492 -435.217,70.258c-390.283,7.321 -836.108,-191.779 -870.688,-627.625c-2.237,-28.25 -2.633,-56.633 -1.366,-84.937c7.796,-174 65.3,-348.246 224.687,-438.584c160.246,-90.825 350.371,-126.733 521.784,-191.15c97.475,-36.629 192.05,-80.158 285.558,-126.2" style="fill:#5ae4a8;fill-rule:nonzero;"/><g opacity="0.7"><path d="M1170.02,479.903c406.142,-199.975 823.875,-461.462 1295.7,-354.454c146.296,33.179 279.425,116.121 369.416,236.713c240.642,322.446 221.071,816.333 90.334,1179.3c-17.067,47.375 -38.371,93.304 -65.784,135.612c-132.695,204.813 -356.304,214.463 -571.979,155.25c-182.525,-50.108 -344.233,-101.662 -532.771,-50.712c-104.433,28.225 -205.625,67.008 -309.67,96.529c-141.655,40.191 -287.692,67.492 -435.217,70.258c-390.283,7.321 -836.108,-191.779 -870.688,-627.625c-2.237,-28.25 -2.633,-56.633 -1.366,-84.937c7.796,-174 65.3,-348.246 224.687,-438.584c160.246,-90.825 350.371,-126.733 521.784,-191.15c97.475,-36.629 192.05,-80.158 285.558,-126.2" style="fill:#fff;fill-rule:nonzero;"/></g></g><g id="Floor"><path d="M1099.49,1446.1l-959.733,442.454" style="fill:none;fill-rule:nonzero;stroke:#1a2e35;stroke-width:4.17px;"/><path d="M1969.53,1446.1l959.733,442.454" style="fill:none;fill-rule:nonzero;stroke:#1a2e35;stroke-width:4.17px;"/></g><g id="Clouds"><g opacity="0.3"><clipPath id="_clip1"><rect x="824.358" y="81.125" width="450" height="143.471" clip-rule="nonzero"/></clipPath><g clip-path="url(#_clip1)"><path d="M1271.69,222.514c-1.758,-7.021 -6.379,-17.929 -18.562,-26.792c-19.646,-14.283 -50.009,-5.354 -50.009,-5.354c1.788,-46.438 -30.358,-107.158 -96.437,-107.158c-66.079,-0 -82.154,53.579 -82.154,53.579c-0,-0 -25.004,-30.363 -66.079,-14.288c-41.08,16.071 -42.863,69.65 -42.863,69.65c0,0 -26.792,-28.575 -55.367,-19.646c-23.662,7.396 -31.4,39.263 -33.362,50.009l444.833,-0Z" style="fill:none;fill-rule:nonzero;stroke:#000;stroke-width:4.17px;stroke-linecap:butt;stroke-linejoin:miter;"/></g></g><g opacity="0.3"><clipPath id="_clip2"><rect x="1918.56" y="473.117" width="351.913" height="112.754" clip-rule="nonzero"/></clipPath><g clip-path="url(#_clip2)"><path d="M2267.8,583.787c-1.366,-5.471 -4.97,-13.975 -14.466,-20.883c-15.313,-11.138 -38.979,-4.175 -38.979,-4.175c1.391,-36.196 -23.667,-83.529 -75.176,-83.529c-51.508,-0 -64.037,41.762 -64.037,41.762c-0,0 -19.492,-23.667 -51.513,-11.133c-32.016,12.525 -33.408,54.291 -33.408,54.291c0,0 -20.883,-22.275 -43.158,-15.312c-18.442,5.762 -24.475,30.604 -26.004,38.979l346.741,0Z" style="fill:none;fill-rule:nonzero;stroke:#000;stroke-width:4.17px;stroke-linecap:butt;stroke-linejoin:miter;"/></g></g><g opacity="0.3"><clipPath id="_clip3"><rect x="153.907" y="245.771" width="351.91" height="112.754" clip-rule="nonzero"/></clipPath><g clip-path="url(#_clip3)"><path d="M503.148,356.441c-1.371,-5.471 -4.971,-13.975 -14.471,-20.883c-15.312,-11.138 -38.979,-4.175 -38.979,-4.175c1.392,-36.196 -23.663,-83.529 -75.175,-83.529c-51.508,-0 -64.038,41.762 -64.038,41.762c0,0 -19.491,-23.666 -51.508,-11.133c-32.021,12.525 -33.412,54.292 -33.412,54.292c-0,-0 -20.88,-22.275 -43.155,-15.313c-18.445,5.763 -24.475,30.604 -26.004,38.979l346.742,0Z" style="fill:none;fill-rule:nonzero;stroke:#000;stroke-width:4.17px;stroke-linecap:butt;stroke-linejoin:miter;"/></g></g><g opacity="0.3"><clipPath id="_clip4"><rect x="2326.52" y="212.667" width="676.329" height="214.35" clip-rule="nonzero"/></clipPath><g clip-path="url(#_clip4)"><path d="M3000.18,424.933c-2.654,-10.592 -9.625,-27.054 -28.004,-40.421c-29.641,-21.558 -75.45,-8.083 -75.45,-8.083c2.692,-70.063 -45.808,-161.679 -145.508,-161.679c-99.704,-0 -123.954,80.841 -123.954,80.841c-0,0 -37.729,-45.812 -99.704,-21.558c-61.975,24.25 -64.671,105.092 -64.671,105.092c-0,-0 -40.417,-43.113 -83.534,-29.642c-35.7,11.158 -47.375,59.237 -50.333,75.45l671.158,-0Z" style="fill:none;fill-rule:nonzero;stroke:#000;stroke-width:4.17px;stroke-linecap:butt;stroke-linejoin:miter;"/></g></g></g><g id="Building"><rect x="39.796" y="842.867" width="3045.41" height="603.229" style="fill:#5ae4a8;stroke:#1a2e35;stroke-width:4.17px;"/><rect x="39.796" y="1211.85" width="3045.41" height="234.242" style="fill:#fff;stroke:#1a2e35;stroke-width:4.17px;"/><rect x="39.796" y="842.867" width="3045.41" height="50.15" style="fill:#1a2e35;stroke:#1a2e35;stroke-width:4.17px;"/><rect x="39.796" y="792.338" width="3045.41" height="73.183" style="fill:#fff;stroke:#1a2e35;stroke-width:4.17px;"/><rect x="1186.8" y="271.383" width="751.392" height="603.233" style="fill:#1a2e35;stroke:#1a2e35;stroke-width:4.17px;"/><path d="M1633.31,419.996l137.92,-0l0,216.6l-137.921,-0l0,-216.6Zm-147.529,-0l137.921,-0l0,216.6l-137.921,-0l0,-216.6Zm-147.533,-0l137.921,-0l-0,216.6l-137.921,-0l0,-216.6Zm582.038,216.6l-139.446,-0l-0,-216.6l139.446,-0c2.654,-0 4.808,-2.154 4.808,-4.809c-0,-2.654 -2.154,-4.804 -4.808,-4.804l-139.446,0l-0,-142.725c-0,-2.654 -2.15,-4.808 -4.804,-4.808c-2.659,0 -4.809,2.154 -4.809,4.808l0,142.725l-137.917,0l0,-142.725c0,-2.654 -2.149,-4.808 -4.808,-4.808c-2.654,0 -4.804,2.154 -4.804,4.808l0,142.725l-137.917,0l0,-142.725c0,-2.654 -2.154,-4.808 -4.808,-4.808c-2.654,0 -4.808,2.154 -4.808,4.808l-0,142.725l-137.917,0l0,-142.725c0,-2.654 -2.15,-4.808 -4.808,-4.808c-2.655,0 -4.805,2.154 -4.805,4.808l0,142.725l-149.279,0c-2.654,0 -4.808,2.15 -4.808,4.804c-0,2.655 2.154,4.809 4.808,4.809l149.279,-0l0,216.6l-149.279,-0c-2.654,-0 -4.808,2.15 -4.808,4.808c-0,2.654 2.154,4.804 4.808,4.804l149.279,0l0,175.509c0,2.654 2.15,4.804 4.805,4.804c2.658,-0 4.808,-2.15 4.808,-4.804l0,-175.509l137.917,0l-0,175.509c-0,2.654 2.154,4.804 4.808,4.804c2.654,-0 4.808,-2.15 4.808,-4.804l0,-175.509l137.917,0l0,175.509c0,2.654 2.15,4.804 4.804,4.804c2.659,-0 4.808,-2.15 4.808,-4.804l0,-175.509l137.917,0l0,175.509c0,2.654 2.15,4.804 4.809,4.804c2.654,-0 4.804,-2.15 4.804,-4.804l-0,-175.509l139.446,0c2.654,0 4.808,-2.15 4.808,-4.804c-0,-2.658 -2.154,-4.808 -4.808,-4.808Z" style="fill:#fff;fill-rule:nonzero;stroke:#1a2e35;stroke-width:4.17px;"/><rect x="1133.89" y="303.133" width="82.021" height="571.483" style="fill:#5ae4a8;stroke:#1a2e35;stroke-width:4.17px;"/><rect x="1099.49" y="316.358" width="150.808" height="42.333" style="fill:#5ae4a8;stroke:#1a2e35;stroke-width:4.17px;"/><rect x="1879.99" y="303.133" width="82.021" height="571.483" style="fill:#5ae4a8;stroke:#1a2e35;stroke-width:4.17px;"/><rect x="1845.6" y="316.358" width="150.808" height="42.333" style="fill:#5ae4a8;stroke:#1a2e35;stroke-width:4.17px;"/><path d="M2009.63,363.985c-309.163,-84.579 -635.371,-84.579 -944.534,-0c-7.45,-27.221 -14.896,-63.029 -22.341,-90.254c323.791,-88.575 665.425,-88.575 989.216,-0c-7.45,27.225 -14.896,63.033 -22.341,90.254Z" style="fill:#fff;fill-rule:nonzero;stroke:#1a2e35;stroke-width:4.17px;"/><rect x="1186.8" y="842.867" width="751.392" height="603.229" style="fill:#cbcbcb;stroke:#1a2e35;stroke-width:4.17px;"/><rect x="1345.22" y="1064.33" width="434.571" height="381.771" style="fill:#e1e1e1;stroke:#1a2e35;stroke-width:4.17px;"/><rect x="1345.22" y="850.017" width="434.571" height="201.304" style="fill:#e1e1e1;stroke:#1a2e35;stroke-width:4.17px;"/><rect x="1133.89" y="874.612" width="82.021" height="571.483" style="fill:#5ae4a8;stroke:#1a2e35;stroke-width:4.17px;"/><rect x="1099.49" y="887.842" width="150.808" height="42.333" style="fill:#5ae4a8;stroke:#1a2e35;stroke-width:4.17px;"/><rect x="1879.99" y="874.612" width="82.021" height="571.483" style="fill:#5ae4a8;stroke:#1a2e35;stroke-width:4.17px;"/><rect x="1845.6" y="887.842" width="150.808" height="42.333" style="fill:#5ae4a8;stroke:#1a2e35;stroke-width:4.17px;"/><path d="M2009.63,935.468c-309.163,-84.58 -635.371,-84.58 -944.534,-0.001c-7.45,-27.22 -14.896,-63.029 -22.341,-90.254c323.791,-88.575 665.425,-88.575 989.216,0c-7.45,27.225 -14.896,63.034 -22.341,90.254Z" style="fill:#fff;fill-rule:nonzero;stroke:#1a2e35;stroke-width:4.17px;"/><path d="M2009.63,355.395c-309.163,-84.575 -635.371,-84.575 -944.534,0c-7.45,-27.22 -14.896,-54.441 -22.341,-81.662c323.791,-88.579 665.425,-88.579 989.216,-0c-7.45,27.221 -14.896,54.442 -22.341,81.662Z" style="fill:#fff;fill-rule:nonzero;stroke:#1a2e35;stroke-width:4.17px;"/><path d="M2009.63,926.88c-309.163,-84.579 -635.371,-84.579 -944.534,0c-7.45,-27.221 -14.895,-54.442 -22.341,-81.667c323.791,-88.575 665.425,-88.575 989.216,0c-7.45,27.225 -14.895,54.446 -22.341,81.667Z" style="fill:#fff;fill-rule:nonzero;stroke:#1a2e35;stroke-width:4.17px;"/><rect x="1377.3" y="1104.8" width="89.954" height="320.133" style="fill:#1a2e35;stroke:#1a2e35;stroke-width:4.17px;"/><rect x="1514.88" y="1104.8" width="89.954" height="320.133" style="fill:#1a2e35;stroke:#1a2e35;stroke-width:4.17px;"/><rect x="1652.46" y="1104.8" width="89.954" height="320.133" style="fill:#1a2e35;stroke:#1a2e35;stroke-width:4.17px;"/><rect x="1350.84" y="1274.12" width="423.321" height="15.875" style="fill:#e1e1e1;stroke:#1a2e35;stroke-width:4.17px;"/><rect x="1099.49" y="1369.22" width="132.804" height="76.879" style="fill:#fff;stroke:#1a2e35;stroke-width:4.17px;"/><rect x="1863.6" y="1369.22" width="132.8" height="76.879" style="fill:#fff;stroke:#1a2e35;stroke-width:4.17px;"/><rect x="601.488" y="981.092" width="314.004" height="295.958" style="fill:#1a2e35;stroke:#1a2e35;stroke-width:4.17px;"/><rect x="601.488" y="1195.93" width="314.004" height="14.625" style="fill:#fff;stroke:#1a2e35;stroke-width:4.17px;"/><rect x="743.213" y="981.092" width="30.563" height="295.958" style="fill:#fff;stroke:#1a2e35;stroke-width:4.17px;"/><rect x="171.992" y="981.092" width="314.004" height="295.958" style="fill:#1a2e35;stroke:#1a2e35;stroke-width:4.17px;"/><rect x="171.992" y="1195.93" width="314.004" height="14.625" style="fill:#fff;stroke:#1a2e35;stroke-width:4.17px;"/><rect x="313.713" y="981.092" width="30.562" height="295.958" style="fill:#fff;stroke:#1a2e35;stroke-width:4.17px;"/><rect x="2619.06" y="981.092" width="314" height="295.958" style="fill:#1a2e35;stroke:#1a2e35;stroke-width:4.17px;"/><rect x="2619.06" y="1195.93" width="314" height="14.625" style="fill:#fff;stroke:#1a2e35;stroke-width:4.17px;"/><rect x="2760.77" y="981.092" width="30.567" height="295.958" style="fill:#fff;stroke:#1a2e35;stroke-width:4.17px;"/><rect x="2189.56" y="981.092" width="314" height="295.958" style="fill:#1a2e35;stroke:#1a2e35;stroke-width:4.17px;"/><rect x="2189.56" y="1195.93" width="314" height="14.625" style="fill:#fff;stroke:#1a2e35;stroke-width:4.17px;"/><rect x="2331.28" y="981.092" width="30.563" height="295.958" style="fill:#fff;stroke:#1a2e35;stroke-width:4.17px;"/></g><g id="Trees"><path d="M544.688,211.885c-222.512,0.363 -402.783,171.684 -402.783,382.988c0,1.058 0.004,2.112 0.013,3.167c0.991,114.945 96.583,207.291 211.495,204.425c17.85,-0.446 36.884,0.47 55.921,3.541c38.084,6.142 67.567,28.484 87.554,54.304c11.042,14.263 27.638,23.271 45.68,23.338c0.704,0.004 1.412,0.004 2.12,0.004c0.709,0 1.417,0 2.125,-0.004c18.038,-0.067 34.634,-9.075 45.675,-23.338c19.988,-25.82 49.471,-48.162 87.555,-54.304c19.037,-3.071 38.07,-3.987 55.92,-3.541c114.913,2.866 210.509,-89.48 211.496,-204.425c0.009,-1.055 0.013,-2.109 0.013,-3.167c-0,-211.304 -180.271,-382.625 -402.784,-382.988" style="fill:#5ae4a8;fill-rule:nonzero;"/><g opacity="0.3"><path d="M544.688,211.885c-222.512,0.363 -402.783,171.684 -402.783,382.988c0,1.058 0.004,2.112 0.013,3.167c0.991,114.945 96.583,207.291 211.495,204.425c17.85,-0.446 36.884,0.47 55.921,3.541c38.084,6.142 67.567,28.484 87.554,54.304c11.042,14.263 27.638,23.271 45.68,23.338c0.704,0.004 1.412,0.004 2.12,0.004c0.709,0 1.417,0 2.125,-0.004c18.038,-0.067 34.634,-9.075 45.675,-23.338c19.988,-25.82 49.471,-48.162 87.555,-54.304c19.037,-3.071 38.07,-3.987 55.92,-3.541c114.913,2.866 210.509,-89.48 211.496,-204.425c0.009,-1.055 0.013,-2.109 0.013,-3.167c-0,-211.304 -180.271,-382.625 -402.784,-382.988" style="fill:#fff;fill-rule:nonzero;"/></g><path d="M474.94,548.37c-0,0 -7.967,-22.758 -25.034,-30.725c-17.066,-7.962 -28.446,-10.237 -28.446,-10.237c0,-0 9.105,46.65 53.48,40.962" style="fill:#fff;fill-rule:nonzero;"/><path d="M495.551,487.885c0,-0 -1.308,-24.075 -15.483,-36.48c-14.175,-12.4 -24.471,-17.758 -24.471,-17.758c0,0 -4.25,47.342 39.954,54.238" style="fill:#fff;fill-rule:nonzero;"/><path d="M685.198,672.229c-0,0 -15.271,-18.658 -34.03,-20.304c-18.762,-1.646 -30.233,0.108 -30.233,0.108c0,0 24.508,40.721 64.263,20.196" style="fill:#fff;fill-rule:nonzero;"/><path d="M765.853,716.929c0,0 -15.271,-18.662 -34.029,-20.308c-18.762,-1.642 -30.233,0.108 -30.233,0.108c-0,0 24.508,40.725 64.262,20.2" style="fill:#fff;fill-rule:nonzero;"/><path d="M387.222,666.528c-0,0 15.271,-18.658 34.029,-20.304c18.762,-1.646 30.233,0.109 30.233,0.109c0,-0 -24.508,40.72 -64.262,20.195" style="fill:#fff;fill-rule:nonzero;"/><path d="M274.7,700.547c-0,0 15.27,-18.658 34.029,-20.304c18.762,-1.65 30.233,0.108 30.233,0.108c0,0 -24.508,40.721 -64.262,20.196" style="fill:#fff;fill-rule:nonzero;"/><path d="M428.418,467.403c0,0 -1.308,-24.075 -15.483,-36.479c-14.175,-12.4 -24.471,-17.758 -24.471,-17.758c0,-0 -4.25,47.342 39.954,54.237" style="fill:#fff;fill-rule:nonzero;"/><path d="M362.651,387.055c0,-0 -1.308,-24.075 -15.483,-36.48c-14.175,-12.4 -24.467,-17.758 -24.467,-17.758c0,0 -4.254,47.342 39.95,54.238" style="fill:#fff;fill-rule:nonzero;"/><path d="M651.435,481.057c0,-0 1.313,-24.075 15.483,-36.475c14.175,-12.404 24.471,-17.763 24.471,-17.763c0,0 4.25,47.342 -39.954,54.238" style="fill:#fff;fill-rule:nonzero;"/><path d="M732.555,436.572c-0,0 1.312,-24.075 15.487,-36.479c14.171,-12.4 24.467,-17.758 24.467,-17.758c-0,-0 4.25,47.341 -39.954,54.237" style="fill:#fff;fill-rule:nonzero;"/><path d="M540.408,450.088c-0,-0 13.904,-19.7 10.479,-38.217c-3.429,-18.521 -8.183,-29.108 -8.183,-29.108c-0,-0 -32.692,34.5 -2.296,67.325" style="fill:#fff;fill-rule:nonzero;"/><path d="M555.893,540.725c-0,-0 2.258,-24.005 -9.93,-38.367c-12.187,-14.358 -21.579,-21.175 -21.579,-21.175c0,-0 -11.196,46.192 31.508,59.542" style="fill:#fff;fill-rule:nonzero;"/><path d="M498.623,431.069c0,-0 7.2,-23.013 -1.737,-39.592c-8.933,-16.579 -16.7,-25.2 -16.7,-25.2c-0,0 -20.554,42.858 18.437,64.792" style="fill:#fff;fill-rule:nonzero;"/><path d="M498.623,339.48c0,-0 7.2,-23.009 -1.737,-39.588c-8.933,-16.583 -16.7,-25.204 -16.7,-25.204c-0,-0 -20.554,42.858 18.437,64.792" style="fill:#fff;fill-rule:nonzero;"/><path d="M516.828,609.709c-0,-0 7.2,-23.009 -1.738,-39.592c-8.933,-16.579 -16.7,-25.2 -16.7,-25.2c0,0 -20.554,42.858 18.438,64.792" style="fill:#fff;fill-rule:nonzero;"/><path d="M570.763,582.684c-0,0 20.366,-12.904 24.262,-31.333c3.9,-18.425 3.542,-30.025 3.542,-30.025c-0,-0 -43.384,19.421 -27.805,61.358" style="fill:#fff;fill-rule:nonzero;"/><path d="M573.184,431.069c-0,-0 -7.2,-23.013 1.737,-39.592c8.934,-16.579 16.7,-25.2 16.7,-25.2c0,0 20.554,42.858 -18.437,64.792" style="fill:#fff;fill-rule:nonzero;"/><path d="M648.979,353.532c0,0 -7.2,-23.008 1.738,-39.592c8.933,-16.579 16.7,-25.2 16.7,-25.2c-0,0 20.554,42.859 -18.438,64.792" style="fill:#fff;fill-rule:nonzero;"/><path d="M601.578,488.916c-0,-0 20.312,-12.984 24.141,-31.425c3.825,-18.442 3.425,-30.038 3.425,-30.038c0,0 -43.308,19.584 -27.566,61.463" style="fill:#fff;fill-rule:nonzero;"/><path d="M656.367,551.935c-0,0 23.337,-6.05 32.691,-22.4c9.35,-16.346 12.563,-27.5 12.563,-27.5c-0,0 -47.246,5.204 -45.254,49.9" style="fill:#fff;fill-rule:nonzero;"/><path d="M661.605,608.218c0,-0 21.892,10.1 39.488,3.37c17.587,-6.729 27.137,-13.325 27.137,-13.325c0,0 -39.858,-25.895 -66.625,9.955" style="fill:#fff;fill-rule:nonzero;"/><path d="M692.326,557.015c0,0 21.892,10.1 39.488,3.371c17.587,-6.729 27.137,-13.325 27.137,-13.325c0,-0 -39.862,-25.896 -66.625,9.954" style="fill:#fff;fill-rule:nonzero;"/><path d="M789.171,561.786c-0,-0 21.896,10.096 39.487,3.366c17.592,-6.729 27.138,-13.325 27.138,-13.325c-0,0 -39.858,-25.891 -66.625,9.959" style="fill:#fff;fill-rule:nonzero;"/><path d="M385.824,589.724c0,-0 14.709,19.104 33.417,21.308c18.704,2.2 30.221,0.788 30.221,0.788c-0,-0 -23.292,-41.434 -63.638,-22.096" style="fill:#fff;fill-rule:nonzero;"/><path d="M338.037,523.73c0,0 14.709,19.105 33.413,21.305c18.704,2.204 30.221,0.791 30.221,0.791c-0,0 -23.292,-41.433 -63.634,-22.096" style="fill:#fff;fill-rule:nonzero;"/><path d="M225.513,510.647c0,-0 14.709,19.104 33.417,21.304c18.704,2.204 30.221,0.791 30.221,0.791c-0,0 -23.292,-41.433 -63.638,-22.095" style="fill:#fff;fill-rule:nonzero;"/><path d="M684.018,682.56l-89.096,19.267l106.321,-132.471l-145.196,135.35l-0.896,9.379l-6.488,-142.27l-10.25,224.716l-143.171,-133.462l106.325,132.466l-89.095,-19.262l112.629,48.587l11.375,14.167l-19.804,743.513l63.983,-0l-23.896,-833.175l14.625,-18.217l112.634,-48.588Z" style="fill:#1a2e35;fill-rule:nonzero;"/><path d="M2514.14,474.707c-176.087,0.283 -318.741,135.858 -318.741,303.071c-0,0.837 0.004,1.675 0.012,2.508c0.779,90.959 76.429,164.038 167.367,161.771c14.121,-0.35 29.187,0.371 44.25,2.8c30.137,4.863 53.467,22.542 69.283,42.971c8.742,11.292 21.871,18.421 36.15,18.471c0.554,0.004 1.117,0.004 1.679,0.004c0.563,-0 1.121,-0 1.68,-0.004c14.275,-0.05 27.408,-7.179 36.145,-18.471c15.817,-20.429 39.15,-38.108 69.284,-42.971c15.066,-2.429 30.129,-3.15 44.254,-2.8c90.933,2.267 166.583,-70.812 167.362,-161.771c0.009,-0.833 0.013,-1.671 0.013,-2.508c-0,-167.213 -142.654,-302.788 -318.738,-303.071" style="fill:#5ae4a8;fill-rule:nonzero;"/><g opacity="0.3"><path d="M2514.14,474.707c-176.087,0.283 -318.741,135.858 -318.741,303.071c-0,0.837 0.004,1.675 0.012,2.508c0.779,90.959 76.429,164.038 167.367,161.771c14.121,-0.35 29.187,0.371 44.25,2.8c30.137,4.863 53.467,22.542 69.283,42.971c8.742,11.292 21.871,18.421 36.15,18.471c0.554,0.004 1.117,0.004 1.679,0.004c0.563,-0 1.121,-0 1.68,-0.004c14.275,-0.05 27.408,-7.179 36.145,-18.471c15.817,-20.429 39.15,-38.108 69.284,-42.971c15.066,-2.429 30.129,-3.15 44.254,-2.8c90.933,2.267 166.583,-70.812 167.362,-161.771c0.009,-0.833 0.013,-1.671 0.013,-2.508c-0,-167.213 -142.654,-302.788 -318.738,-303.071" style="fill:#fff;fill-rule:nonzero;"/></g><path d="M2458.94,740.979c0,0 -6.304,-18.008 -19.812,-24.308c-13.505,-6.304 -22.509,-8.104 -22.509,-8.104c0,-0 7.204,36.916 42.321,32.412" style="fill:#fff;fill-rule:nonzero;"/><path d="M2475.25,693.115c-0,0 -1.038,-19.05 -12.25,-28.866c-11.221,-9.817 -19.367,-14.054 -19.367,-14.054c0,-0 -3.362,37.462 31.617,42.92" style="fill:#fff;fill-rule:nonzero;"/><path d="M2625.33,838.995c0,0 -12.083,-14.766 -26.929,-16.066c-14.846,-1.304 -23.925,0.083 -23.925,0.083c-0,0 19.396,32.225 50.854,15.983" style="fill:#fff;fill-rule:nonzero;"/><path d="M2689.16,874.367c-0,0 -12.084,-14.767 -26.934,-16.067c-14.841,-1.304 -23.921,0.084 -23.921,0.084c0,-0 19.396,32.225 50.855,15.983" style="fill:#fff;fill-rule:nonzero;"/><path d="M2389.53,834.483c0,-0 12.083,-14.763 26.933,-16.067c14.846,-1.304 23.925,0.088 23.925,0.088c0,-0 -19.395,32.221 -50.858,15.979" style="fill:#fff;fill-rule:nonzero;"/><path d="M2300.49,861.403c-0,0 12.083,-14.762 26.933,-16.066c14.842,-1.304 23.921,0.083 23.921,0.083c-0,0 -19.396,32.225 -50.854,15.983" style="fill:#fff;fill-rule:nonzero;"/><path d="M2422.13,676.908c-0,0 -1.042,-19.05 -12.255,-28.866c-11.22,-9.817 -19.366,-14.055 -19.366,-14.055c-0,0 -3.363,37.463 31.621,42.921" style="fill:#fff;fill-rule:nonzero;"/><path d="M2370.09,613.324c0,0 -1.037,-19.05 -12.254,-28.867c-11.217,-9.816 -19.363,-14.05 -19.363,-14.05c0,0 -3.366,37.459 31.617,42.917" style="fill:#fff;fill-rule:nonzero;"/><path d="M2598.61,687.712c-0,-0 1.037,-19.05 12.25,-28.867c11.221,-9.813 19.367,-14.05 19.367,-14.05c-0,-0 3.362,37.458 -31.617,42.917" style="fill:#fff;fill-rule:nonzero;"/><path d="M2662.81,652.509c-0,-0 1.037,-19.05 12.254,-28.867c11.217,-9.812 19.363,-14.05 19.363,-14.05c-0,0 3.366,37.458 -31.617,42.917" style="fill:#fff;fill-rule:nonzero;"/><path d="M2510.75,663.204c-0,-0 11.004,-15.588 8.291,-30.242c-2.708,-14.658 -6.47,-23.033 -6.47,-23.033c-0,-0 -25.875,27.3 -1.821,53.275" style="fill:#fff;fill-rule:nonzero;"/><path d="M2523.01,734.93c-0,0 1.787,-18.995 -7.859,-30.362c-9.641,-11.363 -17.075,-16.758 -17.075,-16.758c0,-0 -8.858,36.558 24.934,47.12" style="fill:#fff;fill-rule:nonzero;"/><path d="M2477.69,648.155c0,-0 5.696,-18.209 -1.375,-31.33c-7.066,-13.12 -13.216,-19.941 -13.216,-19.941c-0,-0 -16.267,33.912 14.591,51.271" style="fill:#fff;fill-rule:nonzero;"/><path d="M2477.69,575.678c0,-0 5.696,-18.213 -1.375,-31.334c-7.066,-13.117 -13.216,-19.937 -13.216,-19.937c-0,-0 -16.267,33.912 14.591,51.27" style="fill:#fff;fill-rule:nonzero;"/><path d="M2492.09,789.518c0,0 5.7,-18.208 -1.37,-31.329c-7.071,-13.121 -13.221,-19.942 -13.221,-19.942c-0,0 -16.263,33.913 14.591,51.271" style="fill:#fff;fill-rule:nonzero;"/><path d="M2534.77,768.135c0,0 16.117,-10.212 19.2,-24.795c3.088,-14.584 2.804,-23.759 2.804,-23.759c0,0 -34.329,15.367 -22.004,48.554" style="fill:#fff;fill-rule:nonzero;"/><path d="M2536.69,648.155c-0,-0 -5.696,-18.209 1.375,-31.33c7.071,-13.12 13.216,-19.941 13.216,-19.941c0,-0 16.267,33.912 -14.591,51.271" style="fill:#fff;fill-rule:nonzero;"/><path d="M2596.67,586.796c-0,0 -5.696,-18.208 1.375,-31.329c7.067,-13.121 13.217,-19.942 13.217,-19.942c-0,0 16.262,33.913 -14.592,51.271" style="fill:#fff;fill-rule:nonzero;"/><path d="M2559.16,693.931c-0,0 16.075,-10.275 19.104,-24.866c3.029,-14.596 2.708,-23.771 2.708,-23.771c0,-0 -34.266,15.496 -21.812,48.637" style="fill:#fff;fill-rule:nonzero;"/><path d="M2602.51,743.801c0,-0 18.471,-4.788 25.871,-17.725c7.396,-12.938 9.942,-21.763 9.942,-21.763c-0,0 -37.388,4.117 -35.813,39.488" style="fill:#fff;fill-rule:nonzero;"/><path d="M2606.66,788.34c-0,0 17.325,7.992 31.246,2.667c13.92,-5.325 21.475,-10.546 21.475,-10.546c-0,0 -31.542,-20.491 -52.721,7.879" style="fill:#fff;fill-rule:nonzero;"/><path d="M2630.97,747.821c-0,0 17.325,7.992 31.245,2.667c13.925,-5.325 21.475,-10.546 21.475,-10.546c0,0 -31.537,-20.492 -52.72,7.879" style="fill:#fff;fill-rule:nonzero;"/><path d="M2707.61,751.595c-0,0 17.325,7.992 31.245,2.667c13.921,-5.325 21.475,-10.546 21.475,-10.546c0,-0 -31.541,-20.492 -52.72,7.879" style="fill:#fff;fill-rule:nonzero;"/><path d="M2388.42,773.704c0,0 11.638,15.117 26.442,16.863c14.8,1.741 23.917,0.625 23.917,0.625c-0,-0 -18.434,-32.788 -50.359,-17.488" style="fill:#fff;fill-rule:nonzero;"/><path d="M2350.61,721.48c-0,0 11.637,15.117 26.441,16.863c14.8,1.742 23.917,0.625 23.917,0.625c0,-0 -18.433,-32.788 -50.358,-17.488" style="fill:#fff;fill-rule:nonzero;"/><path d="M2261.57,711.127c-0,-0 11.637,15.116 26.441,16.862c14.8,1.742 23.917,0.625 23.917,0.625c-0,0 -18.433,-32.787 -50.358,-17.487" style="fill:#fff;fill-rule:nonzero;"/><path d="M2624.39,847.17l-70.504,15.246l84.133,-104.829l-114.9,107.112l-0.704,7.421l-5.133,-112.587l-8.113,177.829l-113.296,-105.617l84.138,104.829l-70.504,-15.246l89.125,38.45l9.004,11.213l-15.671,588.371l50.633,-0l-18.908,-659.325l11.571,-14.417l89.129,-38.45Z" style="fill:#1a2e35;fill-rule:nonzero;"/><path d="M2880.63,907.792c-105.779,0.175 -191.471,81.613 -191.471,182.058c0,0.505 0.004,1.013 0.008,1.513c0.467,54.637 45.909,98.537 100.538,97.175c8.483,-0.213 17.533,0.225 26.583,1.683c18.1,2.917 32.117,13.538 41.617,25.817c5.254,6.775 13.137,11.062 21.717,11.092c0.333,-0 0.67,0.004 1.008,0.004c0.337,-0 0.671,-0.004 1.008,-0.004c8.579,-0.03 16.463,-4.317 21.713,-11.092c9.5,-12.279 23.521,-22.9 41.621,-25.817c9.05,-1.458 18.1,-1.896 26.583,-1.683c54.629,1.362 100.071,-42.538 100.537,-97.175c0.005,-0.5 0.009,-1.008 0.009,-1.513c-0,-100.445 -85.692,-181.883 -191.471,-182.058" style="fill:#5ae4a8;fill-rule:nonzero;"/><g opacity="0.3"><path d="M2880.63,907.792c-105.779,0.175 -191.471,81.613 -191.471,182.058c0,0.505 0.004,1.013 0.008,1.513c0.467,54.637 45.909,98.537 100.538,97.175c8.483,-0.213 17.533,0.225 26.583,1.683c18.1,2.917 32.117,13.538 41.617,25.817c5.254,6.775 13.137,11.062 21.717,11.092c0.333,-0 0.67,0.004 1.008,0.004c0.337,-0 0.671,-0.004 1.008,-0.004c8.579,-0.03 16.463,-4.317 21.713,-11.092c9.5,-12.279 23.521,-22.9 41.621,-25.817c9.05,-1.458 18.1,-1.896 26.583,-1.683c54.629,1.362 100.071,-42.538 100.537,-97.175c0.005,-0.5 0.009,-1.008 0.009,-1.513c-0,-100.445 -85.692,-181.883 -191.471,-182.058" style="fill:#fff;fill-rule:nonzero;"/></g><path d="M2847.47,1067.75c-0,0 -3.784,-10.821 -11.896,-14.604c-8.117,-3.787 -13.529,-4.871 -13.529,-4.871c-0,0 4.333,22.175 25.425,19.475" style="fill:#fff;fill-rule:nonzero;"/><path d="M2857.27,1038.99c-0,0 -0.621,-11.445 -7.363,-17.341c-6.737,-5.896 -11.629,-8.438 -11.629,-8.438c0,0 -2.021,22.5 18.992,25.779" style="fill:#fff;fill-rule:nonzero;"/><path d="M2947.42,1126.63c-0,-0 -7.258,-8.871 -16.179,-9.65c-8.917,-0.788 -14.371,0.045 -14.371,0.045c-0,0 11.654,19.363 30.55,9.605" style="fill:#fff;fill-rule:nonzero;"/><path d="M2985.76,1147.88c-0,-0 -7.258,-8.871 -16.179,-9.65c-8.917,-0.788 -14.371,0.046 -14.371,0.046c-0,-0 11.654,19.362 30.55,9.604" style="fill:#fff;fill-rule:nonzero;"/><path d="M2805.78,1123.92c-0,-0.001 7.254,-8.871 16.175,-9.65c8.916,-0.788 14.37,0.045 14.37,0.045c0,0 -11.65,19.363 -30.545,9.604" style="fill:#fff;fill-rule:nonzero;"/><path d="M2752.28,1140.09c0,-0 7.259,-8.871 16.18,-9.65c8.916,-0.783 14.37,0.05 14.37,0.05c0,-0 -11.654,19.358 -30.55,9.6" style="fill:#fff;fill-rule:nonzero;"/><path d="M2825.36,1029.26c-0,0 -0.625,-11.446 -7.367,-17.341c-6.737,-5.896 -11.629,-8.438 -11.629,-8.438c-0,0 -2.021,22.5 18.996,25.779" style="fill:#fff;fill-rule:nonzero;"/><path d="M2794.09,991.062c0,0 -0.62,-11.445 -7.362,-17.341c-6.738,-5.896 -11.633,-8.438 -11.633,-8.438c-0,0 -2.017,22.5 18.995,25.779" style="fill:#fff;fill-rule:nonzero;"/><path d="M2931.37,1035.75c-0,0 0.62,-11.446 7.362,-17.341c6.738,-5.896 11.629,-8.438 11.629,-8.438c0,0 2.021,22.5 -18.991,25.779" style="fill:#fff;fill-rule:nonzero;"/><path d="M2969.93,1014.6c-0,-0 0.62,-11.446 7.362,-17.342c6.738,-5.896 11.633,-8.437 11.633,-8.437c0,-0 2.017,22.5 -18.995,25.779" style="fill:#fff;fill-rule:nonzero;"/><path d="M2878.59,1021.03c0,-0 6.609,-9.363 4.979,-18.167c-1.625,-8.804 -3.887,-13.837 -3.887,-13.837c0,-0 -15.542,16.399 -1.092,32.004" style="fill:#fff;fill-rule:nonzero;"/><path d="M2885.95,1064.11c0,0 1.075,-11.408 -4.721,-18.237c-5.791,-6.825 -10.258,-10.063 -10.258,-10.063c0,0 -5.321,21.959 14.979,28.3" style="fill:#fff;fill-rule:nonzero;"/><path d="M2858.73,1011.99c0,0 3.421,-10.937 -0.825,-18.82c-4.245,-7.88 -7.941,-11.98 -7.941,-11.98c-0,0 -9.767,20.375 8.766,30.8" style="fill:#fff;fill-rule:nonzero;"/><path d="M2858.73,968.447c0,-0 3.421,-10.938 -0.825,-18.821c-4.245,-7.879 -7.941,-11.979 -7.941,-11.979c-0,-0 -9.767,20.375 8.766,30.8" style="fill:#fff;fill-rule:nonzero;"/><path d="M2867.38,1096.91c0,0 3.421,-10.941 -0.825,-18.824c-4.25,-7.88 -7.941,-11.98 -7.941,-11.98c-0,0 -9.767,20.375 8.766,30.804" style="fill:#fff;fill-rule:nonzero;"/><path d="M2893.02,1084.06c0,-0 9.679,-6.138 11.538,-14.896c1.85,-8.763 1.679,-14.275 1.679,-14.275c-0,-0 -20.621,9.233 -13.217,29.171" style="fill:#fff;fill-rule:nonzero;"/><path d="M2894.17,1011.99c-0,0 -3.421,-10.937 0.825,-18.82c4.25,-7.88 7.941,-11.98 7.941,-11.98c0,0 9.767,20.375 -8.766,30.8" style="fill:#fff;fill-rule:nonzero;"/><path d="M2930.2,975.126c-0,0 -3.421,-10.937 0.825,-18.821c4.25,-7.879 7.941,-11.979 7.941,-11.979c0,0 9.767,20.375 -8.766,30.8" style="fill:#fff;fill-rule:nonzero;"/><path d="M2907.67,1039.49c0,-0 9.655,-6.171 11.475,-14.938c1.821,-8.766 1.634,-14.283 1.634,-14.283c-0,0 -20.592,9.313 -13.109,29.221" style="fill:#fff;fill-rule:nonzero;"/><path d="M2933.72,1069.44c0,-0 11.092,-2.875 15.538,-10.65c4.45,-7.771 5.975,-13.071 5.975,-13.071c-0,-0 -22.459,2.475 -21.513,23.721" style="fill:#fff;fill-rule:nonzero;"/><path d="M2936.21,1096.19c-0,0 10.408,4.8 18.771,1.605c8.362,-3.2 12.899,-6.338 12.899,-6.338c0.001,0 -18.945,-12.308 -31.67,4.733" style="fill:#fff;fill-rule:nonzero;"/><path d="M2950.81,1071.86c0,-0 10.409,4.796 18.771,1.6c8.363,-3.2 12.9,-6.334 12.9,-6.334c0,0 -18.946,-12.312 -31.671,4.734" style="fill:#fff;fill-rule:nonzero;"/><path d="M2996.85,1074.12c0,0 10.408,4.8 18.771,1.6c8.362,-3.2 12.904,-6.333 12.904,-6.333c0,-0 -18.95,-12.309 -31.675,4.733" style="fill:#fff;fill-rule:nonzero;"/><path d="M2805.11,1087.41c0,0 6.996,9.084 15.888,10.129c8.887,1.046 14.366,0.375 14.366,0.375c0,0 -11.071,-19.695 -30.254,-10.504" style="fill:#fff;fill-rule:nonzero;"/><path d="M2782.39,1056.03c0,0 6.996,9.083 15.888,10.129c8.887,1.046 14.366,0.375 14.366,0.375c0,0 -11.071,-19.696 -30.254,-10.504" style="fill:#fff;fill-rule:nonzero;"/><path d="M2728.9,1049.81c0,-0 6.992,9.083 15.884,10.133c8.891,1.046 14.366,0.371 14.366,0.371c0,0 -11.07,-19.696 -30.25,-10.504" style="fill:#fff;fill-rule:nonzero;"/><path d="M2946.86,1131.54l-42.354,9.154l50.546,-62.971l-69.025,64.342l-0.425,4.462l-3.083,-67.633l-4.871,106.825l-68.059,-63.45l50.542,62.975l-42.354,-9.158l53.542,23.095l5.404,6.738l-9.413,353.446l30.417,-0l-11.363,-396.071l6.955,-8.658l53.541,-23.096Z" style="fill:#1a2e35;fill-rule:nonzero;"/><path d="M324.398,907.792c-105.775,0.175 -191.471,81.613 -191.471,182.058c0,0.505 0,1.013 0.005,1.513c0.47,54.637 45.912,98.537 100.541,97.175c8.484,-0.213 17.534,0.225 26.584,1.683c18.104,2.917 32.116,13.538 41.616,25.817c5.25,6.775 13.142,11.062 21.717,11.092c0.333,-0 0.671,0.004 1.008,0.004c0.338,-0 0.675,-0.004 1.009,-0.004c8.575,-0.03 16.466,-4.317 21.716,-11.092c9.5,-12.279 23.513,-22.9 41.617,-25.817c9.05,-1.458 18.1,-1.896 26.583,-1.683c54.629,1.362 100.071,-42.538 100.542,-97.175c0.004,-0.5 0.004,-1.008 0.004,-1.513c0,-100.445 -85.696,-181.883 -191.471,-182.058" style="fill:#5ae4a8;fill-rule:nonzero;"/><g opacity="0.3"><path d="M324.398,907.792c-105.775,0.175 -191.471,81.613 -191.471,182.058c0,0.505 0,1.013 0.005,1.513c0.47,54.637 45.912,98.537 100.541,97.175c8.484,-0.213 17.534,0.225 26.584,1.683c18.104,2.917 32.116,13.538 41.616,25.817c5.25,6.775 13.142,11.062 21.717,11.092c0.333,-0 0.671,0.004 1.008,0.004c0.338,-0 0.675,-0.004 1.009,-0.004c8.575,-0.03 16.466,-4.317 21.716,-11.092c9.5,-12.279 23.513,-22.9 41.617,-25.817c9.05,-1.458 18.1,-1.896 26.583,-1.683c54.629,1.362 100.071,-42.538 100.542,-97.175c0.004,-0.5 0.004,-1.008 0.004,-1.513c0,-100.445 -85.696,-181.883 -191.471,-182.058" style="fill:#fff;fill-rule:nonzero;"/></g><path d="M291.242,1067.75c0,0 -3.787,-10.821 -11.9,-14.604c-8.112,-3.787 -13.525,-4.871 -13.525,-4.871c0,0 4.329,22.175 25.425,19.475" style="fill:#fff;fill-rule:nonzero;"/><path d="M301.04,1038.99c0,0 -0.621,-11.445 -7.362,-17.341c-6.738,-5.896 -11.63,-8.438 -11.63,-8.438c0,0 -2.02,22.5 18.992,25.779" style="fill:#fff;fill-rule:nonzero;"/><path d="M391.193,1126.63c0,-0 -7.258,-8.871 -16.179,-9.65c-8.917,-0.788 -14.371,0.045 -14.371,0.045c0,0 11.65,19.363 30.55,9.605" style="fill:#fff;fill-rule:nonzero;"/><path d="M429.533,1147.88c0,-0 -7.258,-8.871 -16.175,-9.65c-8.921,-0.788 -14.375,0.046 -14.375,0.046c0,-0 11.655,19.362 30.55,9.604" style="fill:#fff;fill-rule:nonzero;"/><path d="M249.543,1123.92c-0,-0.001 7.258,-8.871 16.179,-9.65c8.917,-0.788 14.371,0.045 14.371,0.045c-0,0 -11.65,19.363 -30.55,9.604" style="fill:#fff;fill-rule:nonzero;"/><path d="M196.054,1140.09c-0,-0 7.258,-8.871 16.179,-9.65c8.917,-0.783 14.371,0.05 14.371,0.05c-0,-0 -11.654,19.358 -30.55,9.6" style="fill:#fff;fill-rule:nonzero;"/><path d="M269.127,1029.26c0,0 -0.621,-11.446 -7.362,-17.341c-6.738,-5.896 -11.63,-8.438 -11.63,-8.438c0,0 -2.02,22.5 18.992,25.779" style="fill:#fff;fill-rule:nonzero;"/><path d="M237.863,991.062c-0,0 -0.621,-11.445 -7.363,-17.341c-6.737,-5.896 -11.629,-8.438 -11.629,-8.438c0,0 -2.021,22.5 18.992,25.779" style="fill:#fff;fill-rule:nonzero;"/><path d="M375.143,1035.75c-0,0 0.621,-11.446 7.362,-17.341c6.738,-5.896 11.63,-8.438 11.63,-8.438c-0,0 2.02,22.5 -18.992,25.779" style="fill:#fff;fill-rule:nonzero;"/><path d="M413.705,1014.6c0,-0 0.621,-11.446 7.363,-17.342c6.737,-5.896 11.629,-8.437 11.629,-8.437c-0,-0 2.021,22.5 -18.992,25.779" style="fill:#fff;fill-rule:nonzero;"/><path d="M322.364,1021.03c-0,-0 6.608,-9.363 4.979,-18.167c-1.625,-8.804 -3.888,-13.837 -3.888,-13.837c0,-0 -15.541,16.399 -1.091,32.004" style="fill:#fff;fill-rule:nonzero;"/><path d="M329.725,1064.11c-0,0 1.075,-11.408 -4.721,-18.237c-5.792,-6.825 -10.254,-10.063 -10.254,-10.063c-0,0 -5.325,21.959 14.975,28.3" style="fill:#fff;fill-rule:nonzero;"/><path d="M302.501,1011.99c-0,0 3.421,-10.937 -0.825,-18.82c-4.25,-7.88 -7.942,-11.98 -7.942,-11.98c0,0 -9.771,20.375 8.767,30.8" style="fill:#fff;fill-rule:nonzero;"/><path d="M302.501,968.447c-0,-0 3.421,-10.938 -0.825,-18.821c-4.25,-7.879 -7.942,-11.979 -7.942,-11.979c0,-0 -9.771,20.375 8.767,30.8" style="fill:#fff;fill-rule:nonzero;"/><path d="M311.154,1096.91c-0,0 3.425,-10.941 -0.825,-18.824c-4.246,-7.88 -7.942,-11.98 -7.942,-11.98c0,0 -9.771,20.375 8.767,30.804" style="fill:#fff;fill-rule:nonzero;"/><path d="M336.793,1084.06c-0,-0 9.683,-6.138 11.537,-14.896c1.85,-8.763 1.679,-14.275 1.679,-14.275c0,-0 -20.621,9.233 -13.216,29.171" style="fill:#fff;fill-rule:nonzero;"/><path d="M337.944,1011.99c0,0 -3.421,-10.937 0.825,-18.82c4.246,-7.88 7.942,-11.98 7.942,-11.98c-0,0 9.771,20.375 -8.767,30.8" style="fill:#fff;fill-rule:nonzero;"/><path d="M373.975,975.126c0,0 -3.421,-10.937 0.825,-18.821c4.246,-7.879 7.942,-11.979 7.942,-11.979c-0,0 9.771,20.375 -8.767,30.8" style="fill:#fff;fill-rule:nonzero;"/><path d="M351.441,1039.49c-0,-0 9.658,-6.171 11.475,-14.938c1.821,-8.766 1.629,-14.283 1.629,-14.283c-0,0 -20.588,9.313 -13.104,29.221" style="fill:#fff;fill-rule:nonzero;"/><path d="M377.487,1069.44c-0,-0 11.096,-2.875 15.541,-10.65c4.446,-7.771 5.971,-13.071 5.971,-13.071c0,-0 -22.458,2.475 -21.512,23.721" style="fill:#fff;fill-rule:nonzero;"/><path d="M379.977,1096.19c0,0 10.408,4.8 18.771,1.605c8.362,-3.2 12.9,-6.338 12.9,-6.338c-0,0 -18.946,-12.308 -31.671,4.733" style="fill:#fff;fill-rule:nonzero;"/><path d="M394.581,1071.86c-0,-0 10.408,4.796 18.771,1.6c8.362,-3.2 12.9,-6.334 12.9,-6.334c-0,0 -18.946,-12.312 -31.671,4.734" style="fill:#fff;fill-rule:nonzero;"/><path d="M440.62,1074.12c-0,0 10.408,4.8 18.77,1.6c8.363,-3.2 12.9,-6.333 12.9,-6.333c0,-0 -18.95,-12.309 -31.67,4.733" style="fill:#fff;fill-rule:nonzero;"/><path d="M248.88,1087.41c-0,0 6.991,9.084 15.883,10.129c8.892,1.046 14.367,0.375 14.367,0.375c-0,0 -11.071,-19.695 -30.25,-10.504" style="fill:#fff;fill-rule:nonzero;"/><path d="M226.162,1056.03c0,0 6.992,9.083 15.883,10.129c8.892,1.046 14.367,0.375 14.367,0.375c0,0 -11.071,-19.696 -30.25,-10.504" style="fill:#fff;fill-rule:nonzero;"/><path d="M172.673,1049.81c-0,-0 6.992,9.083 15.883,10.133c8.892,1.046 14.367,0.371 14.367,0.371c-0,0 -11.071,-19.696 -30.25,-10.504" style="fill:#fff;fill-rule:nonzero;"/><path d="M390.632,1131.54l-42.354,9.154l50.541,-62.971l-69.021,64.342l-0.425,4.462l-3.083,-67.633l-4.875,106.825l-68.058,-63.45l50.546,62.975l-42.355,-9.158l53.542,23.095l5.404,6.738l-9.412,353.446l30.416,-0l-11.362,-396.071l6.954,-8.658l53.542,-23.096Z" style="fill:#1a2e35;fill-rule:nonzero;"/></g><g id="Plants"><path d="M2613.45,1566.68c-0.421,-0.171 -0.638,-0.638 -0.496,-1.079c11.883,-36.425 42.433,-64.475 79.729,-73.213c0.467,-0.108 0.937,0.184 1.05,0.65c0.108,0.471 -0.183,0.942 -0.654,1.05c-36.7,8.6 -66.767,36.209 -78.467,72.059c-0.15,0.454 -0.642,0.708 -1.1,0.558l-0.062,-0.025Z" style="fill:#1a2e35;fill-rule:nonzero;"/><path d="M2642.73,1543.32c-8.237,-6.817 -21.279,4.487 -21.079,4.887c-0.921,1.588 -1.804,3.2 -2.654,4.846c1.812,-1.667 7.787,-2.617 15.65,-0.858c7.854,1.454 16.171,-2.675 8.083,-8.875" style="fill:#1a2e35;fill-rule:nonzero;"/><path d="M2618.06,1524.75c-8.317,-6.392 -12.388,7.483 -6.954,13.958c5.108,6.513 7.862,11.825 7.75,14.271c0.737,-1.7 1.516,-3.375 2.329,-5.034c-0.413,-0.049 4.529,-16.849 -3.125,-23.195" style="fill:#1a2e35;fill-rule:nonzero;"/><path d="M2653.3,1531.49c-6.983,-8.079 -21.629,0.725 -21.491,1.129c-1.163,1.388 -2.296,2.804 -3.392,4.259c2.05,-1.309 8.067,-1.179 15.496,1.904c7.475,2.8 16.317,0.187 9.387,-7.292" style="fill:#1a2e35;fill-rule:nonzero;"/><path d="M2632.1,1509.05c-7.129,-7.692 -13.388,5.208 -9.104,12.462c3.958,7.254 5.8,12.917 5.295,15.275c0.992,-1.521 2.03,-3.021 3.096,-4.491c-0.396,-0.1 7.188,-15.692 0.713,-23.246" style="fill:#1a2e35;fill-rule:nonzero;"/><path d="M2665.65,1521.65c-5.542,-9.12 -21.404,-2.929 -21.325,-2.52c-1.371,1.162 -2.717,2.362 -4.029,3.595c2.225,-0.929 8.116,0.225 14.912,4.521c6.883,4.029 16.021,2.942 10.442,-5.596" style="fill:#1a2e35;fill-rule:nonzero;"/><path d="M2648.5,1495.98c-5.746,-8.767 -14.041,2.879 -11.016,10.733c2.695,7.804 3.583,13.675 2.7,15.904c1.229,-1.325 2.491,-2.616 3.779,-3.879c-0.384,-0.154 9.65,-14.212 4.537,-22.758" style="fill:#1a2e35;fill-rule:nonzero;"/><path d="M2679.49,1514.01c-3.946,-9.925 -20.642,-6.455 -20.625,-6.042c-1.546,0.921 -3.071,1.875 -4.567,2.867c2.346,-0.538 7.954,1.587 13.942,6.958c6.108,5.121 15.316,5.562 11.25,-3.783" style="fill:#1a2e35;fill-rule:nonzero;"/><path d="M2666.88,1485.82c-4.204,-9.609 -14.367,0.512 -12.692,8.762c1.354,8.146 1.25,14.079 0.013,16.125c1.429,-1.096 2.883,-2.158 4.371,-3.187c-0.367,-0.213 11.9,-12.413 8.308,-21.7" style="fill:#1a2e35;fill-rule:nonzero;"/><path d="M2694.54,1508.76c-2.225,-10.455 -19.4,-9.796 -19.438,-9.388c-1.687,0.65 -3.354,1.342 -5.004,2.075c2.409,-0.142 7.6,2.888 12.613,9.175c5.171,6.067 14.25,8.038 11.829,-1.862" style="fill:#1a2e35;fill-rule:nonzero;"/><path d="M2686.88,1478.85c-2.525,-10.183 -14.379,-1.883 -14.121,6.534c-0.05,8.27 -1.162,14.108 -2.729,15.925c1.596,-0.846 3.221,-1.659 4.862,-2.421c-0.341,-0.275 13.938,-10.284 11.988,-20.038" style="fill:#1a2e35;fill-rule:nonzero;"/><path d="M2684.85,1495.41c-0.25,-0.142 12.716,-8.867 21.158,-10.242c8.258,-1.591 11.404,4.229 10.042,7.638c-1.313,3.446 -7.109,4.321 -12.017,4.029c-4.829,-0.675 -19.113,-1.679 -19.183,-1.425" style="fill:#1a2e35;fill-rule:nonzero;"/><path d="M2712.06,1486.08c-1.375,-0.562 -3.3,-0.85 -5.941,-0.341c-6.659,1.087 -16.059,6.737 -19.509,9.062c1.221,0.046 3.121,0.175 6.088,0.392c3.821,0.275 8.825,0.7 11.412,1.062c4.704,0.279 10.204,-0.537 11.392,-3.666c0.587,-1.455 0.208,-3.3 -0.954,-4.709c-0.475,-0.571 -1.263,-1.296 -2.488,-1.8m-27.433,9.863c-0.025,-0.009 -0.05,-0.021 -0.071,-0.034c-0.212,-0.12 -0.329,-0.37 -0.287,-0.616c0.004,-0.017 0.012,-0.038 0.02,-0.054c0.046,-0.159 0.08,-0.275 0.292,-0.355c2.083,-1.995 14.075,-9.108 21.329,-10.291c4.067,-0.788 7.546,0.137 9.534,2.546c1.429,1.733 1.883,4.041 1.145,5.879c-1.779,4.662 -10.087,4.546 -12.595,4.396c-4.705,-0.655 -17.713,-1.563 -18.95,-1.459c-0.138,0.046 -0.288,0.042 -0.417,-0.012" style="fill:#1a2e35;fill-rule:nonzero;"/><path d="M2614.08,1565.98c-0.412,0.192 -0.904,0.033 -1.129,-0.371c-18.6,-33.496 -18.367,-74.971 0.613,-108.241c0.237,-0.417 0.771,-0.567 1.191,-0.33c0.421,0.242 0.567,0.775 0.325,1.196c-18.675,32.742 -18.908,73.563 -0.6,106.529c0.234,0.421 0.084,0.955 -0.337,1.188c-0.021,0.008 -0.042,0.021 -0.063,0.029" style="fill:#1a2e35;fill-rule:nonzero;"/><path d="M2616.88,1528.62c-10.6,1.4 -11.196,18.65 -10.763,18.775c0.534,1.754 1.117,3.504 1.746,5.245c0.009,-2.466 3.379,-7.487 10.017,-12.058c6.412,-4.762 9.05,-13.667 -1,-11.962" style="fill:#1a2e35;fill-rule:nonzero;"/><path d="M2586.49,1534.07c-10.345,1.741 -2.945,14.167 5.488,14.591c8.254,0.692 14.025,2.288 15.742,4.038c-0.746,-1.7 -1.45,-3.412 -2.105,-5.133c-0.316,0.266 -9.27,-14.788 -19.125,-13.496" style="fill:#1a2e35;fill-rule:nonzero;"/><path d="M2615.42,1512.83c-10.679,-0.384 -14.188,16.341 -13.8,16.52c0.225,1.796 0.496,3.588 0.812,5.38c0.438,-2.388 4.625,-6.713 11.942,-10.059c7.138,-3.571 11.238,-11.829 1.046,-11.841" style="fill:#1a2e35;fill-rule:nonzero;"/><path d="M2584.55,1513.09c-10.487,-0.012 -5.296,13.354 2.938,15.154c8.008,2.038 13.408,4.538 14.796,6.513c-0.442,-1.767 -0.834,-3.542 -1.184,-5.329c-0.346,0.225 -6.608,-15.938 -16.55,-16.338" style="fill:#1a2e35;fill-rule:nonzero;"/><path d="M2616.61,1497.09c-10.458,-2.15 -16.716,13.683 -16.362,13.908c-0.079,1.8 -0.117,3.596 -0.104,5.4c0.833,-2.258 5.687,-5.796 13.458,-7.85c7.638,-2.308 13.054,-9.737 3.008,-11.458" style="fill:#1a2e35;fill-rule:nonzero;"/><path d="M2586.13,1492.18c-10.333,-1.758 -7.441,12.25 0.371,15.375c7.55,3.338 12.454,6.684 13.488,8.846c-0.134,-1.8 -0.225,-3.604 -0.267,-5.408c-0.375,0.175 -3.854,-16.746 -13.592,-18.813" style="fill:#1a2e35;fill-rule:nonzero;"/><path d="M2620.42,1481.74c-9.958,-3.863 -18.775,10.737 -18.467,11.008c-0.375,1.754 -0.712,3.517 -1.004,5.296c1.2,-2.084 6.579,-4.755 14.583,-5.479c7.913,-0.996 14.505,-7.442 4.888,-10.825" style="fill:#1a2e35;fill-rule:nonzero;"/><path d="M2591.2,1471.8c-9.9,-3.459 -9.4,10.875 -2.217,15.258c6.888,4.554 11.167,8.671 11.825,10.971c0.167,-1.796 0.38,-3.584 0.638,-5.371c-0.404,0.121 -1,-17.171 -10.246,-20.858" style="fill:#1a2e35;fill-rule:nonzero;"/><path d="M2626.82,1467.14c-9.17,-5.479 -20.383,7.554 -20.104,7.862c-0.671,1.675 -1.3,3.367 -1.883,5.071c1.529,-1.858 7.283,-3.604 15.304,-2.992c7.967,0.342 15.588,-4.979 6.683,-9.941" style="fill:#1a2e35;fill-rule:nonzero;"/><path d="M2599.69,1452.4c-9.183,-5.079 -11.166,9.258 -4.816,14.791c6.016,5.667 9.541,10.459 9.8,12.838c0.47,-1.746 0.983,-3.483 1.537,-5.208c-0.429,0.062 1.95,-17.213 -6.521,-22.421" style="fill:#1a2e35;fill-rule:nonzero;"/><path d="M2610.45,1465.16c-0.271,0.088 2.158,-15.35 6.896,-22.471c4.45,-7.129 10.858,-5.479 12.429,-2.162c1.629,3.308 -1.675,8.15 -5.225,11.55c-3.784,3.079 -14.238,12.862 -14.1,13.083" style="fill:#1a2e35;fill-rule:nonzero;"/><path d="M2622.13,1438.88c-1.35,0.621 -2.871,1.834 -4.296,4.117c-3.738,5.621 -5.992,16.354 -6.638,20.467c0.867,-0.867 2.254,-2.171 4.429,-4.196c2.805,-2.613 6.521,-5.992 8.546,-7.638c3.409,-3.262 6.554,-7.845 5.071,-10.845c-0.671,-1.421 -2.283,-2.4 -4.104,-2.505c-0.742,-0.041 -1.808,0.042 -3.008,0.6m-11.442,26.813c-0.025,0.008 -0.05,0.017 -0.075,0.025c-0.233,0.075 -0.5,-0.013 -0.646,-0.208c-0.012,-0.013 -0.021,-0.03 -0.029,-0.05c-0.083,-0.138 -0.146,-0.25 -0.058,-0.455c-0.046,-2.887 2.904,-16.516 6.97,-22.637c2.196,-3.513 5.238,-5.433 8.355,-5.25c2.241,0.129 4.241,1.371 5.087,3.162c2.208,4.475 -3.537,10.488 -5.346,12.221c-3.687,3 -13.2,11.913 -13.971,12.892c-0.054,0.133 -0.162,0.237 -0.287,0.3" style="fill:#1a2e35;fill-rule:nonzero;"/><path d="M225.481,1516.47c-0.275,-0.112 -0.421,-0.421 -0.325,-0.708c7.762,-23.792 27.721,-42.117 52.079,-47.821c0.308,-0.075 0.617,0.117 0.688,0.421c0.075,0.308 -0.117,0.616 -0.425,0.687c-23.975,5.617 -43.617,23.65 -51.255,47.067c-0.1,0.3 -0.42,0.462 -0.72,0.367c-0.017,-0.005 -0.03,-0.009 -0.042,-0.013" style="fill:#1a2e35;fill-rule:nonzero;"/><path d="M244.605,1501.2c-5.383,-4.45 -13.9,2.93 -13.771,3.192c-0.6,1.038 -1.179,2.096 -1.733,3.167c1.183,-1.092 5.087,-1.713 10.221,-0.563c5.133,0.95 10.566,-1.746 5.283,-5.796" style="fill:#1a2e35;fill-rule:nonzero;"/><path d="M228.49,1489.08c-5.434,-4.18 -8.092,4.887 -4.542,9.116c3.333,4.254 5.133,7.725 5.062,9.325c0.48,-1.112 0.988,-2.208 1.521,-3.287c-0.271,-0.034 2.954,-11.013 -2.041,-15.154" style="fill:#1a2e35;fill-rule:nonzero;"/><path d="M251.51,1493.48c-4.563,-5.28 -14.129,0.475 -14.042,0.741c-0.758,0.904 -1.495,1.829 -2.212,2.779c1.337,-0.854 5.266,-0.77 10.121,1.246c4.883,1.825 10.658,0.121 6.133,-4.766" style="fill:#1a2e35;fill-rule:nonzero;"/><path d="M237.661,1478.82c-4.658,-5.025 -8.746,3.4 -5.946,8.137c2.584,4.742 3.788,8.442 3.459,9.984c0.65,-1 1.325,-1.979 2.025,-2.934c-0.263,-0.071 4.691,-10.254 0.462,-15.187" style="fill:#1a2e35;fill-rule:nonzero;"/><path d="M259.575,1487.05c-3.621,-5.963 -13.979,-1.917 -13.933,-1.65c-0.896,0.762 -1.771,1.545 -2.629,2.35c1.454,-0.609 5.3,0.15 9.741,2.954c4.496,2.633 10.467,1.921 6.821,-3.654" style="fill:#1a2e35;fill-rule:nonzero;"/><path d="M248.375,1470.28c-3.754,-5.729 -9.175,1.879 -7.2,7.013c1.762,5.096 2.342,8.929 1.767,10.387c0.8,-0.866 1.625,-1.708 2.471,-2.537c-0.25,-0.1 6.299,-9.284 2.962,-14.863" style="fill:#1a2e35;fill-rule:nonzero;"/><path d="M268.616,1482.06c-2.579,-6.483 -13.487,-4.217 -13.475,-3.946c-1.008,0.6 -2.004,1.225 -2.983,1.875c1.529,-0.354 5.196,1.033 9.104,4.542c3.992,3.346 10.008,3.637 7.354,-2.471" style="fill:#1a2e35;fill-rule:nonzero;"/><path d="M260.383,1463.64c-2.746,-6.275 -9.384,0.338 -8.292,5.721c0.887,5.321 0.817,9.2 0.008,10.538c0.934,-0.717 1.884,-1.413 2.854,-2.084c-0.237,-0.137 7.775,-8.108 5.429,-14.175" style="fill:#1a2e35;fill-rule:nonzero;"/><path d="M278.447,1478.62c-1.454,-6.829 -12.675,-6.4 -12.7,-6.133c-1.1,0.425 -2.187,0.875 -3.267,1.358c1.571,-0.095 4.963,1.884 8.238,5.992c3.379,3.963 9.308,5.25 7.729,-1.217" style="fill:#1a2e35;fill-rule:nonzero;"/><path d="M273.444,1459.09c-1.65,-6.654 -9.392,-1.229 -9.221,4.271c-0.037,5.4 -0.762,9.217 -1.787,10.4c1.041,-0.55 2.104,-1.079 3.179,-1.579c-0.225,-0.179 9.1,-6.721 7.829,-13.092" style="fill:#1a2e35;fill-rule:nonzero;"/><path d="M272.118,1469.9c-0.163,-0.091 8.308,-5.791 13.82,-6.687c5.392,-1.042 7.45,2.762 6.563,4.987c-0.858,2.25 -4.646,2.825 -7.854,2.634c-3.154,-0.446 -12.484,-1.096 -12.529,-0.934" style="fill:#1a2e35;fill-rule:nonzero;"/><path d="M289.893,1463.81c-0.896,-0.366 -2.154,-0.558 -3.879,-0.225c-4.354,0.708 -10.492,4.404 -12.746,5.921c0.8,0.033 2.042,0.117 3.975,0.258c2.496,0.179 5.767,0.454 7.459,0.696c3.07,0.179 6.666,-0.354 7.445,-2.396c0.38,-0.954 0.134,-2.158 -0.629,-3.079c-0.308,-0.375 -0.825,-0.846 -1.625,-1.175m-17.921,6.442c-0.016,-0.004 -0.029,-0.013 -0.045,-0.021c-0.138,-0.083 -0.213,-0.246 -0.184,-0.404c0,-0.013 0.005,-0.025 0.009,-0.034c0.029,-0.104 0.054,-0.179 0.191,-0.233c1.363,-1.304 9.196,-5.95 13.938,-6.721c2.654,-0.512 4.925,0.088 6.225,1.663c0.933,1.129 1.229,2.637 0.746,3.837c-1.159,3.046 -6.588,2.971 -8.225,2.875c-3.075,-0.429 -11.571,-1.021 -12.379,-0.954c-0.092,0.033 -0.188,0.029 -0.275,-0.008" style="fill:#1a2e35;fill-rule:nonzero;"/><path d="M225.894,1516c-0.267,0.121 -0.592,0.021 -0.738,-0.245c-12.154,-21.88 -12,-48.976 0.396,-70.705c0.158,-0.275 0.508,-0.371 0.779,-0.212c0.275,0.154 0.371,0.504 0.213,0.775c-12.2,21.391 -12.35,48.058 -0.392,69.591c0.154,0.275 0.054,0.621 -0.221,0.775c-0.012,0.009 -0.025,0.013 -0.037,0.021" style="fill:#1a2e35;fill-rule:nonzero;"/><path d="M227.721,1491.6c-6.925,0.912 -7.313,12.179 -7.029,12.258c0.346,1.15 0.729,2.292 1.137,3.429c0.004,-1.612 2.213,-4.891 6.546,-7.875c4.188,-3.112 5.908,-8.929 -0.654,-7.812" style="fill:#1a2e35;fill-rule:nonzero;"/><path d="M207.87,1495.16c-6.758,1.137 -1.925,9.254 3.587,9.533c5.388,0.45 9.159,1.492 10.28,2.634c-0.488,-1.109 -0.946,-2.225 -1.371,-3.35c-0.213,0.17 -6.058,-9.659 -12.496,-8.817" style="fill:#1a2e35;fill-rule:nonzero;"/><path d="M226.763,1481.29c-6.971,-0.25 -9.267,10.675 -9.013,10.791c0.146,1.171 0.325,2.342 0.529,3.517c0.288,-1.563 3.021,-4.388 7.8,-6.575c4.667,-2.333 7.342,-7.725 0.684,-7.733" style="fill:#1a2e35;fill-rule:nonzero;"/><path d="M206.596,1481.46c-6.85,-0.009 -3.458,8.725 1.917,9.9c5.233,1.329 8.762,2.962 9.667,4.254c-0.288,-1.154 -0.546,-2.313 -0.771,-3.479c-0.225,0.145 -4.317,-10.417 -10.813,-10.675" style="fill:#1a2e35;fill-rule:nonzero;"/><path d="M227.542,1471c-6.834,-1.404 -10.917,8.942 -10.688,9.088c-0.054,1.17 -0.075,2.345 -0.071,3.525c0.546,-1.475 3.717,-3.784 8.796,-5.13c4.988,-1.504 8.525,-6.358 1.963,-7.483" style="fill:#1a2e35;fill-rule:nonzero;"/><path d="M207.632,1467.8c-6.754,-1.146 -4.862,8.004 0.242,10.046c4.933,2.179 8.137,4.366 8.808,5.779c-0.087,-1.175 -0.146,-2.358 -0.175,-3.538c-0.246,0.117 -2.517,-10.937 -8.875,-12.287" style="fill:#1a2e35;fill-rule:nonzero;"/><path d="M230.034,1460.98c-6.504,-2.521 -12.267,7.017 -12.063,7.192c-0.246,1.146 -0.466,2.296 -0.654,3.458c0.783,-1.362 4.296,-3.1 9.525,-3.583c5.167,-0.646 9.471,-4.858 3.192,-7.067" style="fill:#1a2e35;fill-rule:nonzero;"/><path d="M210.94,1454.48c-6.467,-2.262 -6.142,7.104 -1.45,9.967c4.5,2.971 7.296,5.662 7.725,7.162c0.113,-1.171 0.25,-2.337 0.417,-3.504c-0.263,0.075 -0.65,-11.221 -6.692,-13.625" style="fill:#1a2e35;fill-rule:nonzero;"/><path d="M234.209,1451.44c-5.992,-3.579 -13.313,4.934 -13.134,5.13c-0.437,1.1 -0.845,2.204 -1.233,3.316c1.004,-1.212 4.758,-2.35 10,-1.954c5.204,0.221 10.183,-3.25 4.367,-6.492" style="fill:#1a2e35;fill-rule:nonzero;"/><path d="M216.488,1441.81c-5.995,-3.316 -7.291,6.046 -3.145,9.663c3.933,3.704 6.233,6.833 6.404,8.387c0.304,-1.137 0.641,-2.275 1.004,-3.4c-0.279,0.038 1.275,-11.246 -4.263,-14.65" style="fill:#1a2e35;fill-rule:nonzero;"/><path d="M223.513,1450.14c-0.175,0.058 1.413,-10.025 4.509,-14.675c2.904,-4.663 7.091,-3.584 8.116,-1.413c1.067,2.158 -1.091,5.321 -3.412,7.542c-2.471,2.012 -9.3,8.404 -9.213,8.546" style="fill:#1a2e35;fill-rule:nonzero;"/><path d="M231.149,1432.98c-0.884,0.409 -1.875,1.2 -2.804,2.692c-2.442,3.667 -3.917,10.683 -4.338,13.367c0.567,-0.563 1.471,-1.417 2.892,-2.742c1.833,-1.704 4.262,-3.912 5.587,-4.992c2.221,-2.129 4.275,-5.12 3.309,-7.079c-0.438,-0.929 -1.488,-1.566 -2.68,-1.637c-0.487,-0.029 -1.183,0.029 -1.966,0.391m-7.475,17.513c-0.017,0.008 -0.029,0.017 -0.046,0.021c-0.154,0.05 -0.329,-0.009 -0.425,-0.138c-0.004,-0.008 -0.013,-0.021 -0.017,-0.033c-0.054,-0.088 -0.096,-0.163 -0.037,-0.296c-0.034,-1.887 1.896,-10.787 4.554,-14.787c1.429,-2.296 3.421,-3.55 5.454,-3.43c1.467,0.084 2.771,0.892 3.325,2.063c1.442,2.925 -2.308,6.85 -3.496,7.983c-2.408,1.963 -8.621,7.784 -9.125,8.421c-0.033,0.092 -0.1,0.158 -0.187,0.196" style="fill:#1a2e35;fill-rule:nonzero;"/><path d="M2480.76,1551.96c0.421,-0.175 0.642,-0.641 0.496,-1.083c-11.879,-36.421 -42.433,-64.475 -79.729,-73.213c-0.467,-0.108 -0.938,0.184 -1.05,0.655c-0.108,0.466 0.183,0.941 0.654,1.05c36.7,8.595 66.767,36.208 78.467,72.054c0.15,0.454 0.641,0.708 1.1,0.558c0.021,-0.004 0.041,-0.012 0.062,-0.021" style="fill:#1a2e35;fill-rule:nonzero;"/><path d="M2451.48,1528.59c8.241,-6.817 21.279,4.487 21.083,4.887c0.917,1.588 1.804,3.2 2.65,4.85c-1.808,-1.671 -7.788,-2.621 -15.65,-0.862c-7.85,1.454 -16.167,-2.675 -8.083,-8.875" style="fill:#1a2e35;fill-rule:nonzero;"/><path d="M2476.15,1510.03c8.321,-6.391 12.388,7.488 6.954,13.959c-5.108,6.512 -7.862,11.825 -7.75,14.275c-0.733,-1.7 -1.512,-3.38 -2.329,-5.034c0.413,-0.05 -4.525,-16.854 3.125,-23.2" style="fill:#1a2e35;fill-rule:nonzero;"/><path d="M2440.91,1516.77c6.983,-8.084 21.625,0.725 21.491,1.129c1.163,1.387 2.292,2.804 3.392,4.254c-2.05,-1.304 -8.071,-1.175 -15.5,1.908c-7.475,2.8 -16.313,0.184 -9.383,-7.291" style="fill:#1a2e35;fill-rule:nonzero;"/><path d="M2462.11,1494.33c7.129,-7.692 13.387,5.208 9.104,12.462c-3.958,7.255 -5.8,12.917 -5.296,15.275c-0.996,-1.52 -2.029,-3.016 -3.1,-4.491c0.4,-0.1 -7.183,-15.692 -0.708,-23.246" style="fill:#1a2e35;fill-rule:nonzero;"/><path d="M2428.57,1506.93c5.546,-9.125 21.404,-2.934 21.329,-2.521c1.367,1.162 2.713,2.358 4.029,3.592c-2.225,-0.925 -8.116,0.229 -14.916,4.525c-6.884,4.025 -16.017,2.937 -10.442,-5.596" style="fill:#1a2e35;fill-rule:nonzero;"/><path d="M2445.71,1481.26c5.75,-8.771 14.041,2.879 11.021,10.729c-2.7,7.804 -3.584,13.675 -2.705,15.909c-1.225,-1.33 -2.487,-2.617 -3.779,-3.88c0.383,-0.158 -9.65,-14.216 -4.537,-22.758" style="fill:#1a2e35;fill-rule:nonzero;"/><path d="M2414.73,1499.28c3.946,-9.925 20.646,-6.45 20.629,-6.038c1.542,0.917 3.067,1.871 4.563,2.863c-2.342,-0.538 -7.954,1.587 -13.938,6.958c-6.108,5.125 -15.32,5.563 -11.254,-3.783" style="fill:#1a2e35;fill-rule:nonzero;"/><path d="M2427.33,1471.1c4.204,-9.612 14.367,0.513 12.692,8.758c-1.35,8.146 -1.246,14.08 -0.009,16.125c-1.433,-1.095 -2.883,-2.158 -4.371,-3.187c0.363,-0.213 -11.9,-12.413 -8.312,-21.696" style="fill:#1a2e35;fill-rule:nonzero;"/><path d="M2399.68,1494.03c2.225,-10.454 19.404,-9.796 19.442,-9.388c1.683,0.65 3.354,1.342 5,2.075c-2.405,-0.141 -7.596,2.888 -12.609,9.18c-5.171,6.066 -14.254,8.033 -11.833,-1.867" style="fill:#1a2e35;fill-rule:nonzero;"/><path d="M2407.34,1464.12c2.525,-10.183 14.379,-1.883 14.117,6.534c0.05,8.27 1.162,14.108 2.733,15.925c-1.6,-0.846 -3.221,-1.655 -4.862,-2.421c0.337,-0.275 -13.938,-10.284 -11.988,-20.038" style="fill:#1a2e35;fill-rule:nonzero;"/><path d="M2409.36,1480.68c0.25,-0.142 -12.716,-8.863 -21.158,-10.238c-8.254,-1.596 -11.404,4.225 -10.042,7.633c1.313,3.446 7.109,4.321 12.017,4.034c4.833,-0.679 19.112,-1.684 19.183,-1.429" style="fill:#1a2e35;fill-rule:nonzero;"/><path d="M2382.15,1471.36c1.375,-0.567 3.3,-0.855 5.941,-0.346c6.659,1.087 16.059,6.737 19.509,9.066c-1.225,0.046 -3.125,0.171 -6.092,0.388c-3.821,0.275 -8.825,0.7 -11.412,1.062c-4.705,0.28 -10.2,-0.533 -11.392,-3.662c-0.583,-1.458 -0.204,-3.3 0.958,-4.713c0.475,-0.57 1.263,-1.295 2.488,-1.795m27.433,9.858c0.025,-0.008 0.046,-0.021 0.071,-0.033c0.208,-0.121 0.329,-0.371 0.283,-0.617c-0.004,-0.017 -0.008,-0.033 -0.016,-0.054c-0.046,-0.159 -0.08,-0.275 -0.292,-0.354c-2.083,-1.996 -14.079,-9.109 -21.333,-10.288c-4.067,-0.792 -7.546,0.138 -9.53,2.542c-1.433,1.733 -1.883,4.041 -1.15,5.879c1.78,4.662 10.092,4.546 12.596,4.4c4.709,-0.658 17.713,-1.563 18.95,-1.463c0.142,0.05 0.288,0.046 0.421,-0.012" style="fill:#1a2e35;fill-rule:nonzero;"/><path d="M2480.13,1551.25c0.412,0.192 0.908,0.034 1.129,-0.371c18.6,-33.495 18.37,-74.97 -0.609,-108.237c-0.241,-0.421 -0.775,-0.567 -1.191,-0.329c-0.421,0.237 -0.567,0.771 -0.325,1.191c18.675,32.742 18.904,73.563 0.595,106.53c-0.233,0.425 -0.079,0.954 0.342,1.187c0.017,0.013 0.038,0.021 0.058,0.029" style="fill:#1a2e35;fill-rule:nonzero;"/><path d="M2477.33,1513.9c10.6,1.396 11.196,18.646 10.767,18.771c-0.538,1.754 -1.121,3.504 -1.75,5.246c-0.009,-2.467 -3.38,-7.488 -10.013,-12.055c-6.417,-4.762 -9.05,-13.666 0.996,-11.962" style="fill:#1a2e35;fill-rule:nonzero;"/><path d="M2507.72,1519.34c10.341,1.746 2.941,14.167 -5.492,14.592c-8.254,0.691 -14.021,2.291 -15.738,4.037c0.746,-1.7 1.446,-3.408 2.1,-5.133c0.321,0.266 9.275,-14.788 19.13,-13.496" style="fill:#1a2e35;fill-rule:nonzero;"/><path d="M2478.8,1498.11c10.675,-0.383 14.183,16.342 13.8,16.517c-0.229,1.795 -0.5,3.587 -0.812,5.379c-0.438,-2.388 -4.625,-6.709 -11.946,-10.059c-7.138,-3.57 -11.234,-11.829 -1.042,-11.837" style="fill:#1a2e35;fill-rule:nonzero;"/><path d="M2509.66,1498.37c10.491,-0.008 5.295,13.354 -2.934,15.154c-8.012,2.038 -13.412,4.542 -14.8,6.513c0.442,-1.767 0.834,-3.542 1.184,-5.325c0.345,0.221 6.608,-15.942 16.55,-16.342" style="fill:#1a2e35;fill-rule:nonzero;"/><path d="M2477.61,1482.37c10.458,-2.15 16.712,13.688 16.362,13.913c0.075,1.795 0.113,3.591 0.104,5.395c-0.833,-2.258 -5.687,-5.791 -13.462,-7.85c-7.634,-2.304 -13.054,-9.737 -3.004,-11.458" style="fill:#1a2e35;fill-rule:nonzero;"/><path d="M2508.08,1477.46c10.337,-1.759 7.446,12.249 -0.367,15.374c-7.55,3.338 -12.458,6.688 -13.487,8.846c0.133,-1.8 0.225,-3.604 0.266,-5.404c0.375,0.171 3.85,-16.746 13.588,-18.817" style="fill:#1a2e35;fill-rule:nonzero;"/><path d="M2473.79,1467.02c9.958,-3.863 18.779,10.737 18.467,11.004c0.375,1.758 0.712,3.521 1.004,5.296c-1.2,-2.083 -6.575,-4.754 -14.584,-5.479c-7.912,-0.992 -14.504,-7.438 -4.887,-10.821" style="fill:#1a2e35;fill-rule:nonzero;"/><path d="M2503.02,1457.08c9.904,-3.463 9.404,10.871 2.217,15.258c-6.888,4.554 -11.163,8.667 -11.825,10.967c-0.167,-1.796 -0.375,-3.583 -0.634,-5.371c0.404,0.121 0.996,-17.171 10.242,-20.854" style="fill:#1a2e35;fill-rule:nonzero;"/><path d="M2467.39,1452.42c9.175,-5.483 20.384,7.55 20.109,7.858c0.666,1.675 1.3,3.367 1.883,5.075c-1.533,-1.862 -7.287,-3.604 -15.308,-2.995c-7.967,0.341 -15.584,-4.98 -6.684,-9.938" style="fill:#1a2e35;fill-rule:nonzero;"/><path d="M2494.52,1437.67c9.179,-5.079 11.166,9.258 4.816,14.796c-6.02,5.662 -9.545,10.454 -9.804,12.837c-0.471,-1.746 -0.983,-3.487 -1.533,-5.212c0.425,0.062 -1.95,-17.209 6.521,-22.421" style="fill:#1a2e35;fill-rule:nonzero;"/><path d="M2483.77,1450.43c0.271,0.088 -2.162,-15.35 -6.896,-22.471c-4.45,-7.129 -10.858,-5.479 -12.429,-2.162c-1.629,3.308 1.671,8.15 5.225,11.55c3.779,3.079 14.234,12.862 14.1,13.083" style="fill:#1a2e35;fill-rule:nonzero;"/><path d="M2472.08,1424.15c1.35,0.62 2.867,1.833 4.292,4.12c3.741,5.617 5.995,16.35 6.637,20.463c-0.867,-0.867 -2.25,-2.171 -4.425,-4.196c-2.804,-2.612 -6.525,-5.992 -8.55,-7.637c-3.404,-3.263 -6.55,-7.846 -5.071,-10.846c0.671,-1.417 2.284,-2.396 4.104,-2.504c0.742,-0.042 1.809,0.045 3.013,0.6m11.442,26.812c0.025,0.008 0.05,0.017 0.075,0.025c0.233,0.075 0.495,-0.012 0.645,-0.208c0.009,-0.013 0.017,-0.029 0.025,-0.05c0.084,-0.138 0.15,-0.25 0.059,-0.454c0.05,-2.888 -2.9,-16.513 -6.971,-22.638c-2.192,-3.512 -5.233,-5.433 -8.35,-5.25c-2.246,0.129 -4.242,1.371 -5.088,3.163c-2.208,4.475 3.534,10.487 5.346,12.22c3.688,3 13.196,11.917 13.967,12.892c0.054,0.138 0.162,0.242 0.292,0.3" style="fill:#1a2e35;fill-rule:nonzero;"/><path d="M471.06,1579.57c0.42,-0.17 0.641,-0.637 0.495,-1.079c-11.883,-36.425 -42.433,-64.479 -79.729,-73.212c-0.466,-0.109 -0.937,0.183 -1.05,0.65c-0.108,0.471 0.184,0.941 0.654,1.05c36.7,8.6 66.767,36.208 78.467,72.054c0.146,0.458 0.642,0.712 1.1,0.562c0.021,-0.008 0.042,-0.016 0.063,-0.025" style="fill:#1a2e35;fill-rule:nonzero;"/><path d="M441.783,1556.2c8.238,-6.817 21.279,4.488 21.079,4.888c0.921,1.587 1.809,3.2 2.655,4.845c-1.813,-1.666 -7.788,-2.616 -15.65,-0.858c-7.855,1.454 -16.171,-2.675 -8.084,-8.875" style="fill:#1a2e35;fill-rule:nonzero;"/><path d="M466.454,1537.63c8.321,-6.391 12.387,7.484 6.954,13.959c-5.108,6.512 -7.863,11.825 -7.75,14.27c-0.738,-1.7 -1.513,-3.375 -2.329,-5.033c0.412,-0.05 -4.525,-16.854 3.125,-23.196" style="fill:#1a2e35;fill-rule:nonzero;"/><path d="M431.212,1544.38c6.983,-8.079 21.629,0.725 21.492,1.129c1.162,1.387 2.296,2.804 3.391,4.258c-2.045,-1.308 -8.066,-1.179 -15.495,1.904c-7.475,2.8 -16.317,0.188 -9.388,-7.291" style="fill:#1a2e35;fill-rule:nonzero;"/><path d="M452.413,1521.94c7.13,-7.692 13.388,5.208 9.104,12.462c-3.958,7.255 -5.8,12.917 -5.295,15.275c-0.996,-1.525 -2.029,-3.02 -3.1,-4.491c0.4,-0.1 -7.184,-15.692 -0.709,-23.246" style="fill:#1a2e35;fill-rule:nonzero;"/><path d="M418.867,1534.54c5.545,-9.121 21.4,-2.929 21.329,-2.521c1.366,1.163 2.712,2.363 4.025,3.596c-2.225,-0.929 -8.117,0.225 -14.913,4.521c-6.883,4.029 -16.016,2.937 -10.441,-5.596" style="fill:#1a2e35;fill-rule:nonzero;"/><path d="M436.013,1508.87c5.746,-8.766 14.042,2.879 11.017,10.734c-2.696,7.804 -3.579,13.675 -2.7,15.904c-1.225,-1.325 -2.487,-2.617 -3.779,-3.879c0.383,-0.155 -9.65,-14.217 -4.538,-22.759" style="fill:#1a2e35;fill-rule:nonzero;"/><path d="M405.028,1526.89c3.946,-9.921 20.646,-6.45 20.629,-6.038c1.542,0.917 3.067,1.875 4.563,2.867c-2.342,-0.537 -7.955,1.588 -13.938,6.954c-6.108,5.125 -15.321,5.567 -11.254,-3.783" style="fill:#1a2e35;fill-rule:nonzero;"/><path d="M417.63,1498.71c4.2,-9.608 14.366,0.513 12.691,8.763c-1.354,8.146 -1.246,14.079 -0.012,16.125c-1.429,-1.096 -2.884,-2.163 -4.367,-3.188c0.363,-0.212 -11.904,-12.416 -8.312,-21.7" style="fill:#1a2e35;fill-rule:nonzero;"/><path d="M389.975,1521.64c2.225,-10.454 19.404,-9.8 19.441,-9.387c1.684,0.65 3.354,1.341 5.004,2.075c-2.408,-0.142 -7.6,2.887 -12.612,9.175c-5.171,6.066 -14.254,8.037 -11.833,-1.863" style="fill:#1a2e35;fill-rule:nonzero;"/><path d="M397.637,1491.73c2.525,-10.18 14.379,-1.88 14.116,6.537c0.055,8.271 1.163,14.108 2.734,15.925c-1.596,-0.85 -3.221,-1.658 -4.863,-2.421c0.338,-0.275 -13.937,-10.283 -11.987,-20.041" style="fill:#1a2e35;fill-rule:nonzero;"/><path d="M399.665,1508.29c0.246,-0.142 -12.717,-8.867 -21.158,-10.242c-8.254,-1.592 -11.404,4.229 -10.042,7.633c1.313,3.45 7.108,4.325 12.017,4.034c4.829,-0.676 19.112,-1.68 19.183,-1.426" style="fill:#1a2e35;fill-rule:nonzero;"/><path d="M372.453,1498.97c1.375,-0.563 3.3,-0.85 5.942,-0.342c6.658,1.088 16.058,6.738 19.508,9.063c-1.221,0.045 -3.121,0.175 -6.087,0.391c-3.821,0.275 -8.825,0.7 -11.413,1.063c-4.704,0.275 -10.208,-0.538 -11.396,-3.667c-0.583,-1.454 -0.204,-3.3 0.959,-4.708c0.475,-0.571 1.262,-1.296 2.487,-1.8m27.434,9.862c0.02,-0.008 0.045,-0.021 0.07,-0.033c0.213,-0.121 0.33,-0.375 0.284,-0.617c-0.004,-0.017 -0.009,-0.037 -0.017,-0.058c-0.046,-0.154 -0.083,-0.271 -0.292,-0.35c-2.083,-1.996 -14.079,-9.113 -21.333,-10.292c-4.062,-0.787 -7.542,0.138 -9.529,2.546c-1.433,1.729 -1.883,4.042 -1.146,5.875c1.775,4.667 10.088,4.55 12.592,4.4c4.708,-0.654 17.712,-1.563 18.954,-1.463c0.137,0.05 0.283,0.046 0.417,-0.008" style="fill:#1a2e35;fill-rule:nonzero;"/><path d="M470.427,1578.86c0.413,0.191 0.908,0.033 1.129,-0.371c18.604,-33.496 18.371,-74.971 -0.608,-108.242c-0.238,-0.417 -0.775,-0.567 -1.192,-0.329c-0.421,0.242 -0.566,0.775 -0.325,1.196c18.675,32.741 18.904,73.562 0.596,106.529c-0.233,0.421 -0.079,0.954 0.342,1.187c0.021,0.009 0.037,0.021 0.058,0.03" style="fill:#1a2e35;fill-rule:nonzero;"/><path d="M467.63,1541.5c10.6,1.4 11.195,18.65 10.762,18.775c-0.533,1.754 -1.117,3.504 -1.746,5.242c-0.008,-2.463 -3.379,-7.488 -10.016,-12.054c-6.413,-4.763 -9.05,-13.667 1,-11.963" style="fill:#1a2e35;fill-rule:nonzero;"/><path d="M498.019,1546.95c10.346,1.742 2.946,14.167 -5.491,14.592c-8.25,0.692 -14.021,2.287 -15.738,4.037c0.746,-1.7 1.446,-3.412 2.104,-5.133c0.317,0.267 9.267,-14.787 19.125,-13.496" style="fill:#1a2e35;fill-rule:nonzero;"/><path d="M469.096,1525.71c10.675,-0.383 14.188,16.342 13.8,16.521c-0.229,1.796 -0.496,3.587 -0.812,5.379c-0.438,-2.387 -4.629,-6.712 -11.946,-10.058c-7.133,-3.575 -11.238,-11.829 -1.042,-11.842" style="fill:#1a2e35;fill-rule:nonzero;"/><path d="M499.966,1525.98c10.487,-0.013 5.296,13.354 -2.938,15.154c-8.008,2.037 -13.408,4.537 -14.795,6.512c0.441,-1.766 0.833,-3.541 1.183,-5.329c0.346,0.225 6.608,-15.937 16.55,-16.337" style="fill:#1a2e35;fill-rule:nonzero;"/><path d="M467.904,1509.97c10.459,-2.15 16.713,13.684 16.363,13.909c0.079,1.8 0.116,3.596 0.104,5.4c-0.833,-2.263 -5.688,-5.796 -13.463,-7.855c-7.633,-2.304 -13.054,-9.737 -3.004,-11.454" style="fill:#1a2e35;fill-rule:nonzero;"/><path d="M498.381,1505.07c10.338,-1.758 7.446,12.246 -0.366,15.375c-7.555,3.337 -12.459,6.683 -13.488,8.842c0.133,-1.796 0.225,-3.601 0.267,-5.405c0.375,0.175 3.854,-16.745 13.587,-18.812" style="fill:#1a2e35;fill-rule:nonzero;"/><path d="M464.09,1494.62c9.958,-3.862 18.775,10.738 18.462,11.008c0.379,1.755 0.717,3.517 1.004,5.292c-1.2,-2.083 -6.575,-4.75 -14.579,-5.475c-7.912,-0.996 -14.504,-7.442 -4.887,-10.825" style="fill:#1a2e35;fill-rule:nonzero;"/><path d="M493.317,1484.68c9.9,-3.458 9.4,10.875 2.217,15.258c-6.888,4.555 -11.167,8.671 -11.825,10.971c-0.167,-1.796 -0.379,-3.583 -0.634,-5.371c0.4,0.121 0.996,-17.17 10.242,-20.858" style="fill:#1a2e35;fill-rule:nonzero;"/><path d="M457.697,1480.02c9.171,-5.479 20.379,7.55 20.108,7.863c0.667,1.675 1.296,3.366 1.884,5.071c-1.534,-1.859 -7.288,-3.605 -15.309,-2.992c-7.966,0.342 -15.583,-4.979 -6.683,-9.942" style="fill:#1a2e35;fill-rule:nonzero;"/><path d="M484.823,1465.28c9.184,-5.079 11.167,9.259 4.817,14.792c-6.021,5.662 -9.542,10.458 -9.804,12.838c-0.467,-1.746 -0.979,-3.484 -1.534,-5.209c0.43,0.063 -1.95,-17.212 6.521,-22.421" style="fill:#1a2e35;fill-rule:nonzero;"/><path d="M474.069,1478.04c0.271,0.087 -2.159,-15.35 -6.896,-22.475c-4.45,-7.125 -10.858,-5.48 -12.429,-2.159c-1.634,3.309 1.671,8.15 5.225,11.546c3.783,3.083 14.237,12.863 14.1,13.088" style="fill:#1a2e35;fill-rule:nonzero;"/><path d="M462.383,1451.76c1.35,0.621 2.87,1.833 4.295,4.117c3.738,5.62 5.992,16.354 6.638,20.462c-0.867,-0.862 -2.254,-2.167 -4.429,-4.192c-2.804,-2.612 -6.521,-5.991 -8.55,-7.637c-3.404,-3.263 -6.55,-7.846 -5.071,-10.846c0.675,-1.421 2.283,-2.4 4.108,-2.508c0.742,-0.038 1.804,0.046 3.009,0.604m11.441,26.812c0.025,0.009 0.05,0.017 0.075,0.025c0.234,0.075 0.496,-0.012 0.646,-0.208c0.008,-0.012 0.017,-0.033 0.025,-0.05c0.088,-0.142 0.146,-0.25 0.058,-0.454c0.05,-2.888 -2.9,-16.517 -6.97,-22.638c-2.192,-3.512 -5.234,-5.433 -8.35,-5.25c-2.246,0.13 -4.242,1.367 -5.088,3.159c-2.208,4.479 3.533,10.491 5.346,12.225c3.687,3 13.2,11.912 13.967,12.891c0.058,0.134 0.162,0.238 0.291,0.3" style="fill:#1a2e35;fill-rule:nonzero;"/><path d="M2991.6,1547.88c0.279,-0.112 0.429,-0.425 0.333,-0.717c-7.9,-24.212 -28.208,-42.862 -53,-48.67c-0.312,-0.071 -0.625,0.125 -0.7,0.437c-0.07,0.308 0.125,0.621 0.434,0.696c24.396,5.717 44.383,24.067 52.158,47.9c0.104,0.304 0.429,0.471 0.733,0.371c0.017,-0.004 0.03,-0.009 0.042,-0.017" style="fill:#1a2e35;fill-rule:nonzero;"/><path d="M2972.14,1532.35c5.471,-4.53 14.146,2.983 14.008,3.25c0.617,1.054 1.205,2.129 1.767,3.225c-1.204,-1.113 -5.175,-1.742 -10.404,-0.575c-5.221,0.966 -10.75,-1.775 -5.371,-5.9" style="fill:#1a2e35;fill-rule:nonzero;"/><path d="M2988.54,1520.01c5.529,-4.254 8.233,4.975 4.621,9.28c-3.392,4.329 -5.225,7.858 -5.15,9.487c-0.488,-1.133 -1.004,-2.246 -1.55,-3.346c0.271,-0.037 -3.008,-11.2 2.079,-15.421" style="fill:#1a2e35;fill-rule:nonzero;"/><path d="M2965.12,1524.49c4.642,-5.375 14.375,0.479 14.288,0.75c0.77,0.921 1.525,1.867 2.254,2.825c-1.363,-0.866 -5.363,-0.779 -10.304,1.271c-4.967,1.858 -10.842,0.121 -6.238,-4.846" style="fill:#1a2e35;fill-rule:nonzero;"/><path d="M2979.21,1509.57c4.742,-5.112 8.9,3.463 6.05,8.284c-2.629,4.825 -3.854,8.587 -3.517,10.158c-0.662,-1.012 -1.35,-2.012 -2.062,-2.987c0.266,-0.071 -4.771,-10.43 -0.471,-15.455" style="fill:#1a2e35;fill-rule:nonzero;"/><path d="M2956.91,1517.95c3.683,-6.062 14.225,-1.95 14.175,-1.675c0.912,0.771 1.804,1.571 2.679,2.388c-1.479,-0.617 -5.396,0.154 -9.917,3.008c-4.575,2.675 -10.65,1.95 -6.937,-3.721" style="fill:#1a2e35;fill-rule:nonzero;"/><path d="M2968.31,1500.88c3.821,-5.825 9.333,1.917 7.325,7.137c-1.796,5.188 -2.379,9.092 -1.796,10.571c-0.816,-0.879 -1.654,-1.741 -2.512,-2.579c0.254,-0.104 -6.413,-9.45 -3.017,-15.129" style="fill:#1a2e35;fill-rule:nonzero;"/><path d="M2947.71,1512.87c2.62,-6.596 13.72,-4.287 13.712,-4.016c1.025,0.612 2.038,1.245 3.038,1.904c-1.559,-0.359 -5.292,1.058 -9.271,4.629c-4.063,3.404 -10.179,3.696 -7.479,-2.517" style="fill:#1a2e35;fill-rule:nonzero;"/><path d="M2956.09,1494.13c2.792,-6.387 9.55,0.342 8.433,5.821c-0.896,5.417 -0.829,9.367 -0.008,10.725c-0.946,-0.729 -1.917,-1.437 -2.9,-2.121c0.242,-0.137 -7.913,-8.254 -5.525,-14.425" style="fill:#1a2e35;fill-rule:nonzero;"/><path d="M2937.7,1509.37c1.475,-6.946 12.9,-6.509 12.925,-6.238c1.117,0.429 2.229,0.892 3.321,1.38c-1.596,-0.092 -5.046,1.916 -8.379,6.099c-3.442,4.038 -9.479,5.342 -7.867,-1.241" style="fill:#1a2e35;fill-rule:nonzero;"/><path d="M2942.79,1489.49c1.679,-6.771 9.563,-1.254 9.388,4.341c0.033,5.496 0.771,9.38 1.812,10.584c-1.058,-0.563 -2.137,-1.1 -3.229,-1.609c0.225,-0.179 -9.267,-6.833 -7.971,-13.316" style="fill:#1a2e35;fill-rule:nonzero;"/><path d="M2944.14,1500.5c0.163,-0.091 -8.454,-5.891 -14.067,-6.808c-5.487,-1.058 -7.579,2.813 -6.679,5.079c0.875,2.292 4.729,2.871 7.992,2.679c3.212,-0.45 12.704,-1.116 12.754,-0.95" style="fill:#1a2e35;fill-rule:nonzero;"/><path d="M2926.05,1494.3c0.916,-0.375 2.191,-0.566 3.95,-0.229c4.429,0.721 10.675,4.483 12.97,6.029c-0.816,0.025 -2.075,0.113 -4.05,0.255c-2.541,0.183 -5.866,0.466 -7.583,0.708c-3.129,0.183 -6.783,-0.359 -7.579,-2.434c-0.388,-0.97 -0.133,-2.195 0.642,-3.133c0.312,-0.383 0.837,-0.862 1.65,-1.196m18.237,6.554c0.017,-0.004 0.033,-0.012 0.046,-0.02c0.142,-0.08 0.217,-0.25 0.192,-0.409l-0.013,-0.037c-0.029,-0.104 -0.054,-0.184 -0.196,-0.238c-1.383,-1.325 -9.354,-6.054 -14.183,-6.837c-2.7,-0.525 -5.013,0.087 -6.333,1.691c-0.955,1.146 -1.25,2.68 -0.763,3.905c1.183,3.104 6.708,3.025 8.375,2.925c3.129,-0.438 11.771,-1.038 12.6,-0.971c0.088,0.033 0.183,0.029 0.275,-0.009" style="fill:#1a2e35;fill-rule:nonzero;"/><path d="M2991.18,1547.41c0.271,0.129 0.604,0.025 0.754,-0.246c12.363,-22.262 12.208,-49.837 -0.408,-71.95c-0.159,-0.283 -0.513,-0.379 -0.792,-0.221c-0.279,0.159 -0.375,0.517 -0.217,0.796c12.417,21.763 12.567,48.9 0.4,70.817c-0.158,0.275 -0.054,0.629 0.225,0.787c0.013,0.004 0.025,0.013 0.038,0.017" style="fill:#1a2e35;fill-rule:nonzero;"/><path d="M2989.32,1522.58c7.046,0.929 7.442,12.396 7.159,12.475c-0.359,1.166 -0.746,2.333 -1.167,3.487c-0.004,-1.637 -2.246,-4.975 -6.654,-8.012c-4.267,-3.167 -6.017,-9.084 0.662,-7.95" style="fill:#1a2e35;fill-rule:nonzero;"/><path d="M3009.53,1526.2c6.875,1.159 1.959,9.421 -3.654,9.7c-5.479,0.459 -9.317,1.521 -10.458,2.688c0.491,-1.134 0.962,-2.267 1.396,-3.417c0.212,0.179 6.166,-9.825 12.716,-8.971" style="fill:#1a2e35;fill-rule:nonzero;"/><path d="M2990.3,1512.08c7.096,-0.254 9.429,10.862 9.171,10.983c-0.15,1.192 -0.329,2.383 -0.542,3.575c-0.287,-1.587 -3.071,-4.462 -7.937,-6.683c-4.746,-2.379 -7.471,-7.867 -0.692,-7.875" style="fill:#1a2e35;fill-rule:nonzero;"/><path d="M3010.82,1512.26c6.971,-0.004 3.521,8.879 -1.954,10.075c-5.321,1.354 -8.913,3.016 -9.833,4.329c0.291,-1.175 0.554,-2.354 0.783,-3.542c0.233,0.15 4.396,-10.6 11.004,-10.862" style="fill:#1a2e35;fill-rule:nonzero;"/><path d="M2989.51,1501.62c6.95,-1.43 11.108,9.1 10.875,9.245c0.054,1.196 0.079,2.392 0.07,3.588c-0.554,-1.5 -3.779,-3.85 -8.95,-5.221c-5.07,-1.529 -8.679,-6.471 -1.995,-7.612" style="fill:#1a2e35;fill-rule:nonzero;"/><path d="M3009.77,1498.36c6.871,-1.166 4.946,8.142 -0.246,10.221c-5.02,2.217 -8.279,4.446 -8.966,5.879c0.091,-1.196 0.15,-2.396 0.179,-3.596c0.254,0.117 2.562,-11.129 9.033,-12.504" style="fill:#1a2e35;fill-rule:nonzero;"/><path d="M2986.97,1491.42c6.62,-2.566 12.479,7.138 12.271,7.317c0.254,1.162 0.479,2.337 0.666,3.521c-0.796,-1.384 -4.367,-3.159 -9.692,-3.646c-5.254,-0.658 -9.637,-4.946 -3.245,-7.192" style="fill:#1a2e35;fill-rule:nonzero;"/><path d="M3006.4,1484.81c6.579,-2.3 6.25,7.229 1.475,10.146c-4.583,3.025 -7.425,5.758 -7.862,7.292c-0.113,-1.196 -0.254,-2.388 -0.425,-3.575c0.271,0.083 0.662,-11.413 6.812,-13.863" style="fill:#1a2e35;fill-rule:nonzero;"/><path d="M2982.72,1481.71c6.1,-3.646 13.55,5.021 13.366,5.225c0.446,1.113 0.863,2.238 1.254,3.371c-1.016,-1.233 -4.841,-2.396 -10.179,-1.988c-5.291,0.225 -10.358,-3.308 -4.441,-6.608" style="fill:#1a2e35;fill-rule:nonzero;"/><path d="M3000.75,1471.91c6.105,-3.379 7.421,6.154 3.205,9.833c-4.005,3.767 -6.346,6.946 -6.521,8.533c-0.309,-1.158 -0.65,-2.312 -1.021,-3.462c0.287,0.042 -1.296,-11.442 4.337,-14.904" style="fill:#1a2e35;fill-rule:nonzero;"/><path d="M2993.6,1480.39c0.183,0.059 -1.437,-10.204 -4.587,-14.937c-2.955,-4.742 -7.213,-3.646 -8.259,-1.442c-1.087,2.204 1.113,5.421 3.475,7.679c2.513,2.046 9.459,8.554 9.371,8.7" style="fill:#1a2e35;fill-rule:nonzero;"/><path d="M2985.84,1462.92c0.9,0.417 1.909,1.221 2.859,2.738c2.479,3.737 3.979,10.875 4.408,13.604c-0.579,-0.575 -1.496,-1.442 -2.946,-2.788c-1.862,-1.737 -4.333,-3.983 -5.679,-5.079c-2.263,-2.167 -4.354,-5.217 -3.371,-7.204c0.446,-0.946 1.517,-1.596 2.729,-1.671c0.492,-0.029 1.204,0.029 2,0.4m7.604,17.821c0.017,0.008 0.034,0.017 0.05,0.021c0.159,0.05 0.334,-0.009 0.43,-0.142c0.004,-0.008 0.012,-0.021 0.016,-0.033c0.059,-0.088 0.1,-0.163 0.042,-0.3c0.033,-1.921 -1.929,-10.979 -4.633,-15.046c-1.459,-2.338 -3.484,-3.613 -5.555,-3.492c-1.491,0.084 -2.816,0.913 -3.383,2.104c-1.467,2.971 2.354,6.967 3.558,8.121c2.45,1.996 8.771,7.921 9.284,8.571c0.037,0.088 0.108,0.163 0.191,0.196" style="fill:#1a2e35;fill-rule:nonzero;"/><path d="M666.673,1547.88c-0.279,-0.112 -0.425,-0.425 -0.329,-0.717c7.9,-24.212 28.209,-42.862 53,-48.67c0.308,-0.071 0.625,0.125 0.696,0.437c0.075,0.308 -0.121,0.621 -0.433,0.696c-24.396,5.717 -44.384,24.067 -52.159,47.9c-0.1,0.304 -0.429,0.471 -0.733,0.371c-0.013,-0.004 -0.029,-0.009 -0.042,-0.017" style="fill:#1a2e35;fill-rule:nonzero;"/><path d="M686.135,1532.35c-5.475,-4.53 -14.145,2.983 -14.012,3.25c-0.613,1.054 -1.2,2.129 -1.767,3.225c1.204,-1.113 5.179,-1.742 10.404,-0.575c5.221,0.966 10.755,-1.775 5.375,-5.9" style="fill:#1a2e35;fill-rule:nonzero;"/><path d="M669.735,1520.01c-5.529,-4.254 -8.233,4.975 -4.62,9.28c3.395,4.329 5.225,7.858 5.15,9.487c0.491,-1.133 1.008,-2.246 1.55,-3.346c-0.275,-0.037 3.008,-11.2 -2.08,-15.421" style="fill:#1a2e35;fill-rule:nonzero;"/><path d="M693.163,1524.49c-4.642,-5.375 -14.38,0.479 -14.288,0.75c-0.775,0.921 -1.525,1.867 -2.254,2.825c1.358,-0.866 5.362,-0.779 10.3,1.271c4.971,1.858 10.846,0.121 6.242,-4.846" style="fill:#1a2e35;fill-rule:nonzero;"/><path d="M679.07,1509.57c-4.742,-5.112 -8.9,3.463 -6.055,8.284c2.634,4.825 3.859,8.587 3.521,10.158c0.663,-1.012 1.35,-2.012 2.063,-2.987c-0.267,-0.071 4.775,-10.43 0.471,-15.455" style="fill:#1a2e35;fill-rule:nonzero;"/><path d="M701.368,1517.95c-3.683,-6.062 -14.225,-1.95 -14.175,-1.675c-0.913,0.771 -1.804,1.571 -2.679,2.388c1.479,-0.617 5.396,0.154 9.912,3.008c4.579,2.675 10.65,1.95 6.942,-3.721" style="fill:#1a2e35;fill-rule:nonzero;"/><path d="M689.97,1500.88c-3.82,-5.825 -9.333,1.917 -7.325,7.137c1.792,5.188 2.38,9.092 1.796,10.571c0.817,-0.879 1.654,-1.741 2.513,-2.579c-0.254,-0.104 6.412,-9.45 3.016,-15.129" style="fill:#1a2e35;fill-rule:nonzero;"/><path d="M710.568,1512.87c-2.621,-6.596 -13.721,-4.287 -13.713,-4.016c-1.025,0.612 -2.037,1.245 -3.033,1.904c1.558,-0.359 5.288,1.058 9.267,4.629c4.058,3.404 10.183,3.696 7.479,-2.517" style="fill:#1a2e35;fill-rule:nonzero;"/><path d="M702.192,1494.13c-2.792,-6.387 -9.55,0.342 -8.438,5.821c0.9,5.417 0.829,9.367 0.009,10.725c0.95,-0.729 1.916,-1.437 2.904,-2.121c-0.242,-0.137 7.912,-8.254 5.525,-14.425" style="fill:#1a2e35;fill-rule:nonzero;"/><path d="M720.575,1509.37c-1.479,-6.946 -12.9,-6.508 -12.925,-6.238c-1.12,0.43 -2.229,0.892 -3.325,1.38c1.6,-0.092 5.05,1.916 8.384,6.1c3.437,4.037 9.475,5.341 7.866,-1.242" style="fill:#1a2e35;fill-rule:nonzero;"/><path d="M715.483,1489.49c-1.679,-6.771 -9.558,-1.254 -9.383,4.341c-0.038,5.496 -0.775,9.38 -1.817,10.584c1.059,-0.563 2.138,-1.1 3.229,-1.609c-0.225,-0.179 9.267,-6.833 7.971,-13.316" style="fill:#1a2e35;fill-rule:nonzero;"/><path d="M714.134,1500.5c-0.166,-0.091 8.45,-5.891 14.063,-6.808c5.487,-1.058 7.583,2.813 6.679,5.079c-0.875,2.292 -4.729,2.871 -7.992,2.679c-3.208,-0.45 -12.704,-1.116 -12.75,-0.95" style="fill:#1a2e35;fill-rule:nonzero;"/><path d="M732.223,1494.3c-0.917,-0.375 -2.192,-0.566 -3.95,-0.229c-4.429,0.721 -10.675,4.483 -12.971,6.029c0.813,0.025 2.075,0.113 4.05,0.255c2.542,0.183 5.867,0.466 7.588,0.708c3.125,0.183 6.783,-0.359 7.57,-2.434c0.392,-0.97 0.142,-2.195 -0.637,-3.133c-0.313,-0.383 -0.838,-0.862 -1.65,-1.196m-18.238,6.554c-0.016,-0.004 -0.029,-0.012 -0.045,-0.02c-0.142,-0.08 -0.217,-0.25 -0.192,-0.409c0.004,-0.012 0.008,-0.025 0.012,-0.037c0.034,-0.104 0.059,-0.184 0.196,-0.238c1.384,-1.325 9.359,-6.054 14.184,-6.837c2.695,-0.525 5.012,0.087 6.333,1.691c0.95,1.146 1.25,2.68 0.762,3.905c-1.183,3.104 -6.708,3.025 -8.375,2.925c-3.129,-0.438 -11.77,-1.038 -12.595,-0.971c-0.092,0.033 -0.192,0.029 -0.28,-0.009" style="fill:#1a2e35;fill-rule:nonzero;"/><path d="M667.095,1547.41c-0.275,0.129 -0.605,0.025 -0.75,-0.246c-12.367,-22.262 -12.213,-49.837 0.404,-71.95c0.158,-0.283 0.512,-0.379 0.791,-0.221c0.28,0.159 0.375,0.517 0.217,0.796c-12.417,21.763 -12.567,48.9 -0.4,70.817c0.158,0.275 0.058,0.629 -0.225,0.787c-0.012,0.004 -0.025,0.013 -0.037,0.017" style="fill:#1a2e35;fill-rule:nonzero;"/><path d="M668.954,1522.58c-7.046,0.929 -7.442,12.396 -7.154,12.475c0.354,1.166 0.742,2.333 1.162,3.487c0.005,-1.637 2.246,-4.975 6.659,-8.012c4.262,-3.167 6.012,-9.084 -0.667,-7.95" style="fill:#1a2e35;fill-rule:nonzero;"/><path d="M648.753,1526.2c-6.879,1.159 -1.958,9.421 3.65,9.7c5.484,0.459 9.321,1.521 10.463,2.688c-0.496,-1.134 -0.963,-2.267 -1.4,-3.417c-0.213,0.179 -6.163,-9.825 -12.713,-8.971" style="fill:#1a2e35;fill-rule:nonzero;"/><path d="M667.98,1512.08c-7.096,-0.254 -9.434,10.862 -9.175,10.983c0.15,1.192 0.329,2.384 0.541,3.575c0.292,-1.587 3.075,-4.462 7.938,-6.683c4.746,-2.379 7.471,-7.867 0.696,-7.875" style="fill:#1a2e35;fill-rule:nonzero;"/><path d="M647.458,1512.26c-6.971,-0.004 -3.521,8.879 1.954,10.075c5.321,1.354 8.912,3.016 9.833,4.329c-0.292,-1.175 -0.554,-2.354 -0.783,-3.542c-0.234,0.15 -4.396,-10.6 -11.004,-10.862" style="fill:#1a2e35;fill-rule:nonzero;"/><path d="M668.771,1501.62c-6.95,-1.43 -11.108,9.1 -10.875,9.245c-0.054,1.196 -0.079,2.392 -0.071,3.588c0.554,-1.5 3.783,-3.85 8.95,-5.221c5.075,-1.529 8.679,-6.471 1.996,-7.612" style="fill:#1a2e35;fill-rule:nonzero;"/><path d="M648.511,1498.36c-6.871,-1.166 -4.95,8.142 0.246,10.221c5.021,2.217 8.279,4.446 8.963,5.879c-0.088,-1.196 -0.146,-2.396 -0.18,-3.596c-0.245,0.117 -2.558,-11.129 -9.029,-12.504" style="fill:#1a2e35;fill-rule:nonzero;"/><path d="M671.306,1491.42c-6.617,-2.566 -12.479,7.138 -12.271,7.317c-0.254,1.162 -0.475,2.337 -0.671,3.521c0.796,-1.383 4.371,-3.159 9.696,-3.646c5.258,-0.658 9.637,-4.946 3.246,-7.192" style="fill:#1a2e35;fill-rule:nonzero;"/><path d="M651.878,1484.81c-6.583,-2.3 -6.25,7.229 -1.475,10.146c4.58,3.025 7.425,5.758 7.859,7.292c0.112,-1.196 0.254,-2.388 0.425,-3.575c-0.267,0.083 -0.663,-11.413 -6.809,-13.863" style="fill:#1a2e35;fill-rule:nonzero;"/><path d="M675.558,1481.71c-6.1,-3.646 -13.55,5.021 -13.367,5.225c-0.446,1.113 -0.866,2.238 -1.254,3.371c1.021,-1.233 4.842,-2.396 10.179,-1.988c5.292,0.225 10.359,-3.308 4.442,-6.608" style="fill:#1a2e35;fill-rule:nonzero;"/><path d="M657.524,1471.91c-6.104,-3.379 -7.421,6.154 -3.204,9.833c4.004,3.767 6.346,6.946 6.521,8.533c0.308,-1.158 0.65,-2.312 1.021,-3.462c-0.288,0.042 1.296,-11.442 -4.338,-14.904" style="fill:#1a2e35;fill-rule:nonzero;"/><path d="M664.673,1480.39c-0.179,0.059 1.434,-10.204 4.584,-14.937c2.958,-4.742 7.221,-3.646 8.262,-1.442c1.084,2.204 -1.112,5.421 -3.471,7.679c-2.516,2.046 -9.462,8.554 -9.375,8.7" style="fill:#1a2e35;fill-rule:nonzero;"/><path d="M672.441,1462.92c-0.896,0.417 -1.908,1.221 -2.854,2.738c-2.483,3.737 -3.983,10.875 -4.412,13.604c0.579,-0.575 1.5,-1.442 2.941,-2.788c1.867,-1.737 4.338,-3.983 5.688,-5.079c2.258,-2.167 4.35,-5.217 3.366,-7.204c-0.445,-0.946 -1.516,-1.596 -2.729,-1.671c-0.491,-0.029 -1.2,0.029 -2,0.4m-7.608,17.821c-0.013,0.008 -0.029,0.017 -0.046,0.021c-0.158,0.05 -0.333,-0.009 -0.429,-0.142c-0.008,-0.008 -0.013,-0.021 -0.017,-0.033c-0.058,-0.088 -0.1,-0.163 -0.041,-0.3c-0.03,-1.921 1.929,-10.979 4.637,-15.046c1.454,-2.338 3.479,-3.613 5.55,-3.492c1.492,0.084 2.817,0.913 3.383,2.104c1.467,2.971 -2.35,6.967 -3.558,8.121c-2.45,1.996 -8.771,7.921 -9.283,8.571c-0.038,0.088 -0.109,0.163 -0.196,0.196" style="fill:#1a2e35;fill-rule:nonzero;"/></g><g id="Text"></g></svg>